<?xml version="1.0" standalone="no"?>
<!DOCTYPE svg PUBLIC "-//W3C//DTD SVG 1.1//EN" "http://www.w3.org/Graphics/SVG/1.1/DTD/svg11.dtd" >
<svg xmlns="http://www.w3.org/2000/svg">
<metadata>
Created by FontPrep 20130207 at Wed Nov  5 09:43:21 2014
 By Chris Cheung
Copyright 2012 Google Inc. All Rights Reserved.
</metadata>
<defs>
<font id="bf048d365227bc47740f290e3d9f34d9" horiz-adv-x='1024' >
  <font-face 
    font-family="NotoSans-BoldItalic"
    font-weight="700"
    font-style="italic"
    font-stretch="normal"
    units-per-em="2048"
    panose-1="2 11 8 2 4 5 4 9 2 4"
    ascent="1638"
    descent="-410"
    x-height="1118"
    cap-height="1462"
    bbox="-1051 -600 2648 2189"
    underline-thickness="102"
    underline-position="-103"
    slope="-12"
    unicode-range="U+000D-FFFD"
  />
<missing-glyph horiz-adv-x="1229" 
d="M297 104h633v1254h-633v-1254zM193 1462h841v-1462h-841v1462z" />
    <glyph glyph-name=".notdef" horiz-adv-x="1229" 
d="M297 104h633v1254h-633v-1254zM193 1462h841v-1462h-841v1462z" />
    <glyph glyph-name="glyph1" 
 />
    <glyph glyph-name="glyph1" 
 />
    <glyph glyph-name="uni000D" unicode="&#xd;" horiz-adv-x="1044" 
 />
    <glyph glyph-name="space" unicode=" " horiz-adv-x="532" 
 />
    <glyph glyph-name="exclam" unicode="!" horiz-adv-x="586" 
d="M214 313q164 0 165 -154q0 -78 -55 -132t-144 -54q-155 -1 -155 153q0 78 53.5 132.5t135.5 54.5zM391 485h-241l157 977h340z" />
    <glyph glyph-name="quotedbl" unicode="&#x22;" horiz-adv-x="928" 
d="M954 1462l-151 -528h-199l74 528h276zM549 1462l-152 -528h-196l71 528h277z" />
    <glyph glyph-name="numbersign" unicode="#" horiz-adv-x="1323" 
d="M553 614h197l69 232h-196zM1036 846l-69 -232h258l-19 -206h-297l-116 -408h-220l117 408h-194l-115 -408h-215l113 408h-238l18 206h277l70 232h-252l18 209h289l119 407h217l-117 -407h199l116 407h215l-116 -407h239l-18 -209h-279z" />
    <glyph glyph-name="dollar" unicode="$" horiz-adv-x="1128" 
d="M502 1022q0 -79 80 -111l51 246q-131 -15 -131 -135zM735 457q0 93 -84 127l-57 -262q63 9 102 45t39 90zM207 1004q0 173 127 279.5t350 121.5l35 151h139l-33 -151q166 -22 295 -90l-106 -232q-132 65 -242 74l-63 -299q131 -51 228 -124.5t97 -247.5t-125.5 -281.5
t-367.5 -124.5l-39 -199h-140l44 201q-209 12 -355 86v266q198 -107 404 -117l71 322q-319 119 -319 365z" />
    <glyph glyph-name="percent" unicode="%" horiz-adv-x="1753" 
d="M1679 582q0 -160 -54 -306t-148.5 -220t-226.5 -74t-204.5 79t-72.5 239t53 305t147.5 219.5t225.5 74.5t205.5 -78.5t74.5 -238.5zM1376 690q-39 0 -75 -56t-59 -156t-23 -195t55 -95q41 0 77 55t59.5 155t23.5 196t-58 96zM1554 1462l-1083 -1462h-240l1088 1462h235z
M821 1161q0 -162 -56 -306t-151.5 -217t-225.5 -73t-201.5 83.5t-71.5 244.5t83.5 375.5t336.5 214.5q137 0 211.5 -80t74.5 -242zM518 1274q-63 0 -110.5 -128.5t-47.5 -277.5q0 -96 56 -96q65 0 112 131t47 275q0 96 -57 96z" />
    <glyph glyph-name="ampersand" unicode="&#x26;" horiz-adv-x="1450" 
d="M860 1142q0 110 -113 109q-53 0 -89.5 -46.5t-36.5 -106.5q0 -113 41 -178q113 59 155.5 111.5t42.5 110.5zM383 394q0 -72 45.5 -115t138.5 -43t199 59l-225 328q-88 -51 -123 -104t-35 -125zM510 -20q-218 0 -330 97.5t-112 280.5q0 145 78.5 248.5t273.5 200.5
q-76 130 -76 258q0 195 117.5 307.5t301.5 112.5t281 -82.5t97 -224.5q0 -280 -365 -426l195 -263q91 117 159 295h300q-133 -313 -310 -497l205 -287h-350l-72 98q-175 -118 -393 -118z" />
    <glyph glyph-name="quotesingle" unicode="'" horiz-adv-x="522" 
d="M549 1462l-152 -528h-196l71 528h277z" />
    <glyph glyph-name="parenleft" unicode="(" horiz-adv-x="694" 
d="M340 270q0 -308 117 -594h-234q-149 266 -149 605t122.5 626.5t381.5 554.5h262q-500 -545 -500 -1192z" />
    <glyph glyph-name="parenright" unicode=")" horiz-adv-x="694" 
d="M618 857q0 -341 -124 -629.5t-379 -551.5h-262q499 545 499 1192q0 307 -116 594h233q149 -264 149 -605z" />
    <glyph glyph-name="asterisk" unicode="*" horiz-adv-x="1116" 
d="M885 1522l-113 -353l387 29l-18 -254l-338 43l160 -336l-246 -73l-90 337l-197 -278l-207 164l275 248l-326 92l86 237l338 -174l33 369z" />
    <glyph glyph-name="plus" unicode="+" horiz-adv-x="1128" 
d="M475 612h-366v219h366v369h219v-369h367v-219h-367v-364h-219v364z" />
    <glyph glyph-name="comma" unicode="," horiz-adv-x="584" 
d="M377 238l8 -23q-118 -255 -262 -479h-225q74 167 194 502h285z" />
    <glyph glyph-name="hyphen" unicode="-" horiz-adv-x="659" 
d="M41 424l53 250h524l-53 -250h-524z" />
    <glyph glyph-name="period" unicode="." horiz-adv-x="584" 
d="M214 313q164 0 165 -154q0 -78 -55 -132t-144 -54q-155 -1 -155 153q0 78 53.5 132.5t135.5 54.5z" />
    <glyph glyph-name="slash" unicode="/" horiz-adv-x="862" 
d="M1014 1462l-809 -1462h-295l809 1462h295z" />
    <glyph glyph-name="zero" unicode="0" horiz-adv-x="1128" 
d="M807 1034q0 202 -123 201q-80 0 -149.5 -104t-117.5 -302.5t-48 -340.5t27.5 -200.5t103.5 -58.5t145.5 106.5t115.5 301.5t46 397zM1110 1012q0 -308 -81.5 -548.5t-225.5 -362t-338 -121.5t-296.5 122t-102.5 389t82.5 503t228 363.5t334.5 127.5q399 0 399 -473z" />
    <glyph glyph-name="one" unicode="1" horiz-adv-x="1128" 
d="M688 0h-305l180 829q35 152 76 287q-56 -50 -324 -217l-133 215l566 348h249z" />
    <glyph glyph-name="two" unicode="2" horiz-adv-x="1128" 
d="M788 1066q0 80 -41 119.5t-109 39.5t-137 -33.5t-171 -118.5l-146 203q132 112 252 159.5t250 47.5q190 0 301 -98t111 -259q0 -200 -122.5 -341.5t-307.5 -292.5l-269 -222v-10h568l-54 -260h-962l43 213l477 424q180 159 248.5 254t68.5 175z" />
    <glyph glyph-name="three" unicode="3" horiz-adv-x="1128" 
d="M364 225q181 0 266 63.5t85 176.5q0 172 -258 172h-138l46 221h73q167 0 263 62t96 172q0 67 -43 104t-121 37q-134 0 -287 -100l-127 204q124 81 232.5 113.5t246.5 32.5q190 0 298 -90.5t108 -244.5t-94 -258.5t-262 -133.5v-8q131 -26 198.5 -106.5t67.5 -207.5
t-74 -232t-212 -163.5t-352 -58.5t-362 79v267q169 -101 350 -101z" />
    <glyph glyph-name="four" unicode="4" horiz-adv-x="1128" 
d="M616 543l58 248q12 58 40 164t42 141h-11q-46 -82 -127 -181l-313 -372h311zM1028 303h-170l-63 -303h-293l63 303h-590l48 234l770 925h311l-195 -919h170z" />
    <glyph glyph-name="five" unicode="5" horiz-adv-x="1128" 
d="M707 496q0 188 -224 188q-102 0 -213 -33l-104 78l207 733h755l-55 -262h-489l-88 -293q72 15 127 15q183 0 289 -103t106 -279t-71.5 -300.5t-208.5 -192t-330 -67.5q-117 0 -218.5 23t-162.5 58v269q174 -99 340 -99t253 71t87 194z" />
    <glyph glyph-name="six" unicode="6" horiz-adv-x="1128" 
d="M530 227q99 0 161.5 94t62.5 236q0 71 -34 113.5t-98 42.5t-151.5 -57t-87.5 -234q0 -91 40 -143t107 -52zM88 452q0 218 61 412t221.5 407.5t559.5 213.5q125 0 223 -27l-51 -246q-84 25 -191 25q-198 0 -319.5 -111t-183.5 -342h8q115 166 311 166q157 0 242.5 -97
t85.5 -269t-106 -388t-433 -216q-212 0 -320 127t-108 345z" />
    <glyph glyph-name="seven" unicode="7" horiz-adv-x="1128" 
d="M78 0l737 1202h-629l56 260h975l-41 -194l-752 -1268h-346z" />
    <glyph glyph-name="eight" unicode="8" horiz-adv-x="1128" 
d="M688 1260q-70 0 -115 -46.5t-45 -119.5q0 -132 123 -201q185 72 185 221q0 68 -39 107t-109 39zM352 388q0 -86 50 -133.5t139 -47.5t143.5 53.5t54.5 132.5t-36.5 137.5t-120.5 112.5q-230 -89 -230 -255zM709 1485q135 0 227.5 -42t141 -118t48.5 -192t-80.5 -215.5
t-230.5 -151.5q217 -141 217 -365q0 -122 -63.5 -218.5t-181 -149.5t-273.5 -53q-214 0 -336.5 100t-122.5 270q0 298 348 426q-165 132 -165 299q0 119 58 212.5t168 145.5t245 52z" />
    <glyph glyph-name="nine" unicode="9" horiz-adv-x="1128" 
d="M650 1237q-70 0 -120.5 -42t-78 -114t-27.5 -156t37.5 -128.5t101.5 -44.5t146 58t82 237q0 84 -35.5 137t-105.5 53zM678 1485q414 0 414 -505q0 -259 -99 -512t-264 -370.5t-403 -117.5q-128 0 -240 32v256q111 -41 227 -41q174 0 283.5 102t171.5 343h-8
q-110 -158 -284 -158t-263.5 103.5t-89.5 277.5t109 382t446 208z" />
    <glyph glyph-name="colon" unicode=":" horiz-adv-x="584" 
d="M399 1139q162 -1 162 -155q0 -78 -54.5 -131.5t-144.5 -53.5q-155 0 -155 153q0 80 55.5 133.5t136.5 53.5zM214 313q164 0 165 -154q0 -78 -55 -132t-144 -54q-155 -1 -155 153q0 78 53.5 132.5t135.5 54.5z" />
    <glyph glyph-name="semicolon" unicode=";" horiz-adv-x="584" 
d="M399 1139q162 -1 162 -155q0 -78 -54.5 -131.5t-144.5 -53.5q-155 0 -155 153q0 80 55.5 133.5t136.5 53.5zM385 215q-118 -255 -262 -479h-225q74 167 194 502h285z" />
    <glyph glyph-name="less" unicode="&#x3c;" horiz-adv-x="1128" 
d="M1061 203l-952 438v143l952 496v-240l-643 -317l643 -281v-239z" />
    <glyph glyph-name="equal" unicode="=" horiz-adv-x="1128" 
d="M109 807v217h952v-217h-952zM109 418v219h952v-219h-952z" />
    <glyph glyph-name="greater" unicode="&#x3e;" horiz-adv-x="1128" 
d="M109 442l643 281l-643 317v240l952 -496v-143l-952 -438v239z" />
    <glyph glyph-name="question" unicode="?" horiz-adv-x="940" 
d="M358 313q162 0 162 -154q0 -78 -55 -132t-143 -54q-156 1 -156 155q0 78 55 131.5t137 53.5zM711 1118q0 119 -133 119q-50 0 -106.5 -16t-201.5 -84l-92 221q230 125 426 125t299 -87.5t103 -244.5t-82.5 -243t-197.5 -163t-151 -125.5t-57 -134.5h-258
q27 146 85.5 238.5t178.5 174.5t153.5 124.5t33.5 95.5z" />
    <glyph glyph-name="at" unicode="@" horiz-adv-x="1753" 
d="M977 889q-64 0 -127.5 -51.5t-100 -137t-36.5 -162.5q0 -151 94 -151q141 0 213 270l57 222q-36 10 -100 10zM813 4q230 0 453 86v-186q-230 -90 -456 -90t-387 85.5t-246 241.5t-85 359q0 279 120.5 497t343 341.5t518.5 123.5t477.5 -163.5t181.5 -458.5
q0 -173 -64 -321t-177.5 -231t-254.5 -83q-88 0 -144.5 38.5t-72.5 108.5h-10q-52 -80 -114 -113.5t-142 -33.5q-127 0 -198 79.5t-71 227.5t67.5 278t187.5 205.5t286 75.5t309 -55l-106 -420q-27 -108 -27 -141q0 -68 58 -68q66 0 124 64t92.5 171t34.5 214
q0 213 -123.5 325.5t-343.5 112.5t-383 -94t-254.5 -266t-91.5 -404t134 -369t364 -137z" />
    <glyph glyph-name="A" unicode="A" horiz-adv-x="1286" 
d="M827 608l-26 350l-5 133l-3 156h-5q-54 -147 -106 -254l-188 -385h333zM842 348h-473l-172 -348h-320l766 1468h373l147 -1468h-297z" />
    <glyph glyph-name="B" unicode="B" horiz-adv-x="1270" 
d="M592 256q117 0 183.5 58t66.5 161q0 162 -183 162h-165l-82 -381h180zM694 883q242 0 242 188q0 137 -170 137h-152l-69 -325h149zM788 1462q463 0 463 -325q0 -150 -83 -246.5t-236 -128.5v-8q100 -26 159.5 -96.5t59.5 -180.5q0 -229 -153 -353t-423 -124h-522
l309 1462h426z" />
    <glyph glyph-name="C" unicode="C" horiz-adv-x="1253" 
d="M905 1227q-132 0 -237.5 -81t-169.5 -239q-64 -157 -64 -331t68.5 -255t216.5 -81t340 77v-260q-199 -77 -400 -77q-254 0 -395 149.5t-141 417.5t104 488.5t278 335t400 114.5q125 0 222 -22.5t208 -82.5l-118 -250q-106 59 -175 78t-137 19z" />
    <glyph glyph-name="D" unicode="D" horiz-adv-x="1386" 
d="M518 256q148 0 258 76t172 223.5t62 319.5q0 333 -281 333h-115l-202 -952h106zM1323 902.5q0 -273.5 -98 -480t-283.5 -314.5t-437.5 -108h-451l309 1462h396q270 0 417.5 -143t147.5 -416.5z" />
    <glyph glyph-name="E" unicode="E" horiz-adv-x="1110" 
d="M870 0h-817l309 1462h818l-54 -254h-512l-67 -321h477l-55 -254h-477l-80 -377h512z" />
    <glyph glyph-name="F" unicode="F" horiz-adv-x="1087" 
d="M358 0h-305l309 1462h814l-54 -254h-508l-79 -377h473l-56 -253h-473z" />
    <glyph glyph-name="G" unicode="G" horiz-adv-x="1413" 
d="M961.5 1223q-149.5 0 -270 -83t-189 -236.5t-68.5 -328t72.5 -255t222.5 -80.5q76 0 170 24l66 299h-267l56 258h563l-162 -762q-230 -79 -490 -79t-401 147t-141 417.5t105.5 486.5t298.5 335t431.5 119t430.5 -99l-115 -251q-163 88 -312.5 88z" />
    <glyph glyph-name="H" unicode="H" horiz-adv-x="1434" 
d="M1135 0h-306l134 631h-471l-134 -631h-305l309 1462h306l-121 -573h471l121 573h305z" />
    <glyph glyph-name="I" unicode="I" horiz-adv-x="784" 
d="M588 0h-647l36 176l187 82l201 946l-152 82l37 176h647l-37 -176l-190 -82l-201 -946l156 -82z" />
    <glyph glyph-name="J" unicode="J" horiz-adv-x="678" 
d="M-135 -430q-94 0 -187 27v253q88 -20 176 -20q185 0 238 252l293 1380h305l-303 -1423q-52 -245 -175.5 -357t-346.5 -112z" />
    <glyph glyph-name="K" unicode="K" horiz-adv-x="1255" 
d="M1141 0h-338l-211 592l-125 -70l-109 -522h-305l309 1462h306l-154 -706l156 209l413 497h361l-594 -700z" />
    <glyph glyph-name="L" unicode="L" horiz-adv-x="1061" 
d="M53 0l309 1462h306l-256 -1206h512l-54 -256h-817z" />
    <glyph glyph-name="M" unicode="M" horiz-adv-x="1802" 
d="M840 369l549 1093h423l-309 -1462h-280l145 692q36 169 109 441h-9l-569 -1133h-281l-61 1133h-8q-22 -182 -78 -453l-143 -680h-275l309 1462h404l65 -1093h9z" />
    <glyph glyph-name="N" unicode="N" horiz-adv-x="1546" 
d="M1247 0h-342l-356 1106h-10l-8 -59q-27 -214 -58 -359l-145 -688h-275l309 1462h357l340 -1077h8q35 223 68 385l147 692h274z" />
    <glyph glyph-name="O" unicode="O" horiz-adv-x="1495" 
d="M434 557q0 -317 254 -317q121 0 220.5 87t155.5 246t56 357q0 142 -65 219.5t-184.5 77.5t-220.5 -91.5t-158.5 -251.5t-57.5 -327zM1432 926q0 -271 -99 -494.5t-271 -337.5t-412 -114t-383.5 147.5t-143.5 411t99 486t273 341.5t415.5 119t381.5 -144t140 -415z" />
    <glyph glyph-name="P" unicode="P" horiz-adv-x="1249" 
d="M952 1028q0 180 -194 180h-144l-92 -434h125q142 0 223.5 69t81.5 185zM770 1462q490 0 490 -426q0 -241 -169.5 -378.5t-467.5 -137.5h-156l-109 -520h-305l309 1462h408z" />
    <glyph glyph-name="Q" unicode="Q" horiz-adv-x="1495" 
d="M434 557q0 -317 254 -317q121 0 220.5 87t155.5 246t56 357q0 142 -65 219.5t-184.5 77.5t-220.5 -91.5t-158.5 -251.5t-57.5 -327zM1432 938q0 -316 -122.5 -555.5t-334.5 -337.5l254 -393h-359l-178 328h-26q-256 0 -399.5 147.5t-143.5 411t99 486t273 341.5
t415.5 119t381.5 -144t140 -403z" />
    <glyph glyph-name="R" unicode="R" horiz-adv-x="1247" 
d="M721 1462q237 0 356 -102t119 -299q0 -158 -83 -271.5t-239 -168.5l261 -621h-332l-207 561h-119l-119 -561h-305l309 1462h359zM885 1044q0 164 -197 164h-74l-84 -395h78q131 0 204 57t73 174z" />
    <glyph glyph-name="S" unicode="S" horiz-adv-x="1085" 
d="M946 432q0 -209 -148 -330.5t-385 -121.5t-372 90v274q193 -108 358 -108q112 0 175 42.5t63 118.5t-52 134q-25 28 -124 102q-138 99 -194 196t-56 217.5t62 222t176.5 158t263.5 56.5q217 0 397 -99l-109 -233q-156 74 -263.5 74t-160.5 -45t-53 -112.5t33 -113.5
q33 -44 151 -122q238 -156 238 -400z" />
    <glyph glyph-name="T" unicode="T" horiz-adv-x="1087" 
d="M571 0h-305l254 1204h-352l55 258h1010l-55 -258h-353z" />
    <glyph glyph-name="U" unicode="U" horiz-adv-x="1415" 
d="M596 -20q-212 0 -333.5 113.5t-121.5 307.5q0 72 15 138l196 923h305l-194 -919q-17 -74 -17 -125q0 -178 189 -178q123 0 195 76.5t104 228.5l194 917h306l-201 -946q-57 -266 -218 -401t-419 -135z" />
    <glyph glyph-name="V" unicode="V" horiz-adv-x="1208" 
d="M532 465q0 -115 -4 -166h9l27 78q51 148 81 205l432 880h316l-748 -1462h-334l-127 1462h295l51 -880l2 -53v-64z" />
    <glyph glyph-name="W" unicode="W" horiz-adv-x="1831" 
d="M477 664q0 -223 -14 -347h8q89 250 125 326l369 819h270l21 -873q0 -146 -9 -272h8q53 159 129 349l330 796h309l-647 -1462h-346l-22 721l-2 113q0 94 6 184h-8q-52 -163 -113 -299l-324 -719h-338l-45 1462h287z" />
    <glyph glyph-name="X" unicode="X" horiz-adv-x="1241" 
d="M1124 0h-331l-172 543l-396 -543h-342l576 764l-238 698h320l153 -518l363 518h344l-545 -725z" />
    <glyph glyph-name="Y" unicode="Y" horiz-adv-x="1155" 
d="M627 870l374 592h342l-618 -903l-119 -559h-303l119 559l-236 903h312z" />
    <glyph glyph-name="Z" unicode="Z" horiz-adv-x="1098" 
d="M920 0h-981l38 201l777 1005h-543l53 256h936l-41 -202l-782 -1004h596z" />
    <glyph glyph-name="bracketleft" unicode="[" horiz-adv-x="678" 
d="M436 -324h-473l381 1786h473l-45 -211h-215l-291 -1364h215z" />
    <glyph glyph-name="backslash" unicode="\" horiz-adv-x="862" 
d="M481 1462l224 -1462h-267l-217 1462h260z" />
    <glyph glyph-name="bracketright" unicode="]" horiz-adv-x="678" 
d="M-92 -113h213l291 1364h-215l45 211h473l-381 -1786h-471z" />
    <glyph glyph-name="asciicircum" unicode="^" horiz-adv-x="1128" 
d="M35 520l618 950h148l276 -950h-223l-174 633l-401 -633h-244z" />
    <glyph glyph-name="underscore" unicode="_" horiz-adv-x="819" 
d="M635 -324h-821l30 140h822z" />
    <glyph glyph-name="grave" unicode="`" horiz-adv-x="1135" 
d="M508 1569h311q36 -148 115 -303v-25h-184q-166 161 -242 307v21z" />
    <glyph glyph-name="a" unicode="a" horiz-adv-x="1217" 
d="M395 399q0 -176 129 -176q69 0 133 67t103 181.5t39 259.5q0 71 -38.5 117.5t-104 46.5t-127 -72t-98 -190t-36.5 -234zM608 1139q197 0 277 -164h8l57 143h232l-238 -1118h-225l14 145h-8q-134 -165 -319 -165q-147 0 -231.5 106.5t-84.5 301.5t72 374.5t189 278
t257 98.5z" />
    <glyph glyph-name="b" unicode="b" horiz-adv-x="1219" 
d="M692 895q-74 0 -134 -65t-99 -189.5t-39 -222.5t37 -146.5t103 -48.5t127 69t98.5 189.5t37.5 237.5q0 176 -131 176zM610 -20q-194 0 -276 163h-8l-58 -143h-231l330 1556h301l-62 -288q-41 -182 -84 -299h8q78 98 142.5 134t140.5 36q146 0 230.5 -108t84.5 -298
t-68 -367.5t-187 -281.5t-263 -104z" />
    <glyph glyph-name="c" unicode="c" horiz-adv-x="989" 
d="M497.5 -20q-192.5 0 -300 107.5t-107.5 311.5t74.5 377.5t209.5 268t312.5 94.5t323.5 -72l-92 -229q-54 23 -106 40t-127.5 17t-144 -64t-107 -175.5t-38.5 -223.5q0 -209 172 -209q76 0 141 23.5t134 58.5v-246q-152 -79 -344.5 -79z" />
    <glyph glyph-name="d" unicode="d" horiz-adv-x="1217" 
d="M532 223q70 0 129 63.5t98.5 189.5t39.5 224.5t-37.5 146.5t-104 48t-128 -72t-98 -190t-36.5 -234q0 -176 137 -176zM90 388.5q0 194.5 71.5 373t188.5 278t258 99.5q82 0 141.5 -37t112.5 -127h8l2 28q6 110 25 195l76 358h301l-330 -1556h-229l18 145h-8
q-135 -165 -319 -165q-147 0 -231.5 107t-84.5 301.5z" />
    <glyph glyph-name="e" unicode="e" horiz-adv-x="1141" 
d="M536 -20q-214 0 -330 113t-116 319.5t82.5 377t223.5 260t318.5 89.5t276.5 -81.5t99 -223.5q0 -187 -167 -288.5t-477 -101.5h-51l-2 -21v-20q0 -91 51.5 -143.5t143 -52.5t162.5 19t172 67v-227q-172 -86 -386 -86zM801 827q0 95 -96.5 95t-174.5 -80t-102 -195h45
q155 0 241.5 48.5t86.5 131.5z" />
    <glyph glyph-name="f" unicode="f" horiz-adv-x="764" 
d="M-45 -492q-104 0 -174 25v242q61 -21 118.5 -21t103.5 40t65 130l204 965h-163l30 145l183 84l18 84q41 190 138.5 277.5t273.5 87.5q131 0 235 -49l-80 -224q-69 31 -129 31q-116 0 -143 -145l-12 -62h219l-49 -229h-220l-215 -1010q-77 -371 -403 -371z" />
    <glyph glyph-name="g" unicode="g" horiz-adv-x="1217" 
d="M395 416q0 -192 143 -193q67 0 125 64t97 185.5t39 223.5q0 198 -141 199q-67 0 -129.5 -72.5t-98 -187.5t-35.5 -219zM406 -492q-219 0 -379 72v262q160 -86 358.5 -86t252.5 196q28 101 58 198h-8q-72 -94 -143 -132t-154 -38q-139 0 -220 107t-81 300.5t70.5 370.5
t187.5 279t254 102q90 0 154.5 -34.5t128.5 -129.5h8l57 143h232l-244 -1145q-52 -238 -182.5 -351.5t-349.5 -113.5z" />
    <glyph glyph-name="h" unicode="h" horiz-adv-x="1237" 
d="M844 1139q138 0 213.5 -83.5t75.5 -238.5q0 -73 -23 -180l-133 -637h-301l137 653q16 68 16 119q0 123 -108 123q-92 0 -167 -114t-118 -318l-98 -463h-301l330 1556h301q-39 -181 -60 -278t-86 -309h8q137 170 314 170z" />
    <glyph glyph-name="i" unicode="i" horiz-adv-x="608" 
d="M504 1556q149 0 149 -120q0 -80 -44 -129.5t-136 -49.5q-151 0 -151 123q0 87 47.5 131.5t134.5 44.5zM338 0h-301l237 1118h301z" />
    <glyph glyph-name="j" unicode="j" horiz-adv-x="608" 
d="M506 1556q149 0 149 -120q0 -80 -44 -129.5t-136 -49.5q-151 0 -151 123q0 87 47.5 131.5t134.5 44.5zM-90 -492q-104 0 -174 25v242q61 -21 114 -21q137 0 173 170l253 1194h302l-265 -1239q-77 -371 -403 -371z" />
    <glyph glyph-name="k" unicode="k" horiz-adv-x="1163" 
d="M920 1118h344l-498 -504l285 -614h-336l-183 420l-120 -72l-74 -348h-301l330 1556h301l-148 -694q-11 -57 -48 -175l-13 -44h8z" />
    <glyph glyph-name="l" unicode="l" horiz-adv-x="608" 
d="M338 0h-301l330 1556h301z" />
    <glyph glyph-name="m" unicode="m" horiz-adv-x="1853" 
d="M1470 1139q136 0 207.5 -85t71.5 -237q0 -76 -23 -180l-133 -637h-301l138 653q16 68 16 119q0 123 -96 123t-171.5 -115t-115.5 -315l-96 -465h-301l137 653q16 68 16 119q0 123 -98 123q-92 0 -167 -114t-118 -318l-98 -463h-301l237 1118h230l-21 -207h9
q146 228 358.5 228t255.5 -228h8q142 228 356 228z" />
    <glyph glyph-name="n" unicode="n" horiz-adv-x="1237" 
d="M829 772q0 123 -108 123q-92 0 -167 -114t-118 -318l-98 -463h-301l237 1118h230l-21 -207h9q146 228 352 228q138 0 213.5 -83.5t75.5 -238.5q0 -73 -23 -180l-133 -637h-301l137 653q16 68 16 119z" />
    <glyph glyph-name="o" unicode="o" horiz-adv-x="1198" 
d="M1108 694q0 -209 -70.5 -372t-203.5 -252.5t-322 -89.5t-305.5 117.5t-116.5 321.5t71.5 370.5t206.5 258t323.5 91.5t302.5 -118t114 -327zM805 696q0 197 -143 197q-75 0 -134.5 -61t-97 -179t-37.5 -243q0 -185 150 -185q75 0 135 61.5t93.5 171t33.5 238.5z" />
    <glyph glyph-name="p" unicode="p" horiz-adv-x="1219" 
d="M692 895q-74 0 -134.5 -65t-99 -188.5t-38.5 -223.5t37 -147.5t103 -47.5t127 69t98.5 189.5t37.5 237.5q0 176 -131 176zM813 1139q146 0 230.5 -107.5t84.5 -299.5t-68.5 -368.5t-187.5 -280t-262 -103.5q-83 0 -143 37t-111 126h-8q-12 -159 -43 -295l-72 -340h-301
l342 1610h230l-17 -170h9q138 191 317 191z" />
    <glyph glyph-name="q" unicode="q" horiz-adv-x="1217" 
d="M395 399q0 -176 140 -176q70 0 128.5 64t97 188.5t38.5 224t-37.5 147.5t-104 48t-128 -72t-98 -190t-36.5 -234zM388.5 -20q-85.5 0 -153.5 48q-145 101 -145 357q0 198 72 377.5t189 278t257 98.5q86 0 152.5 -37.5t124.5 -126.5h8l57 143h232l-342 -1610h-301
q47 218 73 337.5t84 304.5h-8q-72 -94 -143 -132t-156.5 -38z" />
    <glyph glyph-name="r" unicode="r" horiz-adv-x="862" 
d="M842 1139q59 0 96 -11l-66 -290q-45 16 -100 16q-116 0 -203.5 -91.5t-124.5 -262.5l-106 -500h-301l237 1118h230l-21 -207h11q145 228 348 228z" />
    <glyph glyph-name="s" unicode="s" horiz-adv-x="969" 
d="M365.5 -20q-214.5 0 -342.5 65v248q157 -90 319 -90q80 0 131 32.5t51 82t-37 83.5t-144.5 94t-155.5 127.5t-48 159.5q0 170 110.5 263.5t313.5 93.5t365 -95l-99 -215q-140 84 -258 84q-57 0 -92 -25.5t-35 -66.5t32 -70.5t138 -83.5q216 -110 215.5 -298t-125 -288.5
t-339 -100.5z" />
    <glyph glyph-name="t" unicode="t" horiz-adv-x="840" 
d="M514 223q65 0 162 35v-225q-112 -53 -264 -53t-222.5 63t-70.5 195q0 50 12 112l115 539h-152l29 147l196 84l132 236h194l-49 -238h283l-50 -229h-282l-115 -539q-6 -30 -6 -53q0 -74 88 -74z" />
    <glyph glyph-name="u" unicode="u" horiz-adv-x="1237" 
d="M410 346q0 -123 108 -123q92 0 167 114t118 318l98 463h301l-237 -1118h-230l21 207h-11q-145 -227 -350 -227q-138 0 -211 82.5t-73 238.5q0 93 24 213l127 604h301l-137 -653q-16 -68 -16 -119z" />
    <glyph glyph-name="v" unicode="v" horiz-adv-x="1049" 
d="M449 301h10q64 177 88 223l297 594h323l-604 -1118h-323l-138 1118h295l45 -586q7 -133 7 -231z" />
    <glyph glyph-name="w" unicode="w" horiz-adv-x="1614" 
d="M1073 1118v-536q0 -193 -10 -297h10q81 250 119 338l219 495h307l-530 -1118h-330l-6 520q0 155 10 340h-12q-90 -255 -117 -319l-233 -541h-324l-51 1118h281l4 -495q0 -209 -11 -338h9q37 134 106 297l231 536h328z" />
    <glyph glyph-name="x" unicode="x" horiz-adv-x="1087" 
d="M379 573l-225 545h321l115 -334l244 334h354l-467 -561l244 -557h-326l-125 342l-264 -342h-350z" />
    <glyph glyph-name="y" unicode="y" horiz-adv-x="1063" 
d="M465 307h8q20 51 44 119.5t65 153.5l260 538h327l-680 -1278q-177 -332 -483 -332q-90 0 -147 19v240q68 -13 134 -13q142 0 247 197l26 49l-164 1118h295l56 -518q12 -105 12 -293z" />
    <glyph glyph-name="z" unicode="z" horiz-adv-x="932" 
d="M748 0h-795l35 180l575 705h-397l51 233h750l-43 -200l-566 -685h439z" />
    <glyph glyph-name="braceleft" unicode="{" horiz-adv-x="727" 
d="M459 338q0 -44 -15 -113l-36 -178q-7 -28 -7 -51q0 -54 33.5 -74t91.5 -20v-226h-53q-167 0 -253.5 63.5t-86.5 184.5q0 57 14 125l39 184q15 69 15 86q0 140 -209 140l45 229q122 0 192.5 41.5t92.5 138.5l61 285q38 170 131 239.5t270 69.5h84l-49 -225
q-90 -2 -130.5 -34.5t-55.5 -106.5l-66 -297q-45 -207 -276 -236v-8q168 -51 168 -217z" />
    <glyph glyph-name="bar" unicode="|" horiz-adv-x="1128" 
d="M455 1550h219v-2015h-219v2015z" />
    <glyph glyph-name="braceright" unicode="}" horiz-adv-x="727" 
d="M256 1462q340 0 340 -248q0 -56 -14 -124l-39 -185q-15 -69 -15 -86q0 -139 209 -139l-45 -229q-122 0 -192.5 -42t-91.5 -139l-62 -284q-37 -170 -130.5 -240t-270.5 -70h-45v226q93 3 137 35.5t59 105.5l66 297q25 111 95 166t181 69v9q-168 51 -168 217q0 43 15 112
l37 179q6 30 6 51q0 54 -36.5 74t-109.5 20l41 225h33z" />
    <glyph glyph-name="asciitilde" unicode="~" horiz-adv-x="1128" 
d="M805 553q-59 0 -109 11.5t-143 50.5t-131 48t-86 9t-110.5 -33t-116.5 -88v231q101 109 256 109q103 1 245 -59t217 -60q111 0 234 121v-231q-103 -109 -256 -109z" />
    <glyph glyph-name="uni00A0" unicode="&#xa0;" horiz-adv-x="532" 
 />
    <glyph glyph-name="exclamdown" unicode="&#xa1;" horiz-adv-x="586" 
d="M393 1118q156 0 156 -154q0 -80 -55.5 -133t-136.5 -53q-162 0 -162 146q0 85 54 139.5t144 54.5zM182 606h242l-158 -977h-340z" />
    <glyph glyph-name="cent" unicode="&#xa2;" horiz-adv-x="1128" 
d="M469 626q1 -210 169 -210q78 0 143 23.5t134 58.5v-246q-136 -71 -299 -80l-41 -192h-188l49 210q-272 73 -272 394q0 193 62.5 355t178 262.5t267.5 123.5l33 158h188l-35 -158q118 -14 225 -65l-92 -230q-53 23 -105 40t-126 17t-141 -59.5t-108.5 -173.5t-41.5 -228z
" />
    <glyph glyph-name="sterling" unicode="&#xa3;" horiz-adv-x="1128" 
d="M874 1485q194 0 367 -86l-113 -232q-140 68 -226 68t-134 -39.5t-68 -132.5l-47 -229h299l-45 -220h-299l-18 -84q-42 -195 -209 -270h655l-55 -260h-993l49 246q196 48 244 264l22 104h-192l45 220h192l49 247q41 197 162 300.5t315 103.5z" />
    <glyph glyph-name="currency" unicode="&#xa4;" horiz-adv-x="1128" 
d="M397 724q0 -78 54.5 -133.5t134.5 -55.5t136 55t56 134t-57 134t-135 55t-133.5 -55.5t-55.5 -133.5zM190 722q0 103 54 198l-129 127l147 147l127 -127q91 53 197 53t196 -55l127 129l150 -143l-129 -129q53 -90 53 -198t-53 -200l125 -125l-146 -145l-127 125
q-95 -51 -203 -51t-192 51l-125 -123l-145 145l127 125q-54 93 -54 196z" />
    <glyph glyph-name="yen" unicode="&#xa5;" horiz-adv-x="1128" 
d="M608 872l371 590h311l-506 -747h203l-39 -178h-252l-28 -138h252l-37 -178h-252l-47 -221h-291l47 221h-252l37 178h252l29 138h-252l39 178h196l-192 747h297z" />
    <glyph glyph-name="brokenbar" unicode="&#xa6;" horiz-adv-x="1128" 
d="M455 350h219v-815h-219v815zM455 1550h219v-815h-219v815z" />
    <glyph glyph-name="section" unicode="&#xa7;" horiz-adv-x="995" 
d="M393 794q0 -52 42.5 -94.5t144.5 -87.5q49 31 75.5 77t26.5 93q0 106 -176 176q-51 -24 -82 -68t-31 -96zM827 326q0 -161 -125.5 -253.5t-337.5 -92.5t-344 75v224q172 -105 345 -105q99 0 144.5 35t45.5 83t-32.5 81t-138.5 85q-234 114 -234 298q0 85 46 158.5
t156 142.5q-98 79 -98 192q0 147 117 232.5t301 85.5t356 -88l-82 -193q-146 84 -286 84t-140 -106q0 -42 41 -75t145 -79q224 -99 224 -287t-193 -303q90 -83 90 -194z" />
    <glyph glyph-name="dieresis" unicode="&#xa8;" horiz-adv-x="1135" 
d="M1075 1432q0 -160 -149 -160q-127 0 -127 110q0 78 39.5 118t111.5 40q125 0 125 -108zM692 1432q0 -160 -149 -160q-127 0 -127 110q0 78 39.5 118t111.5 40q125 0 125 -108z" />
    <glyph glyph-name="copyright" unicode="&#xa9;" horiz-adv-x="1704" 
d="M246 731q0 -172 86 -321t236 -235.5t322 -86.5t320.5 85.5t236 234t87.5 323.5t-87.5 323t-236 234t-320.5 86t-321.5 -86t-236 -235.5t-86.5 -321.5zM137 732q0 199 100 374t274.5 276t374.5 101t373 -97t277 -272t104 -381t-100.5 -378.5t-273 -273.5t-378.5 -101
t-381 103.5t-272.5 276.5t-97.5 372zM516 726q0 214 110 338t304 124q126 0 252 -62l-62 -125q-108 54 -192 54q-122 0 -188 -84.5t-66 -239.5q0 -325 254 -325q93 0 213 45v-129q-116 -50 -221 -50q-190 0 -297 120t-107 334z" />
    <glyph glyph-name="ordfeminine" unicode="&#xaa;" horiz-adv-x="772" 
d="M442 899q45 0 84 40.5t65.5 120.5t26.5 154q0 107 -88 107q-73 0 -123.5 -96t-50.5 -211t86 -115zM507 1475q109 0 169 -103h8l39 90h154l-158 -702h-148l9 92h-9q-81 -104 -193 -104t-169 70t-57 192t46 233.5t123 171.5t186 60z" />
    <glyph glyph-name="guillemotleft" unicode="&#xab;" horiz-adv-x="1151" 
d="M559 569l402 463l190 -155l-279 -334l136 -350l-246 -103l-203 461v18zM72 569l401 463l191 -155l-279 -334l135 -350l-246 -103l-202 461v18z" />
    <glyph glyph-name="logicalnot" unicode="&#xac;" horiz-adv-x="1128" 
d="M1061 248h-219v364h-733v219h952v-583z" />
    <glyph glyph-name="uni00AD" unicode="&#xad;" horiz-adv-x="659" 
d="M41 424l53 250h524l-53 -250h-524z" />
    <glyph glyph-name="registered" unicode="&#xae;" horiz-adv-x="1704" 
d="M774 762h88q193 0 193 147q0 75 -48 105t-145 30h-88v-282zM874 1171q324 0 324 -258q0 -77 -47 -140.5t-133 -98.5l225 -383h-160l-200 348h-109v-348h-135v880h235zM246 731q0 -172 86 -321t236 -235.5t322 -86.5t320.5 85.5t236 234t87.5 323.5t-87.5 323t-236 234
t-320.5 86t-321.5 -86t-236 -235.5t-86.5 -321.5zM137 732q0 199 100 374t274.5 276t374.5 101t373 -97t277 -272t104 -381t-100.5 -378.5t-273 -273.5t-378.5 -101t-381 103.5t-272.5 276.5t-97.5 372z" />
    <glyph glyph-name="macron" unicode="&#xaf;" horiz-adv-x="1024" 
d="M1214 1556h-1036l45 201h1037z" />
    <glyph glyph-name="degree" unicode="&#xb0;" horiz-adv-x="877" 
d="M354 1136q0 -62 45 -107.5t111 -45.5t111 46.5t45 108.5t-45.5 109t-110.5 47t-110.5 -48t-45.5 -110zM164 1136q0 94 46.5 174.5t127.5 126.5t173 46t172.5 -47t126.5 -127.5t46 -172.5t-46 -172t-126 -125.5t-174 -45.5t-173.5 45t-126 124.5t-46.5 173.5z" />
    <glyph glyph-name="plusminus" unicode="&#xb1;" horiz-adv-x="1128" 
d="M109 0v219h952v-219h-952zM475 674h-366v219h366v369h219v-369h367v-219h-367v-365h-219v365z" />
    <glyph glyph-name="uni00B2" unicode="&#xb2;" horiz-adv-x="776" 
d="M541 1483q123 0 196.5 -62.5t73.5 -146.5t-22 -137t-70 -103.5t-189 -152.5l-129 -95h347l-41 -200h-648l35 166l273 219q111 91 155.5 137t44.5 94t-25.5 68t-60.5 20q-86 0 -188 -82l-100 158q152 117 348 117z" />
    <glyph glyph-name="uni00B3" unicode="&#xb3;" horiz-adv-x="776" 
d="M584 1225q0 80 -92 80t-193 -66l-82 150q143 92 293 92t226.5 -55.5t76.5 -148.5t-51 -150.5t-166 -88.5v-8q154 -33 154 -169t-107 -214t-273 -78t-278 56v192q125 -72 254 -72q76 0 125 30.5t49 78.5q0 98 -114 98h-127l34 160h90q181 0 181 113z" />
    <glyph glyph-name="acute" unicode="&#xb4;" horiz-adv-x="1135" 
d="M1040 1569v-17q-46 -56 -154 -152.5t-194 -158.5h-209v25q79 88 222 303h335z" />
    <glyph glyph-name="mu" unicode="&#xb5;" horiz-adv-x="1249" 
d="M494 -20q-100 0 -148 67h-10q-13 -105 -20 -148t-80 -391h-304l342 1610h301l-135 -645q-16 -69 -16 -127t31.5 -90.5t79.5 -32.5q90 0 162.5 106.5t117.5 319.5l98 469h301l-237 -1118h-225l18 176h-10q-117 -196 -266 -196z" />
    <glyph glyph-name="paragraph" unicode="&#xb6;" horiz-adv-x="1341" 
d="M1202 -260h-162v1616h-166v-1616h-161v819q-62 -18 -146 -18q-216 0 -318 124.5t-102 378.5t107.5 383t343.5 129h604v-1816z" />
    <glyph glyph-name="periodcentered" unicode="&#xb7;" horiz-adv-x="584" 
d="M320 893q164 0 165 -154q0 -78 -55 -132t-144 -54q-155 -1 -155 153q-1 78 53 133q54 54 136 54z" />
    <glyph glyph-name="cedilla" unicode="&#xb8;" horiz-adv-x="420" 
d="M20 -242q0 72 -141 88l96 154h185l-39 -72q141 -50 141 -172t-83 -185t-234 -63q-86 0 -152 23v168q63 -23 125 -23q102 0 102 82z" />
    <glyph glyph-name="uni00B9" unicode="&#xb9;" horiz-adv-x="776" 
d="M528 1462h207l-186 -876h-246l84 397q24 109 55 207q-16 -15 -80 -60l-131 -81l-102 165z" />
    <glyph glyph-name="ordmasculine" unicode="&#xba;" horiz-adv-x="754" 
d="M522 1311q-64 0 -107.5 -89.5t-43.5 -199.5t80 -111q63 0 105 85.5t42 199.5t-76 115zM809 1195q0 -133 -73 -290t-304 -157q-134 0 -202 75t-68 211q0 197 104 319t277 122q129 0 197.5 -73.5t68.5 -206.5z" />
    <glyph glyph-name="guillemotright" unicode="&#xbb;" horiz-adv-x="1151" 
d="M592 553l-402 -463l-190 155l279 334l-136 350l246 103l203 -461v-18zM1079 553l-401 -463l-191 155l279 334l-135 350l246 103l202 -461v-18z" />
    <glyph glyph-name="onequarter" unicode="&#xbc;" horiz-adv-x="1804" 
d="M1500 1462l-1084 -1462h-239l1087 1462h236zM496 1462h207l-186 -876h-246l84 397q24 109 55 207q-16 -15 -80 -60l-131 -81l-102 165zM1252 320l58 231l22 74q-31 -47 -254 -305h174zM1573 152h-119l-32 -151h-238l33 151h-373l31 174l475 557h260l-121 -563h119z" />
    <glyph glyph-name="onehalf" unicode="&#xbd;" horiz-adv-x="1804" 
d="M1500 1462l-1084 -1462h-239l1087 1462h236zM496 1462h207l-186 -876h-246l84 397q24 109 55 207q-16 -15 -80 -60l-131 -81l-102 165zM1422 898q122 0 196 -63t74 -147t-22 -136q-22 -54 -70 -104t-189 -152l-129 -95h347l-41 -200h-648l35 166l273 219q112 91 156 137
t44 94t-26 68t-60 20q-86 0 -188 -82l-100 158q152 117 348 117z" />
    <glyph glyph-name="threequarters" unicode="&#xbe;" horiz-adv-x="1804" 
d="M625 1225q1 80 -91 80t-194 -66l-82 150q142 92 292 92q150 1 228 -55q76 -56 76 -149t-51 -151t-166 -88v-8q154 -33 154 -169t-107 -214t-273 -78t-278 56v192q125 -72 254 -72q76 1 125 31t49 78q0 98 -114 98h-127l34 160h90q181 0 181 113zM1631 1462l-1084 -1462
h-239l1087 1462h236zM1313 320l58 231l22 74q-31 -47 -254 -305h174zM1634 152h-119l-32 -151h-238l33 151h-373l31 174l475 557h260l-121 -563h119z" />
    <glyph glyph-name="questiondown" unicode="&#xbf;" horiz-adv-x="940" 
d="M616 1118q156 0 156 -154q0 -80 -55.5 -133t-136.5 -53q-162 0 -162 146q0 86 54.5 140t143.5 54zM227 -27q0 -118 133 -118q50 0 106.5 16t201.5 84l92 -221q-222 -125 -422 -125t-303 87.5t-103 243.5t83.5 243.5t197.5 163.5t150 124.5t57 134.5h258
q-26 -145 -80 -234.5t-178 -173.5t-158.5 -127t-34.5 -98z" />
    <glyph glyph-name="Agrave" unicode="&#xc0;" horiz-adv-x="1286" 
d="M827 608l-26 350l-5 133l-3 156h-5q-54 -147 -106 -254l-188 -385h333zM842 348h-473l-172 -348h-320l766 1468h373l147 -1468h-297zM539 1907h311q36 -148 115 -303v-25h-184q-166 161 -242 307v21z" />
    <glyph glyph-name="Aacute" unicode="&#xc1;" horiz-adv-x="1286" 
d="M827 608l-26 350l-5 133l-3 156h-5q-54 -147 -106 -254l-188 -385h333zM842 348h-473l-172 -348h-320l766 1468h373l147 -1468h-297zM1292 1907v-17q-46 -56 -154 -152.5t-194 -158.5h-209v25q79 88 222 303h335z" />
    <glyph glyph-name="Acircumflex" unicode="&#xc2;" horiz-adv-x="1286" 
d="M827 608l-26 350l-5 133l-3 156h-5q-54 -147 -106 -254l-188 -385h333zM842 348h-473l-172 -348h-320l766 1468h373l147 -1468h-297zM1235 1579h-198q-63 53 -162 168q-105 -88 -232 -168h-217v25q196 177 295 303h338q49 -120 176 -303v-25z" />
    <glyph glyph-name="Atilde" unicode="&#xc3;" horiz-adv-x="1286" 
d="M827 608l-26 350l-5 133l-3 156h-5q-54 -147 -106 -254l-188 -385h333zM842 348h-473l-172 -348h-320l766 1468h373l147 -1468h-297zM719 1684q-65 0 -94 -107h-177q59 309 281 309q70 0 159 -52q33 -20 62 -36t61.5 -16t56.5 25.5t46 80.5h172q-66 -309 -287 -309
q-70 1 -156 53q-32 20 -61.5 36t-62.5 16z" />
    <glyph glyph-name="Adieresis" unicode="&#xc4;" horiz-adv-x="1286" 
d="M827 608l-26 350l-5 133l-3 156h-5q-54 -147 -106 -254l-188 -385h333zM842 348h-473l-172 -348h-320l766 1468h373l147 -1468h-297zM1194 1770q0 -160 -149 -160q-127 0 -127 110q0 78 39.5 118t111.5 40q125 0 125 -108zM811 1770q0 -160 -149 -160q-127 0 -127 110
q0 78 39.5 118t111.5 40q125 0 125 -108z" />
    <glyph glyph-name="Aring" unicode="&#xc5;" horiz-adv-x="1286" 
d="M930 1569q0 45 -27 70.5t-69 25.5t-69.5 -25.5t-27.5 -70.5t24.5 -70.5t69.5 -25.5t72 25.5t27 70.5zM827 608l-26 350l-5 135l-3 154h-5q-54 -147 -106 -254l-188 -385h333zM1087 1572.5q0 -104.5 -65 -169.5l141 -1403h-297l-24 348h-473l-172 -348h-320l746 1432
q-37 53 -37 149t67.5 160.5t178.5 64.5t183 -64.5t72 -169z" />
    <glyph glyph-name="AE" unicode="&#xc6;" horiz-adv-x="1833" 
d="M905 608l127 600h-80l-364 -600h317zM1593 0h-817l74 348h-426l-219 -348h-328l922 1462h1104l-54 -254h-512l-67 -321h477l-55 -254h-478l-79 -377h512z" />
    <glyph glyph-name="Ccedilla" unicode="&#xc7;" horiz-adv-x="1253" 
d="M583 -242q0 72 -141 88l90 145q-165 29 -268 139q-141 150 -141 417.5t104 488t278 335t400 114.5q125 0 222 -22.5t208 -82.5l-118 -250q-106 59 -175 78t-137 19q-132 0 -237.5 -81t-169.5 -239t-64 -331.5t68.5 -254.5t216.5 -81t340 77v-260q-172 -67 -346 -76
l-29 -53q141 -49 141 -171.5t-83 -185.5t-234 -63q-86 0 -152 23v168q63 -23 125 -23q102 0 102 82z" />
    <glyph glyph-name="Egrave" unicode="&#xc8;" horiz-adv-x="1110" 
d="M870 0h-817l309 1462h818l-54 -254h-512l-67 -321h477l-55 -254h-477l-80 -377h512zM480 1907h311q36 -148 115 -303v-25h-184q-166 161 -242 307v21z" />
    <glyph glyph-name="Eacute" unicode="&#xc9;" horiz-adv-x="1110" 
d="M870 0h-817l309 1462h818l-54 -254h-512l-67 -321h477l-55 -254h-477l-80 -377h512zM1165 1907v-17q-46 -56 -154 -152.5t-194 -158.5h-209v25q79 88 222 303h335z" />
    <glyph glyph-name="Ecircumflex" unicode="&#xca;" horiz-adv-x="1110" 
d="M870 0h-817l309 1462h818l-54 -254h-512l-67 -321h477l-55 -254h-477l-80 -377h512zM1177 1579h-198q-63 53 -162 168q-105 -88 -232 -168h-217v25q196 177 295 303h338q49 -120 176 -303v-25z" />
    <glyph glyph-name="Edieresis" unicode="&#xcb;" horiz-adv-x="1110" 
d="M870 0h-817l309 1462h818l-54 -254h-512l-67 -321h477l-55 -254h-477l-80 -377h512zM1116 1770q0 -160 -149 -160q-127 0 -127 110q0 78 39.5 118t111.5 40q125 0 125 -108zM733 1770q0 -160 -149 -160q-127 0 -127 110q0 78 39.5 118t111.5 40q125 0 125 -108z" />
    <glyph glyph-name="Igrave" unicode="&#xcc;" horiz-adv-x="784" 
d="M588 0h-647l36 176l187 82l201 946l-152 82l37 176h647l-37 -176l-190 -82l-201 -946l156 -82zM282 1907h311q36 -148 115 -303v-25h-184q-166 161 -242 307v21z" />
    <glyph glyph-name="Iacute" unicode="&#xcd;" horiz-adv-x="784" 
d="M588 0h-647l36 176l187 82l201 946l-152 82l37 176h647l-37 -176l-190 -82l-201 -946l156 -82zM1012 1907v-17q-46 -56 -154 -152.5t-194 -158.5h-209v25q79 88 222 303h335z" />
    <glyph glyph-name="Icircumflex" unicode="&#xce;" horiz-adv-x="784" 
d="M588 0h-647l36 176l187 82l201 946l-152 82l37 176h647l-37 -176l-190 -82l-201 -946l156 -82zM978 1579h-198q-63 53 -162 168q-105 -88 -232 -168h-217v25q196 177 295 303h338q49 -120 176 -303v-25z" />
    <glyph glyph-name="Idieresis" unicode="&#xcf;" horiz-adv-x="784" 
d="M588 0h-647l36 176l187 82l201 946l-152 82l37 176h647l-37 -176l-190 -82l-201 -946l156 -82zM941 1770q0 -160 -149 -160q-127 0 -127 110q0 78 39.5 118t111.5 40q125 0 125 -108zM558 1770q0 -160 -149 -160q-127 0 -127 110q0 78 39.5 118t111.5 40q125 0 125 -108z
" />
    <glyph glyph-name="Eth" unicode="&#xd0;" horiz-adv-x="1386" 
d="M518 256q148 0 258 76t172 223.5t62 319.5q0 333 -281 333h-115l-75 -358h237l-55 -254h-238l-71 -340h106zM1323 902.5q0 -273.5 -98 -480t-283.5 -314.5t-437.5 -108h-451l125 596h-141l55 254h139l131 612h396q270 0 417.5 -143t147.5 -416.5z" />
    <glyph glyph-name="Ntilde" unicode="&#xd1;" horiz-adv-x="1546" 
d="M1247 0h-342l-356 1106h-10l-8 -59q-27 -214 -58 -359l-145 -688h-275l309 1462h357l340 -1077h8q35 223 68 385l147 692h274zM834 1684q-65 0 -94 -107h-177q59 309 281 309q70 0 159 -52q33 -20 62 -36t61.5 -16t56.5 25.5t46 80.5h172q-66 -309 -287 -309
q-70 1 -156 53q-32 20 -61.5 36t-62.5 16z" />
    <glyph glyph-name="Ograve" unicode="&#xd2;" horiz-adv-x="1495" 
d="M434 557q0 -317 254 -317q121 0 220.5 87t155.5 246t56 357q0 142 -65 219.5t-184.5 77.5t-220.5 -91.5t-158.5 -251.5t-57.5 -327zM1432 926q0 -271 -99 -494.5t-271 -337.5t-412 -114t-383.5 147.5t-143.5 411t99 486t273 341.5t415.5 119t381.5 -144t140 -415z
M627 1907h311q36 -148 115 -303v-25h-184q-166 161 -242 307v21z" />
    <glyph glyph-name="Oacute" unicode="&#xd3;" horiz-adv-x="1495" 
d="M434 557q0 -317 254 -317q121 0 220.5 87t155.5 246t56 357q0 142 -65 219.5t-184.5 77.5t-220.5 -91.5t-158.5 -251.5t-57.5 -327zM1432 926q0 -271 -99 -494.5t-271 -337.5t-412 -114t-383.5 147.5t-143.5 411t99 486t273 341.5t415.5 119t381.5 -144t140 -415z
M1310 1907v-17q-46 -56 -154 -152.5t-194 -158.5h-209v25q79 88 222 303h335z" />
    <glyph glyph-name="Ocircumflex" unicode="&#xd4;" horiz-adv-x="1495" 
d="M434 557q0 -317 254 -317q121 0 220.5 87t155.5 246t56 357q0 142 -65 219.5t-184.5 77.5t-220.5 -91.5t-158.5 -251.5t-57.5 -327zM1432 926q0 -271 -99 -494.5t-271 -337.5t-412 -114t-383.5 147.5t-143.5 411t99 486t273 341.5t415.5 119t381.5 -144t140 -415z
M1308 1579h-198q-63 53 -162 168q-105 -88 -232 -168h-217v25q196 177 295 303h338q49 -120 176 -303v-25z" />
    <glyph glyph-name="Otilde" unicode="&#xd5;" horiz-adv-x="1495" 
d="M434 557q0 -317 254 -317q121 0 220.5 87t155.5 246t56 357q0 142 -65 219.5t-184.5 77.5t-220.5 -91.5t-158.5 -251.5t-57.5 -327zM1432 926q0 -271 -99 -494.5t-271 -337.5t-412 -114t-383.5 147.5t-143.5 411t99 486t273 341.5t415.5 119t381.5 -144t140 -415z
M791 1684q-65 0 -94 -107h-177q59 309 281 309q70 0 159 -52q33 -20 62 -36t61.5 -16t56.5 25.5t46 80.5h172q-66 -309 -287 -309q-70 1 -156 53q-32 20 -61.5 36t-62.5 16z" />
    <glyph glyph-name="Odieresis" unicode="&#xd6;" horiz-adv-x="1495" 
d="M434 557q0 -317 254 -317q121 0 220.5 87t155.5 246t56 357q0 142 -65 219.5t-184.5 77.5t-220.5 -91.5t-158.5 -251.5t-57.5 -327zM1432 926q0 -271 -99 -494.5t-271 -337.5t-412 -114t-383.5 147.5t-143.5 411t99 486t273 341.5t415.5 119t381.5 -144t140 -415z
M1263 1770q0 -160 -149 -160q-127 0 -127 110q0 78 39.5 118t111.5 40q125 0 125 -108zM880 1770q0 -160 -149 -160q-127 0 -127 110q0 78 39.5 118t111.5 40q125 0 125 -108z" />
    <glyph glyph-name="multiply" unicode="&#xd7;" horiz-adv-x="1128" 
d="M428 723l-299 301l152 154l301 -299l305 299l153 -150l-305 -305l301 -303l-149 -152l-305 301l-301 -299l-150 152z" />
    <glyph glyph-name="Oslash" unicode="&#xd8;" horiz-adv-x="1495" 
d="M707 233q109 0 211 89t158.5 247.5t56.5 360.5l-5 80l-589 -740q59 -37 168 -37zM870 1233q-126 0 -229 -91.5t-160 -252.5t-57 -352q0 -32 8 -101l596 754q-69 43 -158 43zM1432 938q0 -283 -99 -506.5t-271 -337.5t-374 -114t-326 71l-108 -137l-154 115l121 151
q-98 138 -98 380t99 464.5t273 341.5t379 119t328 -76l105 131l151 -117l-117 -145q91 -134 91 -340z" />
    <glyph glyph-name="Ugrave" unicode="&#xd9;" horiz-adv-x="1415" 
d="M596 -20q-212 0 -333.5 113.5t-121.5 307.5q0 72 15 138l196 923h305l-194 -919q-17 -74 -17 -125q0 -178 189 -178q123 0 195 76.5t104 228.5l194 917h306l-201 -946q-57 -266 -218 -401t-419 -135zM576 1907h311q36 -148 115 -303v-25h-184q-166 161 -242 307v21z" />
    <glyph glyph-name="Uacute" unicode="&#xda;" horiz-adv-x="1415" 
d="M596 -20q-212 0 -333.5 113.5t-121.5 307.5q0 72 15 138l196 923h305l-194 -919q-17 -74 -17 -125q0 -178 189 -178q123 0 195 76.5t104 228.5l194 917h306l-201 -946q-57 -266 -218 -401t-419 -135zM1314 1907v-17q-46 -56 -154 -152.5t-194 -158.5h-209v25
q79 88 222 303h335z" />
    <glyph glyph-name="Ucircumflex" unicode="&#xdb;" horiz-adv-x="1415" 
d="M596 -20q-212 0 -333.5 113.5t-121.5 307.5q0 72 15 138l196 923h305l-194 -919q-17 -74 -17 -125q0 -178 189 -178q123 0 195 76.5t104 228.5l194 917h306l-201 -946q-57 -266 -218 -401t-419 -135zM1284 1579h-198q-63 53 -162 168q-105 -88 -232 -168h-217v25
q196 177 295 303h338q49 -120 176 -303v-25z" />
    <glyph glyph-name="Udieresis" unicode="&#xdc;" horiz-adv-x="1415" 
d="M596 -20q-212 0 -333.5 113.5t-121.5 307.5q0 72 15 138l196 923h305l-194 -919q-17 -74 -17 -125q0 -178 189 -178q123 0 195 76.5t104 228.5l194 917h306l-201 -946q-57 -266 -218 -401t-419 -135zM1243 1770q0 -160 -149 -160q-127 0 -127 110q0 78 39.5 118t111.5 40
q125 0 125 -108zM860 1770q0 -160 -149 -160q-127 0 -127 110q0 78 39.5 118t111.5 40q125 0 125 -108z" />
    <glyph glyph-name="Yacute" unicode="&#xdd;" horiz-adv-x="1155" 
d="M627 870l374 592h342l-618 -903l-119 -559h-303l119 559l-236 903h312zM1163 1907v-17q-46 -56 -154 -152.5t-194 -158.5h-209v25q79 88 222 303h335z" />
    <glyph glyph-name="Thorn" unicode="&#xde;" horiz-adv-x="1241" 
d="M580 547q140 0 222.5 67.5t82.5 184.5q0 180 -195 180h-123l-92 -432h105zM702 1233q490 0 490 -426q0 -243 -170.5 -378.5t-466.5 -135.5h-135l-62 -293h-305l309 1462h306l-50 -229h84z" />
    <glyph glyph-name="germandbls" unicode="&#xdf;" horiz-adv-x="1350" 
d="M825 1567q229 0 352 -90t123 -240q0 -114 -49 -192t-178 -152q-73 -42 -96 -68.5t-23 -52t22 -52t104 -89.5q157 -121 157 -286t-123.5 -265t-324 -100t-310.5 61v240q127 -78 243 -78q210 0 210 119q0 40 -26.5 75t-114.5 102t-123 125t-35 134t45 137t136.5 112.5
t130 90.5t38.5 98.5t-39.5 96t-130 36.5t-150.5 -51.5t-85 -171.5l-254 -1219q-43 -198 -147 -288.5t-277 -90.5q-90 0 -160 25v242q61 -21 115 -21q133 0 170 178l254 1207q47 224 182 326t364 102z" />
    <glyph glyph-name="agrave" unicode="&#xe0;" horiz-adv-x="1217" 
d="M395 399q0 -176 129 -176q69 0 133 67t103 181.5t39 259.5q0 71 -38.5 117.5t-104 46.5t-127 -72t-98 -190t-36.5 -234zM608 1139q197 0 277 -164h8l57 143h232l-238 -1118h-225l14 145h-8q-134 -165 -319 -165q-147 0 -231.5 106.5t-84.5 301.5t72 374.5t189 278
t257 98.5zM443 1569h311q36 -148 115 -303v-25h-184q-166 161 -242 307v21z" />
    <glyph glyph-name="aacute" unicode="&#xe1;" horiz-adv-x="1217" 
d="M395 399q0 -176 129 -176q69 0 133 67t103 181.5t39 259.5q0 71 -38.5 117.5t-104 46.5t-127 -72t-98 -190t-36.5 -234zM608 1139q197 0 277 -164h8l57 143h232l-238 -1118h-225l14 145h-8q-134 -165 -319 -165q-147 0 -231.5 106.5t-84.5 301.5t72 374.5t189 278
t257 98.5zM1155 1569v-17q-46 -56 -154 -152.5t-194 -158.5h-209v25q79 88 222 303h335z" />
    <glyph glyph-name="acircumflex" unicode="&#xe2;" horiz-adv-x="1217" 
d="M395 399q0 -176 129 -176q69 0 133 67t103 181.5t39 259.5q0 71 -38.5 117.5t-104 46.5t-127 -72t-98 -190t-36.5 -234zM608 1139q197 0 277 -164h8l57 143h232l-238 -1118h-225l14 145h-8q-134 -165 -319 -165q-147 0 -231.5 106.5t-84.5 301.5t72 374.5t189 278
t257 98.5zM1120 1241h-198q-63 53 -162 168q-105 -88 -232 -168h-217v25q196 177 295 303h338q49 -120 176 -303v-25z" />
    <glyph glyph-name="atilde" unicode="&#xe3;" horiz-adv-x="1217" 
d="M395 399q0 -176 129 -176q69 0 133 67t103 181.5t39 259.5q0 71 -38.5 117.5t-104 46.5t-127 -72t-98 -190t-36.5 -234zM608 1139q197 0 277 -164h8l57 143h232l-238 -1118h-225l14 145h-8q-134 -165 -319 -165q-147 0 -231.5 106.5t-84.5 301.5t72 374.5t189 278
t257 98.5zM604 1346q-65 0 -94 -107h-177q59 309 281 309q70 0 159 -52q33 -20 62 -36t61.5 -16t56.5 25.5t46 80.5h172q-66 -309 -287 -309q-70 1 -156 53q-32 20 -61.5 36t-62.5 16z" />
    <glyph glyph-name="adieresis" unicode="&#xe4;" horiz-adv-x="1217" 
d="M395 399q0 -176 129 -176q69 0 133 67t103 181.5t39 259.5q0 71 -38.5 117.5t-104 46.5t-127 -72t-98 -190t-36.5 -234zM608 1139q197 0 277 -164h8l57 143h232l-238 -1118h-225l14 145h-8q-134 -165 -319 -165q-147 0 -231.5 106.5t-84.5 301.5t72 374.5t189 278
t257 98.5zM1075 1432q0 -160 -149 -160q-127 0 -127 110q0 78 39.5 118t111.5 40q125 0 125 -108zM692 1432q0 -160 -149 -160q-127 0 -127 110q0 78 39.5 118t111.5 40q125 0 125 -108z" />
    <glyph glyph-name="aring" unicode="&#xe5;" horiz-adv-x="1217" 
d="M395 399q0 -176 129 -176q69 0 133 67t103 181.5t39 259.5q0 71 -38.5 117.5t-104 46.5t-127 -72t-98 -190t-36.5 -234zM608 1139q197 0 277 -164h8l57 143h232l-238 -1118h-225l14 145h-8q-134 -165 -319 -165q-147 0 -231.5 106.5t-84.5 301.5t72 374.5t189 278
t257 98.5zM673 1477q0 -97 96 -97q42 0 69.5 26t27.5 71t-27.5 70.5t-69.5 25.5t-69 -25.5t-27 -70.5zM1023 1478q0 -106 -70 -172.5t-182 -66.5t-181 63.5t-69 173.5t68.5 174t179 64t182.5 -65t72 -171z" />
    <glyph glyph-name="ae" unicode="&#xe6;" horiz-adv-x="1786" 
d="M1446 827q0 95 -96.5 95t-174.5 -80t-102 -195h45q155 0 241.5 48.5t86.5 131.5zM395 399q0 -176 130 -176q65 0 127.5 69.5t99 186.5t36.5 219q0 198 -135 197q-68 0 -128 -69t-95 -185.5t-35 -241.5zM1038 406q0 -199 238 -199q127 0 291 86v-227q-179 -86 -361 -86
q-109 0 -179.5 27t-117.5 87l-16 -94h-188l14 145h-10q-74 -92 -148 -128.5t-162 -36.5q-146 0 -227.5 109t-81.5 302.5t68.5 369t185 277t258.5 101.5q93 0 156 -37.5t114 -126.5h11l57 143h188l-18 -90q44 49 120.5 80t168.5 31q157 0 246.5 -83.5t89.5 -221.5
q0 -187 -167 -288.5t-476 -101.5h-52l-2 -19v-19z" />
    <glyph glyph-name="ccedilla" unicode="&#xe7;" horiz-adv-x="989" 
d="M411 -242q0 72 -141 88l94 150q-100 26 -166 92q-108 108 -108 311.5t74.5 377t209.5 268t312.5 94.5t323.5 -72l-92 -229q-54 23 -106 40t-127.5 17t-144 -64t-107 -175.5t-38.5 -223.5q0 -209 172 -209q76 0 141 23.5t134 58.5v-246q-138 -72 -301 -78l-29 -53
q141 -49 141 -171.5t-83 -185.5t-234 -63q-86 0 -152 23v168q63 -23 125 -23q102 0 102 82z" />
    <glyph glyph-name="egrave" unicode="&#xe8;" horiz-adv-x="1141" 
d="M536 -20q-214 0 -330 113t-116 319.5t82.5 377t223.5 260t318.5 89.5t276.5 -81.5t99 -223.5q0 -187 -167 -288.5t-477 -101.5h-51l-2 -21v-20q0 -91 51.5 -143.5t143 -52.5t162.5 19t172 67v-227q-172 -86 -386 -86zM801 827q0 95 -96.5 95t-174.5 -80t-102 -195h45
q155 0 241.5 48.5t86.5 131.5zM423 1569h311q36 -148 115 -303v-25h-184q-166 161 -242 307v21z" />
    <glyph glyph-name="eacute" unicode="&#xe9;" horiz-adv-x="1141" 
d="M536 -20q-214 0 -330 113t-116 319.5t82.5 377t223.5 260t318.5 89.5t276.5 -81.5t99 -223.5q0 -187 -167 -288.5t-477 -101.5h-51l-2 -21v-20q0 -91 51.5 -143.5t143 -52.5t162.5 19t172 67v-227q-172 -86 -386 -86zM801 827q0 95 -96.5 95t-174.5 -80t-102 -195h45
q155 0 241.5 48.5t86.5 131.5zM1085 1569v-17q-46 -56 -154 -152.5t-194 -158.5h-209v25q79 88 222 303h335z" />
    <glyph glyph-name="ecircumflex" unicode="&#xea;" horiz-adv-x="1141" 
d="M536 -20q-214 0 -330 113t-116 319.5t82.5 377t223.5 260t318.5 89.5t276.5 -81.5t99 -223.5q0 -187 -167 -288.5t-477 -101.5h-51l-2 -21v-20q0 -91 51.5 -143.5t143 -52.5t162.5 19t172 67v-227q-172 -86 -386 -86zM801 827q0 95 -96.5 95t-174.5 -80t-102 -195h45
q155 0 241.5 48.5t86.5 131.5zM1101 1241h-198q-63 53 -162 168q-105 -88 -232 -168h-217v25q196 177 295 303h338q49 -120 176 -303v-25z" />
    <glyph glyph-name="edieresis" unicode="&#xeb;" horiz-adv-x="1141" 
d="M536 -20q-214 0 -330 113t-116 319.5t82.5 377t223.5 260t318.5 89.5t276.5 -81.5t99 -223.5q0 -187 -167 -288.5t-477 -101.5h-51l-2 -21v-20q0 -91 51.5 -143.5t143 -52.5t162.5 19t172 67v-227q-172 -86 -386 -86zM801 827q0 95 -96.5 95t-174.5 -80t-102 -195h45
q155 0 241.5 48.5t86.5 131.5zM1043 1432q0 -160 -149 -160q-127 0 -127 110q0 78 39.5 118t111.5 40q125 0 125 -108zM660 1432q0 -160 -149 -160q-127 0 -127 110q0 78 39.5 118t111.5 40q125 0 125 -108z" />
    <glyph glyph-name="igrave" unicode="&#xec;" horiz-adv-x="608" 
d="M338 0h-301l237 1118h301zM153 1569h311q36 -148 115 -303v-25h-184q-166 161 -242 307v21z" />
    <glyph glyph-name="iacute" unicode="&#xed;" horiz-adv-x="608" 
d="M338 0h-301l237 1118h301zM848 1569v-17q-46 -56 -154 -152.5t-194 -158.5h-209v25q79 88 222 303h335z" />
    <glyph glyph-name="icircumflex" unicode="&#xee;" horiz-adv-x="608" 
d="M338 0h-301l237 1118h301zM845 1241h-198q-63 53 -162 168q-105 -88 -232 -168h-217v25q196 177 295 303h338q49 -120 176 -303v-25z" />
    <glyph glyph-name="idieresis" unicode="&#xef;" horiz-adv-x="608" 
d="M338 0h-301l237 1118h301zM804 1432q0 -160 -149 -160q-127 0 -127 110q0 78 39.5 118t111.5 40q125 0 125 -108zM421 1432q0 -160 -149 -160q-127 0 -127 110q0 78 39.5 118t111.5 40q125 0 125 -108z" />
    <glyph glyph-name="eth" unicode="&#xf0;" horiz-adv-x="1182" 
d="M375 390q1 -185 149 -185q70 0 126.5 55.5t89 148.5t32.5 181.5t-38.5 134t-110 45.5t-128.5 -53t-88.5 -143t-31.5 -184zM1110 795q0 -249 -69.5 -432.5t-203.5 -283t-336.5 -99.5t-315.5 110t-113 316q0 165 64.5 301t180.5 212t276.5 76t250.5 -125h10
q-20 207 -117 301l-231 -131l-88 148l200 112q-38 38 -124 80l118 187q138 -63 232 -140l237 132l76 -152l-192 -107q145 -190 145 -505z" />
    <glyph glyph-name="ntilde" unicode="&#xf1;" horiz-adv-x="1237" 
d="M829 772q0 123 -108 123q-92 0 -167 -114t-118 -318l-98 -463h-301l237 1118h230l-21 -207h9q146 228 352 228q138 0 213.5 -83.5t75.5 -238.5q0 -73 -23 -180l-133 -637h-301l137 653q16 68 16 119zM631 1346q-65 0 -94 -107h-177q59 309 281 309q70 0 159 -52
q33 -20 62 -36t61.5 -16t56.5 25.5t46 80.5h172q-66 -309 -287 -309q-70 1 -156 53q-32 20 -61.5 36t-62.5 16z" />
    <glyph glyph-name="ograve" unicode="&#xf2;" horiz-adv-x="1198" 
d="M1108 694q0 -209 -70.5 -372t-203.5 -252.5t-322 -89.5t-305.5 117.5t-116.5 321.5t71.5 370.5t206.5 258t323.5 91.5t302.5 -118t114 -327zM805 696q0 197 -143 197q-75 0 -134.5 -61t-97 -179t-37.5 -243q0 -185 150 -185q75 0 135 61.5t93.5 171t33.5 238.5zM419 1569
h311q36 -148 115 -303v-25h-184q-166 161 -242 307v21z" />
    <glyph glyph-name="oacute" unicode="&#xf3;" horiz-adv-x="1198" 
d="M1108 694q0 -209 -70.5 -372t-203.5 -252.5t-322 -89.5t-305.5 117.5t-116.5 321.5t71.5 370.5t206.5 258t323.5 91.5t302.5 -118t114 -327zM805 696q0 197 -143 197q-75 0 -134.5 -61t-97 -179t-37.5 -243q0 -185 150 -185q75 0 135 61.5t93.5 171t33.5 238.5z
M1128 1569v-17q-46 -56 -154 -152.5t-194 -158.5h-209v25q79 88 222 303h335z" />
    <glyph glyph-name="ocircumflex" unicode="&#xf4;" horiz-adv-x="1198" 
d="M1108 694q0 -209 -70.5 -372t-203.5 -252.5t-322 -89.5t-305.5 117.5t-116.5 321.5t71.5 370.5t206.5 258t323.5 91.5t302.5 -118t114 -327zM805 696q0 197 -143 197q-75 0 -134.5 -61t-97 -179t-37.5 -243q0 -185 150 -185q75 0 135 61.5t93.5 171t33.5 238.5z
M1109 1241h-198q-63 53 -162 168q-105 -88 -232 -168h-217v25q196 177 295 303h338q49 -120 176 -303v-25z" />
    <glyph glyph-name="otilde" unicode="&#xf5;" horiz-adv-x="1198" 
d="M1108 694q0 -209 -70.5 -372t-203.5 -252.5t-322 -89.5t-305.5 117.5t-116.5 321.5t71.5 370.5t206.5 258t323.5 91.5t302.5 -118t114 -327zM805 696q0 197 -143 197q-75 0 -134.5 -61t-97 -179t-37.5 -243q0 -185 150 -185q75 0 135 61.5t93.5 171t33.5 238.5zM585 1346
q-65 0 -94 -107h-177q59 309 281 309q70 0 159 -52q33 -20 62 -36t61.5 -16t56.5 25.5t46 80.5h172q-66 -309 -287 -309q-70 1 -156 53q-32 20 -61.5 36t-62.5 16z" />
    <glyph glyph-name="odieresis" unicode="&#xf6;" horiz-adv-x="1198" 
d="M1108 694q0 -209 -70.5 -372t-203.5 -252.5t-322 -89.5t-305.5 117.5t-116.5 321.5t71.5 370.5t206.5 258t323.5 91.5t302.5 -118t114 -327zM805 696q0 197 -143 197q-75 0 -134.5 -61t-97 -179t-37.5 -243q0 -185 150 -185q75 0 135 61.5t93.5 171t33.5 238.5z
M1064 1432q0 -160 -149 -160q-127 0 -127 110q0 78 39.5 118t111.5 40q125 0 125 -108zM681 1432q0 -160 -149 -160q-127 0 -127 110q0 78 39.5 118t111.5 40q125 0 125 -108z" />
    <glyph glyph-name="divide" unicode="&#xf7;" horiz-adv-x="1128" 
d="M444 1072q0 74 37 112.5t103 38.5t102.5 -40.5t36.5 -110.5t-37 -111t-102 -41t-102.5 39t-37.5 113zM444 374q0 75 37 112.5t103 37.5t102.5 -39t36.5 -111t-37 -112.5t-102 -40.5t-102.5 39t-37.5 114zM109 612v219h952v-219h-952z" />
    <glyph glyph-name="oslash" unicode="&#xf8;" horiz-adv-x="1198" 
d="M552.5 215q63.5 0 123 55t98 167t41.5 245l-358 -444q32 -23 95.5 -23zM647.5 903q-67.5 0 -129 -57t-97.5 -172.5t-36 -247.5l365 453q-35 24 -102.5 24zM1108 667q0 -182 -70.5 -345t-203.5 -252.5t-316 -89.5q-123 0 -225 53l-109 -135l-141 108l119 148
q-72 107 -72 256q0 213 71.5 379.5t206.5 258t316 91.5q131 0 227 -56l70 88l145 -110l-84 -105q66 -107 66 -289z" />
    <glyph glyph-name="ugrave" unicode="&#xf9;" horiz-adv-x="1237" 
d="M410 346q0 -123 108 -123q92 0 167 114t118 318l98 463h301l-237 -1118h-230l21 207h-11q-145 -227 -350 -227q-138 0 -211 82.5t-73 238.5q0 93 24 213l127 604h301l-137 -653q-16 -68 -16 -119zM419 1569h311q36 -148 115 -303v-25h-184q-166 161 -242 307v21z" />
    <glyph glyph-name="uacute" unicode="&#xfa;" horiz-adv-x="1237" 
d="M410 346q0 -123 108 -123q92 0 167 114t118 318l98 463h301l-237 -1118h-230l21 207h-11q-145 -227 -350 -227q-138 0 -211 82.5t-73 238.5q0 93 24 213l127 604h301l-137 -653q-16 -68 -16 -119zM1167 1569v-17q-46 -56 -154 -152.5t-194 -158.5h-209v25q79 88 222 303
h335z" />
    <glyph glyph-name="ucircumflex" unicode="&#xfb;" horiz-adv-x="1237" 
d="M410 346q0 -123 108 -123q92 0 167 114t118 318l98 463h301l-237 -1118h-230l21 207h-11q-145 -227 -350 -227q-138 0 -211 82.5t-73 238.5q0 93 24 213l127 604h301l-137 -653q-16 -68 -16 -119zM1143 1241h-198q-63 53 -162 168q-105 -88 -232 -168h-217v25
q196 177 295 303h338q49 -120 176 -303v-25z" />
    <glyph glyph-name="udieresis" unicode="&#xfc;" horiz-adv-x="1237" 
d="M410 346q0 -123 108 -123q92 0 167 114t118 318l98 463h301l-237 -1118h-230l21 207h-11q-145 -227 -350 -227q-138 0 -211 82.5t-73 238.5q0 93 24 213l127 604h301l-137 -653q-16 -68 -16 -119zM1089 1432q0 -160 -149 -160q-127 0 -127 110q0 78 39.5 118t111.5 40
q125 0 125 -108zM706 1432q0 -160 -149 -160q-127 0 -127 110q0 78 39.5 118t111.5 40q125 0 125 -108z" />
    <glyph glyph-name="yacute" unicode="&#xfd;" horiz-adv-x="1063" 
d="M465 307h8q20 51 44 119.5t65 153.5l260 538h327l-680 -1278q-177 -332 -483 -332q-90 0 -147 19v240q68 -13 134 -13q142 0 247 197l26 49l-164 1118h295l56 -518q12 -105 12 -293zM1054 1569v-17q-46 -56 -154 -152.5t-194 -158.5h-209v25q79 88 222 303h335z" />
    <glyph glyph-name="thorn" unicode="&#xfe;" horiz-adv-x="1219" 
d="M420 399q0 -176 139 -176q71 0 132.5 69.5t96.5 186t35 222.5q0 194 -141 194q-71 0 -130 -65t-95.5 -184.5t-36.5 -246.5zM812 1139q151 0 233.5 -106.5t82.5 -303.5t-69 -379t-182 -276t-250 -94q-178 0 -271 163h-8q-12 -159 -43 -295l-72 -340h-301l435 2048h301
l-66 -307q-29 -131 -80 -280h8q131 170 282 170z" />
    <glyph glyph-name="ydieresis" unicode="&#xff;" horiz-adv-x="1063" 
d="M465 307h8q20 51 44 119.5t65 153.5l260 538h327l-680 -1278q-177 -332 -483 -332q-90 0 -147 19v240q68 -13 134 -13q142 0 247 197l26 49l-164 1118h295l56 -518q12 -105 12 -293zM988 1432q0 -160 -149 -160q-127 0 -127 110q0 78 39.5 118t111.5 40q125 0 125 -108z
M605 1432q0 -160 -149 -160q-127 0 -127 110q0 78 39.5 118t111.5 40q125 0 125 -108z" />
    <glyph glyph-name="Amacron" unicode="&#x100;" horiz-adv-x="1286" 
d="M827 608l-26 350l-5 133l-3 156h-5q-54 -147 -106 -254l-188 -385h333zM842 348h-473l-172 -348h-320l766 1468h373l147 -1468h-297zM577 1790h619l-45 -211h-619z" />
    <glyph glyph-name="amacron" unicode="&#x101;" horiz-adv-x="1217" 
d="M395 399q0 -176 129 -176q69 0 133 67t103 181.5t39 259.5q0 71 -38.5 117.5t-104 46.5t-127 -72t-98 -190t-36.5 -234zM608 1139q197 0 277 -164h8l57 143h232l-238 -1118h-225l14 145h-8q-134 -165 -319 -165q-147 0 -231.5 106.5t-84.5 301.5t72 374.5t189 278
t257 98.5zM465 1452h619l-45 -211h-619z" />
    <glyph glyph-name="Abreve" unicode="&#x102;" horiz-adv-x="1286" 
d="M827 608l-26 350l-5 133l-3 156h-5q-54 -147 -106 -254l-188 -385h333zM842 348h-473l-172 -348h-320l766 1468h373l147 -1468h-297zM846 1579q-153 0 -238.5 73t-85.5 199q0 38 6 66h174q0 -65 36.5 -95t116 -30t129 27t66.5 98h189q-55 -338 -393 -338z" />
    <glyph glyph-name="abreve" unicode="&#x103;" horiz-adv-x="1217" 
d="M395 399q0 -176 129 -176q69 0 133 67t103 181.5t39 259.5q0 71 -38.5 117.5t-104 46.5t-127 -72t-98 -190t-36.5 -234zM608 1139q197 0 277 -164h8l57 143h232l-238 -1118h-225l14 145h-8q-134 -165 -319 -165q-147 0 -231.5 106.5t-84.5 301.5t72 374.5t189 278
t257 98.5zM737 1241q-153 0 -238.5 73t-85.5 199q0 38 6 66h174q0 -65 36.5 -95t116 -30t129 27t66.5 98h189q-55 -338 -393 -338z" />
    <glyph glyph-name="Aogonek" unicode="&#x104;" horiz-adv-x="1286" 
d="M827 608l-26 350l-5 133l-3 156h-5q-54 -147 -106 -254l-188 -385h333zM874 -250q0 -59 60 -59q44 0 102 18v-176q-84 -25 -175 -25t-150.5 53.5t-59.5 138.5t47.5 154t167.5 146l-24 348h-473l-172 -348h-320l766 1468h373l147 -1468h-98q-119 -96 -155 -148t-36 -102z
" />
    <glyph glyph-name="aogonek" unicode="&#x105;" horiz-adv-x="1217" 
d="M395 399q0 -176 129 -176q69 0 133 67t103 181.5t39 259.5q0 71 -38.5 117.5t-104 46.5t-127 -72t-98 -190t-36.5 -234zM723 -250q0 -59 60 -59q44 0 102 18v-176q-84 -25 -175 -25t-150.5 53.5t-59.5 138.5t47.5 154t167.5 146h4l14 145h-8q-134 -165 -319 -165
q-147 0 -231.5 106.5t-84.5 301.5t72 374.5t189 278t257 98.5q197 0 277 -164h8l57 143h232l-238 -1118h-30q-119 -96 -155 -148t-36 -102z" />
    <glyph glyph-name="Cacute" unicode="&#x106;" horiz-adv-x="1253" 
d="M905 1227q-132 0 -237.5 -81t-169.5 -239t-64 -331.5t68.5 -254.5t216.5 -81t340 77v-260q-199 -77 -400 -77q-254 0 -395 149.5t-141 417.5t104 488.5t278 335t400 114.5q125 0 222 -22.5t208 -82.5l-118 -250q-106 59 -175 78t-137 19zM1292 1907v-17
q-46 -56 -154 -152.5t-194 -158.5h-209v25q79 88 222 303h335z" />
    <glyph glyph-name="cacute" unicode="&#x107;" horiz-adv-x="989" 
d="M497.5 -20q-192.5 0 -300 107.5t-107.5 311.5t74.5 377.5t209.5 268t312.5 94.5t323.5 -72l-92 -229q-54 23 -106 40t-127.5 17t-144 -64t-107 -175.5t-38.5 -223.5q0 -209 172 -209q76 0 141 23.5t134 58.5v-246q-152 -79 -344.5 -79zM1067 1569v-17
q-46 -56 -154 -152.5t-194 -158.5h-209v25q79 88 222 303h335z" />
    <glyph glyph-name="Ccircumflex" unicode="&#x108;" horiz-adv-x="1253" 
d="M905 1227q-132 0 -237.5 -81t-169.5 -239t-64 -331.5t68.5 -254.5t216.5 -81t340 77v-260q-199 -77 -400 -77q-254 0 -395 149.5t-141 417.5t104 488.5t278 335t400 114.5q125 0 222 -22.5t208 -82.5l-118 -250q-106 59 -175 78t-137 19zM1292 1579h-198q-63 53 -162 168
q-105 -88 -232 -168h-217v25q196 177 295 303h338q49 -120 176 -303v-25z" />
    <glyph glyph-name="ccircumflex" unicode="&#x109;" horiz-adv-x="989" 
d="M497.5 -20q-192.5 0 -300 107.5t-107.5 311.5t74.5 377.5t209.5 268t312.5 94.5t323.5 -72l-92 -229q-54 23 -106 40t-127.5 17t-144 -64t-107 -175.5t-38.5 -223.5q0 -209 172 -209q76 0 141 23.5t134 58.5v-246q-152 -79 -344.5 -79zM1062 1241h-198q-63 53 -162 168
q-105 -88 -232 -168h-217v25q196 177 295 303h338q49 -120 176 -303v-25z" />
    <glyph glyph-name="Cdotaccent" unicode="&#x10a;" horiz-adv-x="1253" 
d="M905 1227q-132 0 -237.5 -81t-169.5 -239t-64 -331.5t68.5 -254.5t216.5 -81t340 77v-260q-199 -77 -400 -77q-254 0 -395 149.5t-141 417.5t104 488.5t278 335t400 114.5q125 0 222 -22.5t208 -82.5l-118 -250q-106 59 -175 78t-137 19zM957 1894q149 0 149 -120
q0 -80 -44 -129.5t-136 -49.5q-151 0 -151 123q0 87 47.5 131.5t134.5 44.5z" />
    <glyph glyph-name="cdotaccent" unicode="&#x10b;" horiz-adv-x="989" 
d="M497.5 -20q-192.5 0 -300 107.5t-107.5 311.5t74.5 377.5t209.5 268t312.5 94.5t323.5 -72l-92 -229q-54 23 -106 40t-127.5 17t-144 -64t-107 -175.5t-38.5 -223.5q0 -209 172 -209q76 0 141 23.5t134 58.5v-246q-152 -79 -344.5 -79zM713 1556q149 0 149 -120
q0 -80 -44 -129.5t-136 -49.5q-151 0 -151 123q0 87 47.5 131.5t134.5 44.5z" />
    <glyph glyph-name="Ccaron" unicode="&#x10c;" horiz-adv-x="1253" 
d="M905 1227q-132 0 -237.5 -81t-169.5 -239t-64 -331.5t68.5 -254.5t216.5 -81t340 77v-260q-199 -77 -400 -77q-254 0 -395 149.5t-141 417.5t104 488.5t278 335t400 114.5q125 0 222 -22.5t208 -82.5l-118 -250q-106 59 -175 78t-137 19zM514 1907h198q63 -53 162 -168
q115 94 232 168h217v-25q-212 -198 -295 -303h-338q-49 120 -176 303v25z" />
    <glyph glyph-name="ccaron" unicode="&#x10d;" horiz-adv-x="989" 
d="M497.5 -20q-192.5 0 -300 107.5t-107.5 311.5t74.5 377.5t209.5 268t312.5 94.5t323.5 -72l-92 -229q-54 23 -106 40t-127.5 17t-144 -64t-107 -175.5t-38.5 -223.5q0 -209 172 -209q76 0 141 23.5t134 58.5v-246q-152 -79 -344.5 -79zM308 1569h198q63 -53 162 -168
q115 94 232 168h217v-25q-212 -198 -295 -303h-338q-49 120 -176 303v25z" />
    <glyph glyph-name="Dcaron" unicode="&#x10e;" horiz-adv-x="1386" 
d="M518 256q148 0 258 76t172 223.5t62 319.5q0 333 -281 333h-115l-202 -952h106zM1323 902.5q0 -273.5 -98 -480t-283.5 -314.5t-437.5 -108h-451l309 1462h396q270 0 417.5 -143t147.5 -416.5zM469 1907h198q63 -53 162 -168q115 94 232 168h217v-25q-212 -198 -295 -303
h-338q-49 120 -176 303v25z" />
    <glyph glyph-name="dcaron" unicode="&#x10f;" horiz-adv-x="1217" 
d="M532 223q70 0 129 63.5t98.5 189.5t39.5 224.5t-37.5 146.5t-104 48t-128 -72t-98 -190t-36.5 -234q0 -176 137 -176zM90 388.5q0 194.5 71.5 373t188.5 278t258 99.5q82 0 141.5 -37t112.5 -127h8l2 28q6 110 25 195l76 358h301l-330 -1556h-229l18 145h-8
q-135 -165 -319 -165q-147 0 -231.5 107t-84.5 301.5zM1708 1556v-20q-30 -57 -96.5 -147.5t-130.5 -159.5h-180v26q83 178 124 301h283z" />
    <glyph glyph-name="Dcroat" unicode="&#x110;" horiz-adv-x="1386" 
d="M518 256q148 0 258 76t172 223.5t62 319.5q0 333 -281 333h-115l-75 -358h237l-55 -254h-238l-71 -340h106zM1323 902.5q0 -273.5 -98 -480t-283.5 -314.5t-437.5 -108h-451l125 596h-141l55 254h139l131 612h396q270 0 417.5 -143t147.5 -416.5z" />
    <glyph glyph-name="dcroat" unicode="&#x111;" horiz-adv-x="1217" 
d="M797 674q0 160 -138 160q-71 0 -132 -61t-96.5 -162t-35.5 -201q0 -188 142 -187q68 0 126 59.5t96 171.5t38 220zM862 928q0 74 35 268h-295l41 199h295l35 161h301l-35 -161h154l-41 -199h-156l-252 -1196h-225l14 145h-8q-77 -90 -150.5 -127.5t-158.5 -37.5
q-152 0 -239 106t-87 294t70 355t183 254.5t253 87.5q88 0 150.5 -34.5t107.5 -114.5h8z" />
    <glyph glyph-name="Emacron" unicode="&#x112;" horiz-adv-x="1110" 
d="M870 0h-817l309 1462h818l-54 -254h-512l-67 -321h477l-55 -254h-477l-80 -377h512zM516 1790h619l-45 -211h-619z" />
    <glyph glyph-name="emacron" unicode="&#x113;" horiz-adv-x="1141" 
d="M536 -20q-214 0 -330 113t-116 319.5t82.5 377t223.5 260t318.5 89.5t276.5 -81.5t99 -223.5q0 -187 -167 -288.5t-477 -101.5h-51l-2 -21v-20q0 -91 51.5 -143.5t143 -52.5t162.5 19t172 67v-227q-172 -86 -386 -86zM801 827q0 95 -96.5 95t-174.5 -80t-102 -195h45
q155 0 241.5 48.5t86.5 131.5zM440 1452h619l-45 -211h-619z" />
    <glyph glyph-name="Ebreve" unicode="&#x114;" horiz-adv-x="1110" 
d="M870 0h-817l309 1462h818l-54 -254h-512l-67 -321h477l-55 -254h-477l-80 -377h512zM785 1579q-153 0 -238.5 73t-85.5 199q0 38 6 66h174q0 -65 36.5 -95t116 -30t129 27t66.5 98h189q-55 -338 -393 -338z" />
    <glyph glyph-name="ebreve" unicode="&#x115;" horiz-adv-x="1141" 
d="M536 -20q-214 0 -330 113t-116 319.5t82.5 377t223.5 260t318.5 89.5t276.5 -81.5t99 -223.5q0 -187 -167 -288.5t-477 -101.5h-51l-2 -21v-20q0 -91 51.5 -143.5t143 -52.5t162.5 19t172 67v-227q-172 -86 -386 -86zM801 827q0 95 -96.5 95t-174.5 -80t-102 -195h45
q155 0 241.5 48.5t86.5 131.5zM730 1241q-153 0 -238.5 73t-85.5 199q0 38 6 66h174q0 -65 36.5 -95t116 -30t129 27t66.5 98h189q-55 -338 -393 -338z" />
    <glyph glyph-name="Edotaccent" unicode="&#x116;" horiz-adv-x="1110" 
d="M870 0h-817l309 1462h818l-54 -254h-512l-67 -321h477l-55 -254h-477l-80 -377h512zM805 1865q149 0 149 -120q0 -80 -44 -129.5t-136 -49.5q-151 0 -151 123q0 87 47.5 131.5t134.5 44.5z" />
    <glyph glyph-name="edotaccent" unicode="&#x117;" horiz-adv-x="1141" 
d="M536 -20q-214 0 -330 113t-116 319.5t82.5 377t223.5 260t318.5 89.5t276.5 -81.5t99 -223.5q0 -187 -167 -288.5t-477 -101.5h-51l-2 -21v-20q0 -91 51.5 -143.5t143 -52.5t162.5 19t172 67v-227q-172 -86 -386 -86zM801 827q0 95 -96.5 95t-174.5 -80t-102 -195h45
q155 0 241.5 48.5t86.5 131.5zM754 1556q149 0 149 -120q0 -80 -44 -129.5t-136 -49.5q-151 0 -151 123q0 87 47.5 131.5t134.5 44.5z" />
    <glyph glyph-name="Eogonek" unicode="&#x118;" horiz-adv-x="1110" 
d="M581 -250q0 -59 60 -59q44 0 102 18v-176q-84 -25 -175 -25t-150.5 53.5t-59.5 138.5t47.5 154t167.5 146h-520l309 1462h818l-54 -254h-512l-67 -321h477l-55 -254h-477l-80 -377h512l-54 -256h-98q-119 -96 -155 -148t-36 -102z" />
    <glyph glyph-name="eogonek" unicode="&#x119;" horiz-adv-x="1141" 
d="M801 827q0 95 -96.5 95t-174.5 -80t-102 -195h45q155 0 241.5 48.5t86.5 131.5zM500 -230q0 -59 60 -59q44 0 102 18v-176q-84 -25 -175 -25t-150.5 53.5t-59.5 138.5t42 146t123 120q-146 20 -236 107q-116 113 -116 319.5t82.5 377t223.5 260t318.5 89.5t276.5 -81.5
t99 -223.5q0 -187 -167 -288.5t-477 -101.5h-51l-2 -21v-20q0 -91 51.5 -143.5t143 -52.5t162.5 19t172 67v-227q-124 -62 -271 -79q-85 -72 -118 -119.5t-33 -97.5z" />
    <glyph glyph-name="Ecaron" unicode="&#x11a;" horiz-adv-x="1110" 
d="M870 0h-817l309 1462h818l-54 -254h-512l-67 -321h477l-55 -254h-477l-80 -377h512zM422 1907h198q63 -53 162 -168q115 94 232 168h217v-25q-212 -198 -295 -303h-338q-49 120 -176 303v25z" />
    <glyph glyph-name="ecaron" unicode="&#x11b;" horiz-adv-x="1141" 
d="M536 -20q-214 0 -330 113t-116 319.5t82.5 377t223.5 260t318.5 89.5t276.5 -81.5t99 -223.5q0 -187 -167 -288.5t-477 -101.5h-51l-2 -21v-20q0 -91 51.5 -143.5t143 -52.5t162.5 19t172 67v-227q-172 -86 -386 -86zM801 827q0 95 -96.5 95t-174.5 -80t-102 -195h45
q155 0 241.5 48.5t86.5 131.5zM364 1569h198q63 -53 162 -168q115 94 232 168h217v-25q-212 -198 -295 -303h-338q-49 120 -176 303v25z" />
    <glyph glyph-name="Gcircumflex" unicode="&#x11c;" horiz-adv-x="1413" 
d="M961.5 1223q-149.5 0 -270 -83t-189 -236.5t-68.5 -328t72.5 -255t222.5 -80.5q76 0 170 24l66 299h-267l56 258h563l-162 -762q-230 -79 -490 -79t-401 147t-141 417.5t105.5 486.5t298.5 335t431.5 119t430.5 -99l-115 -251q-163 88 -312.5 88zM1308 1579h-198
q-63 53 -162 168q-105 -88 -232 -168h-217v25q196 177 295 303h338q49 -120 176 -303v-25z" />
    <glyph glyph-name="gcircumflex" unicode="&#x11d;" horiz-adv-x="1217" 
d="M395 416q0 -192 143 -193q67 0 125 64t97 185.5t39 223.5q0 198 -141 199q-67 0 -129.5 -72.5t-98 -187.5t-35.5 -219zM406 -492q-219 0 -379 72v262q160 -86 358.5 -86t252.5 196q28 101 58 198h-8q-72 -94 -143 -132t-154 -38q-139 0 -220 107t-81 300.5t70.5 370.5
t187.5 279t254 102q90 0 154.5 -34.5t128.5 -129.5h8l57 143h232l-244 -1145q-52 -238 -182.5 -351.5t-349.5 -113.5zM1190 1241h-198q-63 53 -162 168q-105 -88 -232 -168h-217v25q196 177 295 303h338q49 -120 176 -303v-25z" />
    <glyph glyph-name="Gbreve" unicode="&#x11e;" horiz-adv-x="1413" 
d="M961.5 1223q-149.5 0 -270 -83t-189 -236.5t-68.5 -328t72.5 -255t222.5 -80.5q76 0 170 24l66 299h-267l56 258h563l-162 -762q-230 -79 -490 -79t-401 147t-141 417.5t105.5 486.5t298.5 335t431.5 119t430.5 -99l-115 -251q-163 88 -312.5 88zM910 1579
q-153 0 -238.5 73t-85.5 199q0 38 6 66h174q0 -65 36.5 -95t116 -30t129 27t66.5 98h189q-55 -338 -393 -338z" />
    <glyph glyph-name="gbreve" unicode="&#x11f;" horiz-adv-x="1217" 
d="M395 416q0 -192 143 -193q67 0 125 64t97 185.5t39 223.5q0 198 -141 199q-67 0 -129.5 -72.5t-98 -187.5t-35.5 -219zM406 -492q-219 0 -379 72v262q160 -86 358.5 -86t252.5 196q28 101 58 198h-8q-72 -94 -143 -132t-154 -38q-139 0 -220 107t-81 300.5t70.5 370.5
t187.5 279t254 102q90 0 154.5 -34.5t128.5 -129.5h8l57 143h232l-244 -1145q-52 -238 -182.5 -351.5t-349.5 -113.5zM756 1241q-153 0 -238.5 73t-85.5 199q0 38 6 66h174q0 -65 36.5 -95t116 -30t129 27t66.5 98h189q-55 -338 -393 -338z" />
    <glyph glyph-name="Gdotaccent" unicode="&#x120;" horiz-adv-x="1413" 
d="M961.5 1223q-149.5 0 -270 -83t-189 -236.5t-68.5 -328t72.5 -255t222.5 -80.5q76 0 170 24l66 299h-267l56 258h563l-162 -762q-230 -79 -490 -79t-401 147t-141 417.5t105.5 486.5t298.5 335t431.5 119t430.5 -99l-115 -251q-163 88 -312.5 88zM959 1894
q149 0 149 -120q0 -80 -44 -129.5t-136 -49.5q-151 0 -151 123q0 87 47.5 131.5t134.5 44.5z" />
    <glyph glyph-name="gdotaccent" unicode="&#x121;" horiz-adv-x="1217" 
d="M395 416q0 -192 143 -193q67 0 125 64t97 185.5t39 223.5q0 198 -141 199q-67 0 -129.5 -72.5t-98 -187.5t-35.5 -219zM406 -492q-219 0 -379 72v262q160 -86 358.5 -86t252.5 196q28 101 58 198h-8q-72 -94 -143 -132t-154 -38q-139 0 -220 107t-81 300.5t70.5 370.5
t187.5 279t254 102q90 0 154.5 -34.5t128.5 -129.5h8l57 143h232l-244 -1145q-52 -238 -182.5 -351.5t-349.5 -113.5zM795 1556q149 0 149 -120q0 -80 -44 -129.5t-136 -49.5q-151 0 -151 123q0 87 47.5 131.5t134.5 44.5z" />
    <glyph glyph-name="uni0122" unicode="&#x122;" horiz-adv-x="1413" 
d="M961.5 1223q-149.5 0 -270 -83t-189 -236.5t-68.5 -328t72.5 -255t222.5 -80.5q76 0 170 24l66 299h-267l56 258h563l-162 -762q-230 -79 -490 -79t-401 147t-141 417.5t105.5 486.5t298.5 335t431.5 119t430.5 -99l-115 -251q-163 88 -312.5 88zM811 -125v-20
q-72 -135 -227 -308h-180v27q77 157 125 301h282z" />
    <glyph glyph-name="uni0123" unicode="&#x123;" horiz-adv-x="1217" 
d="M395 416q0 -192 143 -193q67 0 125 64t97 185.5t39 223.5q0 198 -141 199q-67 0 -129.5 -72.5t-98 -187.5t-35.5 -219zM406 -492q-219 0 -379 72v262q160 -86 358.5 -86t252.5 196q28 101 58 198h-8q-72 -94 -143 -132t-154 -38q-139 0 -220 107t-81 300.5t70.5 370.5
t187.5 279t254 102q90 0 154.5 -34.5t128.5 -129.5h8l57 143h232l-244 -1145q-52 -238 -182.5 -351.5t-349.5 -113.5zM996 1569v-27q-20 -40 -63.5 -141t-61.5 -160h-283v21q70 134 227 307h181z" />
    <glyph glyph-name="Hcircumflex" unicode="&#x124;" horiz-adv-x="1434" 
d="M1135 0h-306l134 631h-471l-134 -631h-305l309 1462h306l-121 -573h471l121 573h305zM1304 1579h-198q-63 53 -162 168q-105 -88 -232 -168h-217v25q196 177 295 303h338q49 -120 176 -303v-25z" />
    <glyph glyph-name="hcircumflex" unicode="&#x125;" horiz-adv-x="1237" 
d="M844 1139q138 0 213.5 -83.5t75.5 -238.5q0 -73 -23 -180l-133 -637h-301l137 653q16 68 16 119q0 123 -108 123q-92 0 -167 -114t-118 -318l-98 -463h-301l330 1556h301q-39 -181 -60 -278t-86 -309h8q137 170 314 170zM1198 1634h-198q-63 53 -162 168
q-105 -88 -232 -168h-217v25q196 177 295 303h338q49 -120 176 -303v-25z" />
    <glyph glyph-name="Hbar" unicode="&#x126;" horiz-adv-x="1434" 
d="M1018 889l37 180h-471l-37 -180h471zM1403 1268h178l-41 -199h-180l-225 -1069h-306l134 631h-471l-134 -631h-305l226 1069h-177l41 199h179l40 194h306l-41 -194h471l41 194h305z" />
    <glyph glyph-name="hbar" unicode="&#x127;" horiz-adv-x="1237" 
d="M831 1077q140 0 214.5 -84t74.5 -237q0 -79 -22 -181l-121 -575h-301l125 592q16 68 16 119q0 123 -106 123q-93 0 -168.5 -115.5t-118.5 -317.5l-86 -401h-301l254 1196h-162l43 199h160l35 161h301l-33 -161h299l-43 -199h-299q-38 -164 -80 -289h8q135 170 311 170z
" />
    <glyph glyph-name="Itilde" unicode="&#x128;" horiz-adv-x="784" 
d="M588 0h-647l36 176l187 82l201 946l-152 82l37 176h647l-37 -176l-190 -82l-201 -946l156 -82zM474 1684q-65 0 -94 -107h-177q59 309 281 309q70 0 159 -52q33 -20 62 -36t61.5 -16t56.5 25.5t46 80.5h172q-66 -309 -287 -309q-70 1 -156 53q-32 20 -61.5 36t-62.5 16z
" />
    <glyph glyph-name="itilde" unicode="&#x129;" horiz-adv-x="608" 
d="M338 0h-301l237 1118h301zM325 1346q-65 0 -94 -107h-177q59 309 281 309q70 0 159 -52q33 -20 62 -36t61.5 -16t56.5 25.5t46 80.5h172q-66 -309 -287 -309q-70 1 -156 53q-32 20 -61.5 36t-62.5 16z" />
    <glyph glyph-name="Imacron" unicode="&#x12a;" horiz-adv-x="784" 
d="M588 0h-647l36 176l187 82l201 946l-152 82l37 176h647l-37 -176l-190 -82l-201 -946l156 -82zM327 1790h619l-45 -211h-619z" />
    <glyph glyph-name="imacron" unicode="&#x12b;" horiz-adv-x="608" 
d="M338 0h-301l237 1118h301zM173 1452h619l-45 -211h-619z" />
    <glyph glyph-name="Ibreve" unicode="&#x12c;" horiz-adv-x="784" 
d="M588 0h-647l36 176l187 82l201 946l-152 82l37 176h647l-37 -176l-190 -82l-201 -946l156 -82zM591 1579q-153 0 -238.5 73t-85.5 199q0 38 6 66h174q0 -65 36.5 -95t116 -30t129 27t66.5 98h189q-55 -338 -393 -338z" />
    <glyph glyph-name="ibreve" unicode="&#x12d;" horiz-adv-x="608" 
d="M338 0h-301l237 1118h301zM458 1241q-153 0 -238.5 73t-85.5 199q0 38 6 66h174q0 -65 36.5 -95t116 -30t129 27t66.5 98h189q-55 -338 -393 -338z" />
    <glyph glyph-name="Iogonek" unicode="&#x12e;" horiz-adv-x="784" 
d="M219 -250q0 -59 60 -59q44 0 102 18v-176q-84 -25 -175 -25t-150.5 53.5t-59.5 138.5t47.5 154t167.5 146h-270l36 176l187 82l201 946l-152 82l37 176h647l-37 -176l-190 -82l-201 -946l156 -82l-37 -176h-178q-119 -96 -155 -148t-36 -102z" />
    <glyph glyph-name="iogonek" unicode="&#x12f;" horiz-adv-x="608" 
d="M504 1556q149 0 149 -120q0 -80 -44 -129.5t-136 -49.5q-151 0 -151 123q0 87 47.5 131.5t134.5 44.5zM143 -250q0 -59 60 -59q44 0 102 18v-176q-84 -25 -175 -25t-150.5 53.5t-59.5 138.5t47.5 154t167.5 146h-98l237 1118h301l-237 -1118h-4q-119 -96 -155 -148
t-36 -102z" />
    <glyph glyph-name="Idotaccent" unicode="&#x130;" horiz-adv-x="784" 
d="M588 0h-647l36 176l187 82l201 946l-152 82l37 176h647l-37 -176l-190 -82l-201 -946l156 -82zM619 1894q149 0 149 -120q0 -80 -44 -129.5t-136 -49.5q-151 0 -151 123q0 87 47.5 131.5t134.5 44.5z" />
    <glyph glyph-name="dotlessi" unicode="&#x131;" horiz-adv-x="608" 
d="M338 0h-301l237 1118h301z" />
    <glyph glyph-name="IJ" unicode="&#x132;" horiz-adv-x="1462" 
d="M588 0h-647l36 176l187 82l201 946l-152 82l37 176h647l-37 -176l-190 -82l-201 -946l156 -82zM649 -430q-94 0 -187 27v253q88 -20 176 -20q185 0 238 252l293 1380h305l-303 -1423q-52 -245 -175.5 -357t-346.5 -112z" />
    <glyph glyph-name="ij" unicode="&#x133;" horiz-adv-x="1217" 
d="M504 1556q149 0 149 -120q0 -80 -44 -129.5t-136 -49.5q-151 0 -151 123q0 87 47.5 131.5t134.5 44.5zM338 0h-301l237 1118h301zM1114 1556q149 0 149 -120q0 -80 -44 -129.5t-136 -49.5q-151 0 -151 123q0 87 47.5 131.5t134.5 44.5zM518 -492q-104 0 -174 25v242
q61 -21 114 -21q137 0 173 170l253 1194h302l-265 -1239q-77 -371 -403 -371z" />
    <glyph glyph-name="Jcircumflex" unicode="&#x134;" horiz-adv-x="678" 
d="M-135 -430q-94 0 -187 27v253q88 -20 176 -20q185 0 238 252l293 1380h305l-303 -1423q-52 -245 -175.5 -357t-346.5 -112zM949 1579h-198q-63 53 -162 168q-105 -88 -232 -168h-217v25q196 177 295 303h338q49 -120 176 -303v-25z" />
    <glyph glyph-name="jcircumflex" unicode="&#x135;" horiz-adv-x="608" 
d="M-88 -492q-104 0 -174 25v242q61 -21 118.5 -21t103.5 40t65 130l254 1194h301l-265 -1239q-77 -371 -403 -371zM836 1241h-198q-63 53 -162 168q-105 -88 -232 -168h-217v25q196 177 295 303h338q49 -120 176 -303v-25z" />
    <glyph glyph-name="uni0136" unicode="&#x136;" horiz-adv-x="1255" 
d="M1141 0h-338l-211 592l-125 -70l-109 -522h-305l309 1462h306l-154 -706l156 209l413 497h361l-594 -700zM710 -125v-20q-72 -135 -227 -308h-180v27q77 157 125 301h282z" />
    <glyph glyph-name="uni0137" unicode="&#x137;" horiz-adv-x="1163" 
d="M920 1118h344l-498 -504l285 -614h-336l-183 420l-120 -72l-74 -348h-301l330 1556h301l-148 -694q-11 -57 -48 -175l-13 -44h8zM653 -125v-20q-72 -135 -227 -308h-180v27q77 157 125 301h282z" />
    <glyph glyph-name="kgreenlandic" unicode="&#x138;" horiz-adv-x="1163" 
d="M920 1118h344l-498 -504l285 -614h-336l-183 420l-120 -72l-74 -348h-301l237 1118h301q-35 -155 -55.5 -247.5t-64.5 -233.5h8z" />
    <glyph glyph-name="Lacute" unicode="&#x139;" horiz-adv-x="1061" 
d="M53 0l309 1462h306l-256 -1206h512l-54 -256h-817zM941 1907v-17q-46 -56 -154 -152.5t-194 -158.5h-209v25q79 88 222 303h335z" />
    <glyph glyph-name="lacute" unicode="&#x13a;" horiz-adv-x="608" 
d="M338 0h-301l330 1556h301zM941 1964v-17q-46 -56 -154 -152.5t-194 -158.5h-209v25q79 88 222 303h335z" />
    <glyph glyph-name="uni013B" unicode="&#x13b;" horiz-adv-x="1061" 
d="M53 0l309 1462h306l-256 -1206h512l-54 -256h-817zM596 -125v-20q-72 -135 -227 -308h-180v27q77 157 125 301h282z" />
    <glyph glyph-name="uni013C" unicode="&#x13c;" horiz-adv-x="608" 
d="M338 0h-301l330 1556h301zM308 -125v-20q-72 -135 -227 -308h-180v27q77 157 125 301h282z" />
    <glyph glyph-name="Lcaron" unicode="&#x13d;" horiz-adv-x="1061" 
d="M53 0l309 1462h306l-256 -1206h512l-54 -256h-817zM1190 1463v-20q-30 -57 -96.5 -147.5t-130.5 -159.5h-180v26q83 178 124 301h283z" />
    <glyph glyph-name="lcaron" unicode="&#x13e;" horiz-adv-x="608" 
d="M338 0h-301l330 1556h301zM1102 1556v-20q-30 -57 -96.5 -147.5t-130.5 -159.5h-180v26q83 178 124 301h283z" />
    <glyph glyph-name="Ldot" unicode="&#x13f;" horiz-adv-x="1061" 
d="M53 0l309 1462h306l-256 -1206h512l-54 -256h-817zM877 900q149 0 149 -120q0 -80 -44 -129.5t-136 -49.5q-151 0 -151 123q0 87 47.5 131.5t134.5 44.5z" />
    <glyph glyph-name="ldot" unicode="&#x140;" horiz-adv-x="889" 
d="M338 0h-301l330 1556h301zM793 844q149 0 149 -120q0 -80 -44 -129.5t-136 -49.5q-151 0 -151 123q0 87 47.5 131.5t134.5 44.5z" />
    <glyph glyph-name="Lslash" unicode="&#x141;" horiz-adv-x="1061" 
d="M55 0l103 481l-58 -30l-102 202l221 119l146 690h303l-107 -506l141 78l107 -203l-311 -167l-86 -408h512l-54 -256h-815z" />
    <glyph glyph-name="lslash" unicode="&#x142;" horiz-adv-x="670" 
d="M559 936l64 37l106 -203l-231 -125l-138 -645h-297l99 467l-60 -33l-102 203l223 121l170 798h297z" />
    <glyph glyph-name="Nacute" unicode="&#x143;" horiz-adv-x="1546" 
d="M1247 0h-342l-356 1106h-10l-8 -59q-27 -214 -58 -359l-145 -688h-275l309 1462h357l340 -1077h8q35 223 68 385l147 692h274zM1413 1907v-17q-46 -56 -154 -152.5t-194 -158.5h-209v25q79 88 222 303h335z" />
    <glyph glyph-name="nacute" unicode="&#x144;" horiz-adv-x="1237" 
d="M829 772q0 123 -108 123q-92 0 -167 -114t-118 -318l-98 -463h-301l237 1118h230l-21 -207h9q146 228 352 228q138 0 213.5 -83.5t75.5 -238.5q0 -73 -23 -180l-133 -637h-301l137 653q16 68 16 119zM1151 1569v-17q-46 -56 -154 -152.5t-194 -158.5h-209v25
q79 88 222 303h335z" />
    <glyph glyph-name="uni0145" unicode="&#x145;" horiz-adv-x="1546" 
d="M1247 0h-342l-356 1106h-10l-8 -59q-27 -214 -58 -359l-145 -688h-275l309 1462h357l340 -1077h8q35 223 68 385l147 692h274zM788 -125v-20q-72 -135 -227 -308h-180v27q77 157 125 301h282z" />
    <glyph glyph-name="uni0146" unicode="&#x146;" horiz-adv-x="1237" 
d="M829 772q0 123 -108 123q-92 0 -167 -114t-118 -318l-98 -463h-301l237 1118h230l-21 -207h9q146 228 352 228q138 0 213.5 -83.5t75.5 -238.5q0 -73 -23 -180l-133 -637h-301l137 653q16 68 16 119zM643 -125v-20q-72 -135 -227 -308h-180v27q77 157 125 301h282z" />
    <glyph glyph-name="Ncaron" unicode="&#x147;" horiz-adv-x="1546" 
d="M1247 0h-342l-356 1106h-10l-8 -59q-27 -214 -58 -359l-145 -688h-275l309 1462h357l340 -1077h8q35 223 68 385l147 692h274zM621 1907h198q63 -53 162 -168q115 94 232 168h217v-25q-212 -198 -295 -303h-338q-49 120 -176 303v25z" />
    <glyph glyph-name="ncaron" unicode="&#x148;" horiz-adv-x="1237" 
d="M829 772q0 123 -108 123q-92 0 -167 -114t-118 -318l-98 -463h-301l237 1118h230l-21 -207h9q146 228 352 228q138 0 213.5 -83.5t75.5 -238.5q0 -73 -23 -180l-133 -637h-301l137 653q16 68 16 119zM383 1569h198q63 -53 162 -168q115 94 232 168h217v-25
q-212 -198 -295 -303h-338q-49 120 -176 303v25z" />
    <glyph glyph-name="napostrophe" unicode="&#x149;" horiz-adv-x="1446" 
d="M1038 772q0 123 -108 123q-92 0 -167 -114t-118 -318l-98 -463h-301l237 1118h230l-21 -207h9q146 228 352 228q138 0 213.5 -83.5t75.5 -238.5q0 -73 -23 -180l-133 -637h-301l137 653q16 68 16 119zM532 1462l8 -22q-103 -227 -262 -479h-226q89 206 195 501h285z" />
    <glyph glyph-name="Eng" unicode="&#x14a;" horiz-adv-x="1546" 
d="M727 -430q-120 0 -190 24v242q90 -22 181 -22q189 0 249 186l-418 1106h-8l-8 -59q-32 -224 -60 -359l-145 -688h-275l309 1462h330l381 -985h10l12 80q29 200 56 317l131 588h274l-309 -1462q-46 -215 -178.5 -322.5t-341.5 -107.5z" />
    <glyph glyph-name="eng" unicode="&#x14b;" horiz-adv-x="1237" 
d="M547 -492q-104 0 -174 25v242q61 -21 118 -21t103.5 40.5t64.5 129.5l154 729q16 68 16 119q0 123 -108 123q-92 0 -167 -114t-118 -318l-98 -463h-301l237 1118h228l-21 -207h8q146 228 355 228q138 0 213.5 -83.5t75.5 -238.5q0 -73 -23 -180l-158 -754
q-41 -192 -141.5 -283.5t-263.5 -91.5z" />
    <glyph glyph-name="Omacron" unicode="&#x14c;" horiz-adv-x="1495" 
d="M434 557q0 -317 254 -317q121 0 220.5 87t155.5 246t56 357q0 142 -65 219.5t-184.5 77.5t-220.5 -91.5t-158.5 -251.5t-57.5 -327zM1432 926q0 -271 -99 -494.5t-271 -337.5t-412 -114t-383.5 147.5t-143.5 411t99 486t273 341.5t415.5 119t381.5 -144t140 -415z
M668 1790h619l-45 -211h-619z" />
    <glyph glyph-name="omacron" unicode="&#x14d;" horiz-adv-x="1198" 
d="M1108 694q0 -209 -70.5 -372t-203.5 -252.5t-322 -89.5t-305.5 117.5t-116.5 321.5t71.5 370.5t206.5 258t323.5 91.5t302.5 -118t114 -327zM805 696q0 197 -143 197q-75 0 -134.5 -61t-97 -179t-37.5 -243q0 -185 150 -185q75 0 135 61.5t93.5 171t33.5 238.5zM444 1452
h619l-45 -211h-619z" />
    <glyph glyph-name="Obreve" unicode="&#x14e;" horiz-adv-x="1495" 
d="M434 557q0 -317 254 -317q121 0 220.5 87t155.5 246t56 357q0 142 -65 219.5t-184.5 77.5t-220.5 -91.5t-158.5 -251.5t-57.5 -327zM1432 926q0 -271 -99 -494.5t-271 -337.5t-412 -114t-383.5 147.5t-143.5 411t99 486t273 341.5t415.5 119t381.5 -144t140 -415z
M930 1579q-153 0 -238.5 73t-85.5 199q0 38 6 66h174q0 -65 36.5 -95t116 -30t129 27t66.5 98h189q-55 -338 -393 -338z" />
    <glyph glyph-name="obreve" unicode="&#x14f;" horiz-adv-x="1198" 
d="M1108 694q0 -209 -70.5 -372t-203.5 -252.5t-322 -89.5t-305.5 117.5t-116.5 321.5t71.5 370.5t206.5 258t323.5 91.5t302.5 -118t114 -327zM805 696q0 197 -143 197q-75 0 -134.5 -61t-97 -179t-37.5 -243q0 -185 150 -185q75 0 135 61.5t93.5 171t33.5 238.5zM718 1241
q-153 0 -238.5 73t-85.5 199q0 38 6 66h174q0 -65 36.5 -95t116 -30t129 27t66.5 98h189q-55 -338 -393 -338z" />
    <glyph glyph-name="Ohungarumlaut" unicode="&#x150;" horiz-adv-x="1495" 
d="M434 557q0 -317 254 -317q121 0 220.5 87t155.5 246t56 357q0 142 -65 219.5t-184.5 77.5t-220.5 -91.5t-158.5 -251.5t-57.5 -327zM1432 926q0 -271 -99 -494.5t-271 -337.5t-412 -114t-383.5 147.5t-143.5 411t99 486t273 341.5t415.5 119t381.5 -144t140 -415z
M1534 1907v-17q-43 -53 -152.5 -147.5t-205.5 -163.5h-178v25q114 128 231 303h305zM1137 1907v-17q-43 -53 -152.5 -147.5t-205.5 -163.5h-178v25q114 128 231 303h305z" />
    <glyph glyph-name="ohungarumlaut" unicode="&#x151;" horiz-adv-x="1198" 
d="M1108 694q0 -209 -70.5 -372t-203.5 -252.5t-322 -89.5t-305.5 117.5t-116.5 321.5t71.5 370.5t206.5 258t323.5 91.5t302.5 -118t114 -327zM805 696q0 197 -143 197q-75 0 -134.5 -61t-97 -179t-37.5 -243q0 -185 150 -185q75 0 135 61.5t93.5 171t33.5 238.5z
M1308 1569v-17q-43 -53 -152.5 -147.5t-205.5 -163.5h-178v25q114 128 231 303h305zM911 1569v-17q-43 -53 -152.5 -147.5t-205.5 -163.5h-178v25q114 128 231 303h305z" />
    <glyph glyph-name="OE" unicode="&#x152;" horiz-adv-x="1845" 
d="M671.5 240q104.5 0 174.5 32l194 916q-62 39 -175.5 39t-214.5 -91.5t-158.5 -251.5t-57.5 -327t66.5 -242t171 -75zM666 -20q-256 0 -399.5 147.5t-143.5 411t99 486t273 341.5t402 119q140 0 209 -23h809l-53 -254h-512l-68 -321h477l-55 -254h-477l-80 -377h512
l-53 -256h-760q-93 -20 -180 -20z" />
    <glyph glyph-name="oe" unicode="&#x153;" horiz-adv-x="1806" 
d="M1466 827q0 95 -96 95t-173.5 -78.5t-102.5 -196.5h45q155 0 241 48.5t86 131.5zM393 414q0 -189 146 -189q109 0 179 134.5t70 336.5q0 96 -37 146.5t-107 50.5t-126 -60.5t-90.5 -176.5t-34.5 -242zM90 422q0 208 69 372.5t200 254.5t309 90q209 0 313 -160
q154 160 399 160q177 0 276 -81.5t99 -223.5q0 -187 -167 -288.5t-476 -101.5h-51l-2 -21v-20q0 -91 51 -143.5t142.5 -52.5t162.5 19t172 67v-227q-174 -86 -389 -86q-116 0 -208 38.5t-138 106.5q-134 -145 -337.5 -145t-314 117t-110.5 325z" />
    <glyph glyph-name="Racute" unicode="&#x154;" horiz-adv-x="1247" 
d="M721 1462q237 0 356 -102t119 -299q0 -158 -83 -271.5t-239 -168.5l261 -621h-332l-207 561h-119l-119 -561h-305l309 1462h359zM885 1044q0 164 -197 164h-74l-84 -395h78q131 0 204 57t73 174zM1202 1907v-17q-46 -56 -154 -152.5t-194 -158.5h-209v25q79 88 222 303
h335z" />
    <glyph glyph-name="racute" unicode="&#x155;" horiz-adv-x="862" 
d="M842 1139q59 0 96 -11l-66 -290q-45 16 -100 16q-116 0 -203.5 -91.5t-124.5 -262.5l-106 -500h-301l237 1118h230l-21 -207h11q145 228 348 228zM1016 1569v-17q-46 -56 -154 -152.5t-194 -158.5h-209v25q79 88 222 303h335z" />
    <glyph glyph-name="uni0156" unicode="&#x156;" horiz-adv-x="1247" 
d="M721 1462q237 0 356 -102t119 -299q0 -158 -83 -271.5t-239 -168.5l261 -621h-332l-207 561h-119l-119 -561h-305l309 1462h359zM885 1044q0 164 -197 164h-74l-84 -395h78q131 0 204 57t73 174zM706 -125v-20q-72 -135 -227 -308h-180v27q77 157 125 301h282z" />
    <glyph glyph-name="uni0157" unicode="&#x157;" horiz-adv-x="862" 
d="M842 1139q59 0 96 -11l-66 -290q-45 16 -100 16q-116 0 -203.5 -91.5t-124.5 -262.5l-106 -500h-301l237 1118h230l-21 -207h11q145 228 348 228zM312 -125v-20q-72 -135 -227 -308h-180v27q77 157 125 301h282z" />
    <glyph glyph-name="Rcaron" unicode="&#x158;" horiz-adv-x="1247" 
d="M721 1462q237 0 356 -102t119 -299q0 -158 -83 -271.5t-239 -168.5l261 -621h-332l-207 561h-119l-119 -561h-305l309 1462h359zM885 1044q0 164 -197 164h-74l-84 -395h78q131 0 204 57t73 174zM443 1907h198q63 -53 162 -168q115 94 232 168h217v-25
q-212 -198 -295 -303h-338q-49 120 -176 303v25z" />
    <glyph glyph-name="rcaron" unicode="&#x159;" horiz-adv-x="862" 
d="M842 1139q59 0 96 -11l-66 -290q-45 16 -100 16q-116 0 -203.5 -91.5t-124.5 -262.5l-106 -500h-301l237 1118h230l-21 -207h11q145 228 348 228zM259 1569h198q63 -53 162 -168q115 94 232 168h217v-25q-212 -198 -295 -303h-338q-49 120 -176 303v25z" />
    <glyph glyph-name="Sacute" unicode="&#x15a;" horiz-adv-x="1085" 
d="M946 432q0 -209 -148 -330.5t-385 -121.5t-372 90v274q193 -108 358 -108q112 0 175 42.5t63 118.5t-52 134q-25 28 -124 102q-138 99 -194 196t-56 217.5t62 222t176.5 158t263.5 56.5q217 0 397 -99l-109 -233q-156 74 -263.5 74t-160.5 -45t-53 -112.5t33 -113.5
q33 -44 151 -122q238 -156 238 -400zM1144 1907v-17q-46 -56 -154 -152.5t-194 -158.5h-209v25q79 88 222 303h335z" />
    <glyph glyph-name="sacute" unicode="&#x15b;" horiz-adv-x="969" 
d="M365.5 -20q-214.5 0 -342.5 65v248q157 -90 319 -90q80 0 131 32.5t51 82t-37 83.5t-144.5 94t-155.5 127.5t-48 159.5q0 170 110.5 263.5t313.5 93.5t365 -95l-99 -215q-140 84 -258 84q-57 0 -92 -25.5t-35 -66.5t32 -70.5t138 -83.5q216 -110 215.5 -298t-125 -288.5
t-339 -100.5zM1000 1569v-17q-46 -56 -154 -152.5t-194 -158.5h-209v25q79 88 222 303h335z" />
    <glyph glyph-name="Scircumflex" unicode="&#x15c;" horiz-adv-x="1085" 
d="M946 432q0 -209 -148 -330.5t-385 -121.5t-372 90v274q193 -108 358 -108q112 0 175 42.5t63 118.5t-52 134q-25 28 -124 102q-138 99 -194 196t-56 217.5t62 222t176.5 158t263.5 56.5q217 0 397 -99l-109 -233q-156 74 -263.5 74t-160.5 -45t-53 -112.5t33 -113.5
q33 -44 151 -122q238 -156 238 -400zM1124 1579h-198q-63 53 -162 168q-105 -88 -232 -168h-217v25q196 177 295 303h338q49 -120 176 -303v-25z" />
    <glyph glyph-name="scircumflex" unicode="&#x15d;" horiz-adv-x="969" 
d="M365.5 -20q-214.5 0 -342.5 65v248q157 -90 319 -90q80 0 131 32.5t51 82t-37 83.5t-144.5 94t-155.5 127.5t-48 159.5q0 170 110.5 263.5t313.5 93.5t365 -95l-99 -215q-140 84 -258 84q-57 0 -92 -25.5t-35 -66.5t32 -70.5t138 -83.5q216 -110 215.5 -298t-125 -288.5
t-339 -100.5zM980 1241h-198q-63 53 -162 168q-105 -88 -232 -168h-217v25q196 177 295 303h338q49 -120 176 -303v-25z" />
    <glyph glyph-name="Scedilla" unicode="&#x15e;" horiz-adv-x="1085" 
d="M376 -242q0 72 -141 88l85 137q-169 13 -279 87v274q193 -108 358 -108q112 0 175 42.5t63 118.5t-52 134q-25 28 -124 102q-138 99 -194 196t-56 217.5t62 222t176.5 158t263.5 56.5q217 0 397 -99l-109 -233q-156 74 -263.5 74t-160.5 -45t-53 -112.5t33 -113.5
q33 -44 151 -122q238 -156 238 -400q0 -208 -148 -330q-114 -93 -289 -115l-32 -59q141 -49 141 -171.5t-83 -185.5t-234 -63q-86 0 -152 23v168q63 -23 125 -23q102 0 102 82z" />
    <glyph glyph-name="scedilla" unicode="&#x15f;" horiz-adv-x="969" 
d="M342 203q80 0 131 32.5t51 82t-37 83.5t-144.5 94t-155.5 127.5t-48 159.5q0 170 110.5 263.5t313.5 93.5t365 -95l-99 -215q-140 84 -258 84q-57 0 -92 -25.5t-35 -66.5t32 -70.5t138 -83.5q216 -110 216 -298q-2 -189 -126 -289q-96 -77 -249 -95l-31 -57
q141 -49 141 -171.5t-83 -185.5t-234 -63q-86 0 -152 23v168q63 -23 125 -23q102 0 102 82q0 72 -141 88l85 137q-142 10 -244 62v248q157 -90 319 -90z" />
    <glyph glyph-name="Scaron" unicode="&#x160;" horiz-adv-x="1085" 
d="M946 432q0 -209 -148 -330.5t-385 -121.5t-372 90v274q193 -108 358 -108q112 0 175 42.5t63 118.5t-52 134q-25 28 -124 102q-138 99 -194 196t-56 217.5t62 222t176.5 158t263.5 56.5q217 0 397 -99l-109 -233q-156 74 -263.5 74t-160.5 -45t-53 -112.5t33 -113.5
q33 -44 151 -122q238 -156 238 -400zM362 1907h198q63 -53 162 -168q115 94 232 168h217v-25q-212 -198 -295 -303h-338q-49 120 -176 303v25z" />
    <glyph glyph-name="scaron" unicode="&#x161;" horiz-adv-x="969" 
d="M365.5 -20q-214.5 0 -342.5 65v248q157 -90 319 -90q80 0 131 32.5t51 82t-37 83.5t-144.5 94t-155.5 127.5t-48 159.5q0 170 110.5 263.5t313.5 93.5t365 -95l-99 -215q-140 84 -258 84q-57 0 -92 -25.5t-35 -66.5t32 -70.5t138 -83.5q216 -110 215.5 -298t-125 -288.5
t-339 -100.5zM249 1569h198q63 -53 162 -168q115 94 232 168h217v-25q-212 -198 -295 -303h-338q-49 120 -176 303v25z" />
    <glyph glyph-name="uni0162" unicode="&#x162;" horiz-adv-x="1087" 
d="M368 -242q0 72 -141 88l96 154h-57l254 1204h-352l55 258h1010l-55 -258h-353l-254 -1204h-63l-39 -72q141 -49 141 -171.5t-83 -185.5t-234 -63q-86 0 -152 23v168q63 -23 125 -23q102 0 102 82z" />
    <glyph glyph-name="uni0163" unicode="&#x163;" horiz-adv-x="840" 
d="M119 238q0 50 12 112l115 539h-152l29 147l196 84l132 236h194l-49 -238h283l-50 -229h-282l-115 -539q-6 -30 -6 -53q0 -74 88 -74q65 0 162 35v-225q-99 -47 -234 -52l-28 -53q141 -49 141 -171.5t-83 -185.5t-234 -63q-86 0 -152 23v168q63 -23 125 -23q102 0 102 82
q0 72 -141 88l96 154q-149 49 -149 238z" />
    <glyph glyph-name="Tcaron" unicode="&#x164;" horiz-adv-x="1087" 
d="M571 0h-305l254 1204h-352l55 258h1010l-55 -258h-353zM397 1907h198q63 -53 162 -168q115 94 232 168h217v-25q-212 -198 -295 -303h-338q-49 120 -176 303v25z" />
    <glyph glyph-name="tcaron" unicode="&#x165;" horiz-adv-x="840" 
d="M514 223q65 0 162 35v-225q-111 -53 -263.5 -53t-223 63t-70.5 195q0 50 12 112l115 539h-152l29 147l196 84l132 236h194l-49 -238h283l-50 -229h-282l-115 -539q-6 -30 -6 -53q0 -74 88 -74zM1159 1576v-20q-30 -57 -96.5 -147.5t-130.5 -159.5h-180v26q83 178 124 301
h283z" />
    <glyph glyph-name="Tbar" unicode="&#x166;" horiz-adv-x="1087" 
d="M750 850h235l-55 -254h-234l-125 -596h-305l125 596h-225l55 254h223l76 354h-352l55 258h1010l-55 -258h-353z" />
    <glyph glyph-name="tbar" unicode="&#x167;" horiz-adv-x="840" 
d="M514 223q65 0 162 35v-225q-112 -53 -264 -53t-222.5 63t-70.5 195q0 66 12 112l33 148h-133l41 198h133l41 193h-152l29 147l196 84l132 236h194l-49 -238h283l-50 -229h-282l-41 -193h233l-41 -198h-235l-31 -148q-6 -30 -6 -53q0 -74 88 -74z" />
    <glyph glyph-name="Utilde" unicode="&#x168;" horiz-adv-x="1415" 
d="M596 -20q-212 0 -333.5 113.5t-121.5 307.5q0 72 15 138l196 923h305l-194 -919q-17 -74 -17 -125q0 -178 189 -178q123 0 195 76.5t104 228.5l194 917h306l-201 -946q-57 -266 -218 -401t-419 -135zM791 1684q-65 0 -94 -107h-177q59 309 281 309q70 0 159 -52
q33 -20 62 -36t61.5 -16t56.5 25.5t46 80.5h172q-66 -309 -287 -309q-70 1 -156 53q-32 20 -61.5 36t-62.5 16z" />
    <glyph glyph-name="utilde" unicode="&#x169;" horiz-adv-x="1237" 
d="M410 346q0 -123 108 -123q92 0 167 114t118 318l98 463h301l-237 -1118h-230l21 207h-11q-145 -227 -350 -227q-138 0 -211 82.5t-73 238.5q0 93 24 213l127 604h301l-137 -653q-16 -68 -16 -119zM635 1346q-65 0 -94 -107h-177q59 309 281 309q70 0 159 -52
q33 -20 62 -36t61.5 -16t56.5 25.5t46 80.5h172q-66 -309 -287 -309q-70 1 -156 53q-32 20 -61.5 36t-62.5 16z" />
    <glyph glyph-name="Umacron" unicode="&#x16a;" horiz-adv-x="1415" 
d="M596 -20q-212 0 -333.5 113.5t-121.5 307.5q0 72 15 138l196 923h305l-194 -919q-17 -74 -17 -125q0 -178 189 -178q123 0 195 76.5t104 228.5l194 917h306l-201 -946q-57 -266 -218 -401t-419 -135zM647 1790h619l-45 -211h-619z" />
    <glyph glyph-name="umacron" unicode="&#x16b;" horiz-adv-x="1237" 
d="M410 346q0 -123 108 -123q92 0 167 114t118 318l98 463h301l-237 -1118h-230l21 207h-11q-145 -227 -350 -227q-138 0 -211 82.5t-73 238.5q0 93 24 213l127 604h301l-137 -653q-16 -68 -16 -119zM487 1452h619l-45 -211h-619z" />
    <glyph glyph-name="Ubreve" unicode="&#x16c;" horiz-adv-x="1415" 
d="M596 -20q-212 0 -333.5 113.5t-121.5 307.5q0 72 15 138l196 923h305l-194 -919q-17 -74 -17 -125q0 -178 189 -178q123 0 195 76.5t104 228.5l194 917h306l-201 -946q-57 -266 -218 -401t-419 -135zM916 1579q-153 0 -238.5 73t-85.5 199q0 38 6 66h174q0 -65 36.5 -95
t116 -30t129 27t66.5 98h189q-55 -338 -393 -338z" />
    <glyph glyph-name="ubreve" unicode="&#x16d;" horiz-adv-x="1237" 
d="M410 346q0 -123 108 -123q92 0 167 114t118 318l98 463h301l-237 -1118h-230l21 207h-11q-145 -227 -350 -227q-138 0 -211 82.5t-73 238.5q0 93 24 213l127 604h301l-137 -653q-16 -68 -16 -119zM768 1241q-153 0 -238.5 73t-85.5 199q0 38 6 66h174q0 -65 36.5 -95
t116 -30t129 27t66.5 98h189q-55 -338 -393 -338z" />
    <glyph glyph-name="Uring" unicode="&#x16e;" horiz-adv-x="1415" 
d="M596 -20q-212 0 -333.5 113.5t-121.5 307.5q0 72 15 138l196 923h305l-194 -919q-17 -74 -17 -125q0 -178 189 -178q123 0 195 76.5t104 228.5l194 917h306l-201 -946q-57 -266 -218 -401t-419 -135zM844 1815q0 -97 96 -97q42 0 69.5 26t27.5 71t-27.5 70.5t-69.5 25.5
t-69 -25.5t-27 -70.5zM1194 1816q0 -106 -70 -172.5t-182 -66.5t-181 63.5t-69 173.5t68.5 174t179 64t182.5 -65t72 -171z" />
    <glyph glyph-name="uring" unicode="&#x16f;" horiz-adv-x="1237" 
d="M410 346q0 -123 108 -123q92 0 167 114t118 318l98 463h301l-237 -1118h-230l21 207h-11q-145 -227 -350 -227q-138 0 -211 82.5t-73 238.5q0 93 24 213l127 604h301l-137 -653q-16 -68 -16 -119zM684 1477q0 -97 96 -97q42 0 69.5 26t27.5 71t-27.5 70.5t-69.5 25.5
t-69 -25.5t-27 -70.5zM1034 1478q0 -106 -70 -172.5t-182 -66.5t-181 63.5t-69 173.5t68.5 174t179 64t182.5 -65t72 -171z" />
    <glyph glyph-name="Uhungarumlaut" unicode="&#x170;" horiz-adv-x="1415" 
d="M596 -20q-212 0 -333.5 113.5t-121.5 307.5q0 72 15 138l196 923h305l-194 -919q-17 -74 -17 -125q0 -178 189 -178q123 0 195 76.5t104 228.5l194 917h306l-201 -946q-57 -266 -218 -401t-419 -135zM1531 1907v-17q-43 -53 -152.5 -147.5t-205.5 -163.5h-178v25
q114 128 231 303h305zM1134 1907v-17q-43 -53 -152.5 -147.5t-205.5 -163.5h-178v25q114 128 231 303h305z" />
    <glyph glyph-name="uhungarumlaut" unicode="&#x171;" horiz-adv-x="1237" 
d="M410 346q0 -123 108 -123q92 0 167 114t118 318l98 463h301l-237 -1118h-230l21 207h-11q-145 -227 -350 -227q-138 0 -211 82.5t-73 238.5q0 93 24 213l127 604h301l-137 -653q-16 -68 -16 -119zM1362 1569v-17q-43 -53 -152.5 -147.5t-205.5 -163.5h-178v25
q114 128 231 303h305zM965 1569v-17q-43 -53 -152.5 -147.5t-205.5 -163.5h-178v25q114 128 231 303h305z" />
    <glyph glyph-name="Uogonek" unicode="&#x172;" horiz-adv-x="1415" 
d="M586 -250q0 -59 60 -59q44 0 102 18v-176q-84 -25 -175 -25t-150.5 53.5t-59.5 138.5t44.5 150t142.5 131q-179 11 -294 118.5t-115 301.5q0 72 15 138l196 923h305l-194 -919q-17 -74 -17 -125q0 -178 189 -178q123 0 195 76.5t104 228.5l194 917h306l-201 -946
q-93 -434 -457 -517q-118 -95 -154 -147t-36 -102z" />
    <glyph glyph-name="uogonek" unicode="&#x173;" horiz-adv-x="1237" 
d="M743 -250q0 -59 60 -59q44 0 102 18v-176q-84 -25 -175 -25t-150.5 53.5t-59.5 138.5t47.5 154t167.5 146l21 207h-11q-145 -227 -350 -227q-138 0 -211 82.5t-73 238.5q0 93 24 213l127 604h301l-137 -653q-16 -68 -16 -119q0 -123 108 -123q92 0 167 114t118 318
l98 463h301l-237 -1118h-31q-119 -96 -155 -148t-36 -102z" />
    <glyph glyph-name="Wcircumflex" unicode="&#x174;" horiz-adv-x="1831" 
d="M477 664q0 -223 -14 -347h8q89 250 125 326l369 819h270l21 -873q0 -146 -9 -272h8q53 159 129 349l330 796h309l-647 -1462h-346l-22 721l-2 113q0 94 6 184h-8q-52 -163 -113 -299l-324 -719h-338l-45 1462h287zM1519 1579h-198q-63 53 -162 168q-105 -88 -232 -168
h-217v25q196 177 295 303h338q49 -120 176 -303v-25z" />
    <glyph glyph-name="wcircumflex" unicode="&#x175;" horiz-adv-x="1614" 
d="M1073 1118v-536q0 -193 -10 -297h10q81 250 119 338l219 495h307l-530 -1118h-330l-6 520q0 155 10 340h-12q-90 -255 -117 -319l-233 -541h-324l-51 1118h281l4 -495q0 -209 -11 -338h9q37 134 106 297l231 536h328zM1321 1241h-198q-63 53 -162 168q-105 -88 -232 -168
h-217v25q196 177 295 303h338q49 -120 176 -303v-25z" />
    <glyph glyph-name="Ycircumflex" unicode="&#x176;" horiz-adv-x="1155" 
d="M627 870l374 592h342l-618 -903l-119 -559h-303l119 559l-236 903h312zM1151 1579h-198q-63 53 -162 168q-105 -88 -232 -168h-217v25q196 177 295 303h338q49 -120 176 -303v-25z" />
    <glyph glyph-name="ycircumflex" unicode="&#x177;" horiz-adv-x="1063" 
d="M465 307h8q20 51 44 119.5t65 153.5l260 538h327l-680 -1278q-177 -332 -483 -332q-90 0 -147 19v240q68 -13 134 -13q142 0 247 197l26 49l-164 1118h295l56 -518q12 -105 12 -293zM1033 1241h-198q-63 53 -162 168q-105 -88 -232 -168h-217v25q196 177 295 303h338
q49 -120 176 -303v-25z" />
    <glyph glyph-name="Ydieresis" unicode="&#x178;" horiz-adv-x="1155" 
d="M627 870l374 592h342l-618 -903l-119 -559h-303l119 559l-236 903h312zM1110 1770q0 -160 -149 -160q-127 0 -127 110q0 78 39.5 118t111.5 40q125 0 125 -108zM727 1770q0 -160 -149 -160q-127 0 -127 110q0 78 39.5 118t111.5 40q125 0 125 -108z" />
    <glyph glyph-name="Zacute" unicode="&#x179;" horiz-adv-x="1098" 
d="M920 0h-981l38 201l777 1005h-543l53 256h936l-41 -202l-782 -1004h596zM1146 1907v-17q-46 -56 -154 -152.5t-194 -158.5h-209v25q79 88 222 303h335z" />
    <glyph glyph-name="zacute" unicode="&#x17a;" horiz-adv-x="932" 
d="M748 0h-795l35 180l575 705h-397l51 233h750l-43 -200l-566 -685h439zM1033 1569v-17q-46 -56 -154 -152.5t-194 -158.5h-209v25q79 88 222 303h335z" />
    <glyph glyph-name="Zdotaccent" unicode="&#x17b;" horiz-adv-x="1098" 
d="M920 0h-981l38 201l777 1005h-543l53 256h936l-41 -202l-782 -1004h596zM776 1894q149 0 149 -120q0 -80 -44 -129.5t-136 -49.5q-151 0 -151 123q0 87 47.5 131.5t134.5 44.5z" />
    <glyph glyph-name="zdotaccent" unicode="&#x17c;" horiz-adv-x="932" 
d="M748 0h-795l35 180l575 705h-397l51 233h750l-43 -200l-566 -685h439zM637 1556q149 0 149 -120q0 -80 -44 -129.5t-136 -49.5q-151 0 -151 123q0 87 47.5 131.5t134.5 44.5z" />
    <glyph glyph-name="Zcaron" unicode="&#x17d;" horiz-adv-x="1098" 
d="M920 0h-981l38 201l777 1005h-543l53 256h936l-41 -202l-782 -1004h596zM387 1907h198q63 -53 162 -168q115 94 232 168h217v-25q-212 -198 -295 -303h-338q-49 120 -176 303v25z" />
    <glyph glyph-name="zcaron" unicode="&#x17e;" horiz-adv-x="932" 
d="M748 0h-795l35 180l575 705h-397l51 233h750l-43 -200l-566 -685h439zM265 1569h198q63 -53 162 -168q115 94 232 168h217v-25q-212 -198 -295 -303h-338q-49 120 -176 303v25z" />
    <glyph glyph-name="longs" unicode="&#x17f;" horiz-adv-x="733" 
d="M-72 -492q-104 0 -174 25v242q61 -21 115 -21q136 0 172 170l272 1278q42 192 139.5 278.5t272.5 86.5q129 0 236 -49l-80 -224q-69 31 -129 31q-112 0 -144 -145l-276 -1301q-77 -371 -404 -371z" />
    <glyph glyph-name="uni0180" unicode="&#x180;" horiz-adv-x="1219" 
d="M823 719q0 155 -131 155q-74 0 -134 -61t-99 -179t-39 -216.5t37 -146.5t103 -48t127 69t98.5 189.5t37.5 237.5zM809.5 1118q148.5 0 233.5 -103t85 -287.5t-68 -362t-187 -281.5t-263 -104q-194 0 -276 163h-8l-58 -143h-231l254 1196h-144l41 199h144l35 161h301
l-35 -161h291l-41 -199h-293q-38 -143 -68 -227h8q131 149 279.5 149z" />
    <glyph glyph-name="uni0181" unicode="&#x181;" horiz-adv-x="1495" 
d="M920 883q121 0 181 49t60 139q0 137 -170 137h-151l-70 -325h150zM817 256q117 0 183.5 58t66.5 161q0 162 -182 162h-166l-82 -381h180zM1014 1462q463 0 463 -325q0 -150 -83.5 -246.5t-236.5 -128.5v-8q100 -26 159.5 -96.5t59.5 -180.5q0 -229 -153 -353t-422 -124
h-522l256 1208h-52q-68 0 -109.5 -45.5t-41.5 -115.5q0 -28 6 -52h-227q-9 29 -9 78q0 182 113.5 285.5t316.5 103.5h482z" />
    <glyph glyph-name="uni0182" unicode="&#x182;" horiz-adv-x="1212" 
d="M508 254q139 0 212 58.5t73 164.5q0 170 -193 170h-108l-84 -393h100zM612 901q238 0 364 -104.5t126 -304.5q0 -237 -158 -364.5t-457 -127.5h-434l309 1462h822l-54 -254h-520l-65 -307h67z" />
    <glyph glyph-name="uni0183" unicode="&#x183;" horiz-adv-x="1219" 
d="M823 719q0 155 -131 155q-74 0 -134 -61t-99 -179t-39 -216.5t37 -146.5t103 -48t127 69t98.5 189.5t37.5 237.5zM610 -20q-194 0 -276 163h-8l-58 -143h-231l330 1556h856l-49 -229h-556q-44 -216 -96 -358h8q72 83 138.5 116t144.5 33q145 0 230 -103t85 -287.5
t-68 -362t-187 -281.5t-263 -104z" />
    <glyph glyph-name="uni0184" unicode="&#x184;" horiz-adv-x="1313" 
d="M434 375q0 -75 47 -108.5t157 -33.5t181.5 64.5t71.5 167.5t-57 142.5t-187 39.5h-162l-43 -201q-8 -32 -8 -71zM1200 500q0 -246 -160.5 -383t-445.5 -137q-214 0 -341.5 97.5t-127.5 268.5q0 49 12 105l215 1011h305l-118 -561h155q246 0 376 -102.5t130 -298.5z" />
    <glyph glyph-name="uni0185" unicode="&#x185;" horiz-adv-x="1208" 
d="M680 895q-154 -1 -232 -257q-38 -124 -38 -235q0 -180 137 -180q69 0 127.5 63.5t98.5 188.5t40 240q0 180 -133 180zM1118 720q0 -200 -75 -379t-203 -270t-312 -91t-293.5 107.5t-109.5 301.5q0 87 20 174l211 993h301l-77 -358q-27 -110 -68 -225h12q60 73 98 103
q81 63 185 63q145 0 228 -109.5t83 -309.5z" />
    <glyph glyph-name="uni0186" unicode="&#x186;" horiz-adv-x="1253" 
d="M403.5 238q139.5 0 244.5 82t168 239.5t63 330t-68.5 254t-215 81.5t-341.5 -78v260q201 78 399 78q256 0 396.5 -150.5t140.5 -415.5t-102.5 -487t-278.5 -337t-401 -115q-127 0 -226 23.5t-205 80.5l119 250q168 -96 307.5 -96z" />
    <glyph glyph-name="uni0187" unicode="&#x187;" horiz-adv-x="1253" 
d="M924.5 1227q-151.5 0 -257 -81t-169.5 -239t-64 -331.5t68.5 -254.5t216.5 -81t340 77v-260q-199 -77 -400 -77q-254 0 -395 149.5t-141 417.5t104 488.5t278 335t400 114.5q107 0 201 -21q40 173 117.5 254.5t208.5 81.5q71 0 139 -28v-234q-52 18 -101 18t-78.5 -31
t-48.5 -106l-75 -295q-192 103 -343.5 103z" />
    <glyph glyph-name="uni0188" unicode="&#x188;" horiz-adv-x="989" 
d="M497.5 -20q-192.5 0 -300 107.5t-107.5 311.5t74.5 377.5t209.5 268t308 94.5q40 0 92 -9l19 84q42 188 120.5 270.5t212.5 82.5q75 0 136 -29v-233q-48 18 -103 18q-97 0 -123 -115l-84 -387q-148 74 -245.5 74t-166 -64t-107 -175.5t-38.5 -223.5q0 -209 172 -209
q76 0 141 23.5t134 58.5v-246q-152 -79 -344.5 -79z" />
    <glyph glyph-name="uni0189" unicode="&#x189;" horiz-adv-x="1386" 
d="M518 256q148 0 258 76t172 223.5t62 319.5q0 333 -281 333h-115l-75 -358h237l-55 -254h-238l-71 -340h106zM1323 902.5q0 -273.5 -98 -480t-283.5 -314.5t-437.5 -108h-451l125 596h-141l55 254h139l131 612h396q270 0 417.5 -143t147.5 -416.5z" />
    <glyph glyph-name="uni018A" unicode="&#x18a;" horiz-adv-x="1612" 
d="M743 256q148 0 258 76t172 223.5t62 319.5q0 333 -281 333h-114l-203 -952h106zM1548 902.5q0 -273.5 -98 -480t-283.5 -314.5t-437.5 -108h-450l256 1208h-52q-68 0 -109.5 -45.5t-41.5 -115.5q0 -28 6 -52h-227q-9 29 -9 78q0 182 113.5 285.5t316.5 103.5h451
q270 0 417.5 -143t147.5 -416.5z" />
    <glyph glyph-name="uni018B" unicode="&#x18b;" horiz-adv-x="1212" 
d="M676 647q-138 0 -221.5 -59.5t-83.5 -153.5q0 -180 202 -180h89l83 393h-69zM561 0q-498 0 -498 429q0 216 171 344t466 128h101l63 305h-555l53 256h861l-310 -1462h-352z" />
    <glyph glyph-name="uni018C" unicode="&#x18c;" horiz-adv-x="1217" 
d="M532 223q70 0 129 63.5t98.5 189.5t39.5 220q0 178 -142 178q-69 0 -129.5 -65t-96.5 -176.5t-36 -233.5q0 -176 137 -176zM90 388.5q0 194.5 67 364t184 267.5t275 98t246 -143h8q0 96 54 352h-549l49 229h850l-330 -1556h-229l18 145h-8q-135 -165 -319 -165
q-147 0 -231.5 107t-84.5 301.5z" />
    <glyph glyph-name="uni018D" unicode="&#x18d;" horiz-adv-x="1217" 
d="M879 1143q0 178 -156 178q-103 0 -169.5 -97t-66.5 -243t103 -225q129 44 209 150.5t80 236.5zM872 331q0 -162 -120.5 -256.5t-333.5 -94.5t-398 112l119 215q159 -102 287 -102q67 0 107 32t40 75.5t-11 68t-35.5 51t-123.5 107.5q-233 185 -233 448t158 421.5
t430 158.5q137 0 235.5 -49t150.5 -138t52 -206q0 -204 -124 -349.5t-351 -203.5q151 -128 151 -290z" />
    <glyph glyph-name="uni018E" unicode="&#x18e;" horiz-adv-x="1110" 
d="M47 256h520l80 377h-483l53 254h485l68 321h-520l53 254h817l-309 -1462h-817z" />
    <glyph glyph-name="uni018F" unicode="&#x18f;" horiz-adv-x="1352" 
d="M514 238q285 0 414 358h-154q-193 0 -296 -59.5t-103 -169.5q0 -60 39 -94.5t100 -34.5zM68 356q0 490 800 490h107q4 24 4 65q0 148 -71 231t-230 83t-356 -76v258q179 78 427.5 78t393.5 -148t145 -415.5t-101.5 -488.5t-276.5 -337t-392.5 -116t-333.5 98t-116 278z
" />
    <glyph glyph-name="uni0190" unicode="&#x190;" horiz-adv-x="1221" 
d="M41 367.5q0 182.5 123.5 285t355.5 121.5v8q-137 22 -213 97.5t-76 195t66 212t196.5 144.5t295.5 52t287.5 -38.5t226.5 -119.5l-136 -209q-153 119 -356 119q-270 0 -270 -182q0 -172 358 -172h117l-51 -242h-131q-482 0 -482 -233q0 -183 297 -183q210 0 418 94v-251
q-187 -86 -464 -86t-419.5 102.5t-142.5 285z" />
    <glyph glyph-name="uni0191" unicode="&#x191;" horiz-adv-x="1087" 
d="M-43 -492q-92 0 -162 29v234q49 -19 100 -19q106 0 132 123l335 1587h814l-54 -254h-508l-79 -377h473l-56 -253h-473l-149 -709q-43 -197 -125 -279t-248 -82z" />
    <glyph glyph-name="florin" unicode="&#x192;" horiz-adv-x="1128" 
d="M143 -492q-104 0 -174 25v242q61 -21 115 -21q136 0 172 170l186 881h-168l29 149l189 80l18 84q41 190 138.5 277.5t273.5 87.5q131 0 235 -49l-80 -224q-69 31 -129 31q-116 0 -143 -145l-12 -62h219l-49 -229h-220l-196 -926q-77 -371 -404 -371z" />
    <glyph glyph-name="uni0193" unicode="&#x193;" horiz-adv-x="1413" 
d="M434 575.5q0 -174.5 72.5 -255t222.5 -80.5q76 0 170 24l66 299h-267l56 258h563l-162 -762q-230 -79 -490 -79t-401 147t-141 417.5t105.5 486.5t298.5 335t452 119q90 0 178 -21q40 173 117.5 254.5t208.5 81.5q71 0 139 -28v-234q-52 18 -100.5 18t-78.5 -31t-48 -106
l-76 -295q-202 99 -354.5 99t-273 -83t-189 -236.5t-68.5 -328z" />
    <glyph glyph-name="uni0194" unicode="&#x194;" horiz-adv-x="1208" 
d="M451 -309q45 0 69.5 52.5t24.5 139t-21 168.5q-53 -70 -89 -155t-36 -145t52 -60zM752 -114.5q0 -178.5 -83.5 -278t-242.5 -99.5q-113 0 -182.5 67.5t-69.5 166.5t45.5 204t188.5 310l-234 1206h297l102 -614q30 -186 33 -311q67 184 133 303l344 622h320l-701 -1216
q50 -182 50 -360.5z" />
    <glyph glyph-name="uni0195" unicode="&#x195;" horiz-adv-x="1874" 
d="M1061 365q0 -140 139 -140q86 0 136 65.5t85 227.5l125 600h299l-131 -633q-56 -269 -180 -387t-340 -118t-327 87t-111 255q0 60 20 155l37 176q16 70 16 121q0 121 -106 121q-92 0 -166.5 -111t-114.5 -295l-104 -489h-301l330 1556h301l-68 -317q-33 -138 -78 -270h8
q122 170 312 170q133 0 213 -84t80 -230q0 -49 -13 -116l-45 -228q-16 -70 -16 -116z" />
    <glyph glyph-name="uni0196" unicode="&#x196;" horiz-adv-x="784" 
d="M504 223q55 0 155 35v-225q-111 -53 -262.5 -53t-223 62.5t-71.5 195.5q0 52 23 157l227 1067h305l-229 -1085q-12 -59 -12 -82q0 -72 88 -72z" />
    <glyph glyph-name="uni0197" unicode="&#x197;" horiz-adv-x="784" 
d="M115 858h176l74 346l-152 82l37 176h647l-37 -176l-190 -82l-74 -346h184l-55 -254h-182l-74 -346l156 -82l-37 -176h-647l36 176l187 82l74 346h-179z" />
    <glyph glyph-name="uni0198" unicode="&#x198;" horiz-adv-x="1255" 
d="M1275.5 1485q69.5 0 135.5 -29v-246q-47 19 -96 19q-75 0 -150 -90l-315 -377l291 -762h-338l-211 592l-125 -70l-109 -522h-305l309 1462h306l-154 -706l160 211l192 237q106 131 164 181.5t117 75t128.5 24.5z" />
    <glyph glyph-name="uni0199" unicode="&#x199;" horiz-adv-x="1163" 
d="M666 1571q91 0 153 -31v-233q-51 20 -99 20q-103 0 -126 -117l-74 -348q-11 -57 -48 -175l-13 -44h8l453 475h344l-498 -504l285 -614h-336l-183 420l-120 -72l-74 -348h-301l258 1219q36 176 126 264t245 88z" />
    <glyph glyph-name="uni019A" unicode="&#x19a;" horiz-adv-x="608" 
d="M520 860h160l-49 -229h-160l-133 -631h-301l133 631h-156l49 229h156l148 696h301z" />
    <glyph glyph-name="uni019B" unicode="&#x19b;" horiz-adv-x="1171" 
d="M432 1567q240 0 324 -205l155 49l45 -162l-161 -49l102 -762q15 -115 40.5 -158.5t66 -43.5t75.5 10v-234q-73 -32 -189 -32t-176.5 66t-80.5 206l-29 201q-11 73 -18 239q-23 -48 -48 -110.5t-57 -122.5l-245 -459h-328l612 1061l-6 53l-188 -57l-47 160l192 57
q-31 37 -84.5 37t-110.5 -13l-36 246q87 23 192 23z" />
    <glyph glyph-name="uni019C" unicode="&#x19c;" horiz-adv-x="2036" 
d="M455 -20q-153 0 -243.5 91.5t-90.5 245.5q0 64 14 123l217 1022h305l-206 -977q-13 -56 -13 -104q0 -141 137 -141q210 0 285 340l187 882h305l-207 -977q-12 -54 -12 -100q0 -145 143 -145q102 0 172.5 86.5t114.5 287.5l180 848h303l-309 -1462h-228v156h-16
q-138 -176 -353.5 -176t-293.5 184h-12q-153 -184 -379 -184z" />
    <glyph glyph-name="uni019D" unicode="&#x19d;" horiz-adv-x="1546" 
d="M-43 -492q-86 0 -162 29v234q49 -19 100 -19q106 0 132 123l335 1587h357l340 -1077h8q35 223 68 385l147 692h274l-309 -1462h-342l-356 1106h-10l-8 -59q-27 -214 -58 -359l-172 -819q-40 -191 -118 -276t-226 -85z" />
    <glyph glyph-name="uni019E" unicode="&#x19e;" horiz-adv-x="1237" 
d="M829 772q0 123 -108 123q-92 0 -167 -114t-118 -318l-98 -463h-301l237 1118h228l-21 -207h8q146 228 355 228q138 0 213.5 -83.5t75.5 -238.5q0 -73 -23 -180l-238 -1129h-301l242 1145q16 68 16 119z" />
    <glyph glyph-name="uni019F" unicode="&#x19f;" horiz-adv-x="1495" 
d="M872 1227q-120 0 -222 -91.5t-163 -256.5h633l2 51q0 139 -65 218t-185 79zM692 240q125 0 231 100.5t158 280.5h-645q-4 -28 -4 -84q0 -147 67.5 -222t192.5 -75zM1432 926q0 -271 -99 -494.5t-271 -337.5t-412 -114t-383.5 147.5t-143.5 411t99 486t273 341.5
t415.5 119t381.5 -144t140 -415z" />
    <glyph glyph-name="Ohorn" unicode="&#x1a0;" horiz-adv-x="1581" 
d="M434 557q0 -317 254 -317q121 0 220.5 87t155.5 246t56 357q0 142 -65 219.5t-184.5 77.5t-220.5 -91.5t-158.5 -251.5t-57.5 -327zM1432 938q0 -283 -99 -506.5t-271 -337.5t-412 -114t-383.5 147.5t-143.5 411t99 486t273 341.5t402 119q306 0 444 -207q112 74 144 278
h303l10 -24q-47 -159 -140.5 -263.5t-244.5 -162.5q19 -84 19 -168z" />
    <glyph glyph-name="ohorn" unicode="&#x1a1;" horiz-adv-x="1317" 
d="M805 696q0 197 -143 197q-75 0 -134.5 -61t-97 -179t-37.5 -243q0 -185 150 -185q75 0 135 61.5t93.5 171t33.5 238.5zM684 1139q219 0 334 -146q68 27 110 96t64 197h295l10 -24q-48 -180 -140.5 -278.5t-262.5 -158.5q14 -51 14 -129q0 -211 -70.5 -374t-203.5 -252.5
t-322 -89.5t-305.5 117.5t-116.5 321.5t71.5 370.5t206.5 258t316 91.5z" />
    <glyph glyph-name="uni01A2" unicode="&#x1a2;" horiz-adv-x="2224" 
d="M418 557q0 -317 254 -317q121 0 221 88.5t155.5 246t55.5 355.5q0 142 -65 219.5t-184.5 77.5t-220.5 -91.5t-158.5 -251.5t-57.5 -327zM881 1485q286 0 426 -185q112 104 207.5 144.5t205.5 40.5q167 0 273 -101.5t106 -267.5q0 -51 -18 -143l-207 -973h-297l209 979
q10 44 10 82q0 80 -45 123t-119 43q-140 0 -241 -99q24 -89 24 -190q0 -280 -96.5 -502t-268.5 -339t-414.5 -117t-386 147.5t-143.5 411.5t99.5 487t274 341t401.5 118z" />
    <glyph glyph-name="uni01A3" unicode="&#x1a3;" horiz-adv-x="1827" 
d="M805 696q0 197 -143 197q-75 0 -134.5 -61t-97 -179t-37.5 -243q0 -185 150 -185q75 0 135 61.5t93.5 171t33.5 238.5zM1108 696q0 -211 -70.5 -374t-203.5 -252.5t-322 -89.5t-305.5 117.5t-116.5 321.5t71.5 370.5t206.5 258t316 91.5q225 0 340 -154q79 79 159 116.5
t187 37.5q162 0 257 -91t95 -245q0 -68 -20 -156l-240 -1139h-301l242 1145q14 68 14 101q0 141 -143 141q-96 0 -180 -72q14 -49 14 -127z" />
    <glyph glyph-name="uni01A4" unicode="&#x1a4;" horiz-adv-x="1475" 
d="M872 774q141 0 223.5 68.5t82.5 185.5q0 180 -195 180h-143l-92 -434h124zM995 1462q490 0 490 -426q0 -241 -169.5 -378.5t-467.5 -137.5h-156l-108 -520h-305l256 1208h-52q-68 0 -109.5 -45.5t-41.5 -115.5q0 -28 6 -52h-227q-9 29 -9 78q0 182 113.5 285.5
t316.5 103.5h463z" />
    <glyph glyph-name="uni01A5" unicode="&#x1a5;" horiz-adv-x="1219" 
d="M420 399q0 -176 139 -176q71 0 132.5 69.5t96.5 186t35 222.5q0 194 -141 194q-71 0 -130 -65t-95.5 -184.5t-36.5 -246.5zM812 1139q151 0 233.5 -106.5t82.5 -303.5t-69 -379t-182 -276t-250 -94q-178 0 -271 163h-8q-12 -159 -43 -295l-72 -340h-301l363 1711
q36 176 126 264t245 88q91 0 153 -31v-233q-50 20 -102 20q-95 0 -121 -102q-44 -172 -74 -256h8q131 170 282 170z" />
    <glyph glyph-name="uni01A6" unicode="&#x1a6;" horiz-adv-x="1247" 
d="M565 608q130 0 203.5 57.5t73.5 174.5q0 164 -197 164h-74l-84 -396h78zM678 1257q475 0 475 -401q0 -156 -83 -271t-239 -169l261 -621h-332l-207 561h-119l-76 -356h-305l309 1462h306l-43 -205h53z" />
    <glyph glyph-name="uni01A7" unicode="&#x1a7;" horiz-adv-x="1085" 
d="M801 1104q0 121 -176 121q-93 0 -289 -84l-86 239q228 103 423 103t309 -102t114 -267q0 -226 -175 -352q-88 -64 -269.5 -134t-225.5 -100q-88 -61 -88 -139q0 -153 182 -153q81 0 159.5 17t227.5 77v-258q-190 -92 -408 -92t-338 101t-120 277q0 340 377 478
q116 42 178 65.5t108 51.5q98 60 97 151z" />
    <glyph glyph-name="uni01A8" unicode="&#x1a8;" horiz-adv-x="969" 
d="M647 840q0 73 -125 73q-92 0 -220 -51l-69 -28l-75 215q199 90 389 90t291.5 -77t101.5 -214q0 -186 -139 -282q-70 -48 -202.5 -93.5t-183 -69t-72 -46t-21.5 -58.5q0 -96 152 -96t329 86v-230q-102 -46 -184 -62.5t-181 -16.5q-195 0 -302 84t-107 226.5t85 231.5
t278 152t233 106q22 24 22 60z" />
    <glyph glyph-name="uni01A9" unicode="&#x1a9;" horiz-adv-x="1112" 
d="M-43 0l49 242l543 506l-322 481l49 233h906l-54 -254h-559l318 -481l-500 -471h596l-53 -256h-973z" />
    <glyph glyph-name="uni01AA" unicode="&#x1aa;" horiz-adv-x="694" 
d="M207 1311q0 -78 100 -78h39q16 84 16 107t-19 41t-51.5 18t-58.5 -22.5t-26 -65.5zM363 -492q-150 0 -233 71.5t-83 201.5q0 56 12 110l252 1184h-14q-117 0 -185.5 60.5t-68.5 176t84 185.5t223 70t217 -65.5t78 -184.5q0 -57 -14 -117l-281 -1321q-4 -19 -4 -41
q0 -86 109 -86q76 0 176 35v-227q-118 -52 -268 -52z" />
    <glyph glyph-name="uni01AB" unicode="&#x1ab;" horiz-adv-x="840" 
d="M426 297q0 -74 84 -74t215 35l-86 -410q-38 -181 -118 -260.5t-214 -79.5q-81 0 -151 27v213q45 -18 104 -18q110 0 135 120l27 130h-12q-150 0 -220.5 63t-70.5 195q0 50 12 112l115 539h-152l29 147l196 84l132 236h194l-49 -238h283l-50 -229h-282l-115 -539
q-6 -30 -6 -53z" />
    <glyph glyph-name="uni01AC" unicode="&#x1ac;" horiz-adv-x="1180" 
d="M483 1204q-71 0 -111 -42.5t-40 -114.5q0 -28 6 -52h-227q-9 29 -9 78q0 182 113.5 285.5t316.5 103.5h793l-55 -258h-352l-254 -1204h-306l254 1204h-129z" />
    <glyph glyph-name="uni01AD" unicode="&#x1ad;" horiz-adv-x="840" 
d="M514 223q65 0 162 35v-225q-112 -53 -264 -53t-222.5 63t-70.5 195q0 50 12 112l115 539h-152l29 147l176 76l25 105q41 183 132.5 266.5t252.5 83.5q106 0 184 -33v-234q-69 25 -135 25t-98.5 -29.5t-45.5 -89.5l-18 -88h283l-50 -229h-282l-115 -539q-6 -30 -6 -53
q0 -74 88 -74z" />
    <glyph glyph-name="uni01AE" unicode="&#x1ae;" horiz-adv-x="1087" 
d="M522 -492q-134 0 -214.5 69.5t-80.5 195.5q0 50 13 104l280 1327h-352l55 258h1010l-55 -258h-353l-278 -1319q-6 -28 -6 -51q0 -82 84 -82q59 0 110 21v-234q-79 -31 -213 -31z" />
    <glyph glyph-name="Uhorn" unicode="&#x1af;" horiz-adv-x="1587" 
d="M596 -20q-212 0 -333.5 113.5t-121.5 307.5q0 72 15 138l196 923h305l-194 -919q-17 -74 -17 -125q0 -178 189 -178q123 0 195 76.5t104 228.5l194 917h306l-39 -184q76 24 118 86.5t62 191.5h303l10 -24q-60 -204 -197 -316.5t-337 -125.5l-121 -574q-57 -266 -218 -401
t-419 -135z" />
    <glyph glyph-name="uhorn" unicode="&#x1b0;" horiz-adv-x="1456" 
d="M410 346q0 -123 108 -123q92 0 167 114t118 318l98 463h301l-24 -112q96 26 140 124q22 48 42 154h303l10 -24q-58 -201 -194 -314t-340 -129l-174 -817h-228l21 207h-8q-145 -227 -355 -227q-137 0 -213 82.5t-76 238.5q0 68 29 213l127 604h301l-137 -653
q-16 -68 -16 -119z" />
    <glyph glyph-name="uni01B1" unicode="&#x1b1;" horiz-adv-x="1483" 
d="M672.5 236q120.5 0 210.5 65.5t143 190.5q53 126 53 268q0 277 -155 426l59 276h610l-53 -260h-373q104 -67 161.5 -186.5t57.5 -272.5q0 -223 -93 -401.5t-257 -271.5t-379 -93q-257 0 -401.5 139.5t-144.5 383.5t108.5 424t308.5 278h-364l55 260h649l-59 -276
q-387 -226 -387 -651q0 -142 65 -220.5t185.5 -78.5z" />
    <glyph glyph-name="uni01B2" unicode="&#x1b2;" horiz-adv-x="1270" 
d="M1051 1161q0 66 -72 66q-54 0 -92 -19v240q80 35 193 35t190.5 -67.5t77.5 -188.5q0 -81 -28.5 -163.5t-109.5 -215.5l-512 -848h-315l-199 1462h291l100 -870q9 -75 11 -241l-2 -81q17 55 71.5 165.5t79.5 148.5l207 342q109 179 109 235z" />
    <glyph glyph-name="uni01B3" unicode="&#x1b3;" horiz-adv-x="1225" 
d="M350 1485q200 0 258 -246l88 -369l375 592h342l-618 -903l-119 -559h-303l119 557l-117 473q-37 147 -75 181q-20 18 -58 18t-78 -19v240q85 35 186 35z" />
    <glyph glyph-name="uni01B4" unicode="&#x1b4;" horiz-adv-x="1143" 
d="M1066 1139q96 0 179 -27l-43 -240q-35 11 -79 11t-87.5 -46t-99.5 -151l-451 -846q-177 -332 -479 -332q-90 0 -147 19v240q68 -13 134 -13q142 0 247 197l26 49l-164 1118h295l56 -518q12 -105 12 -293h8l23 68q41 123 84 207l155 297q134 260 331 260z" />
    <glyph glyph-name="uni01B5" unicode="&#x1b5;" horiz-adv-x="1098" 
d="M150 850h329l275 356h-543l53 256h936l-41 -202l-319 -410h198l-55 -254h-342l-264 -340h596l-53 -256h-981l38 201l306 395h-189z" />
    <glyph glyph-name="uni01B6" unicode="&#x1b6;" horiz-adv-x="932" 
d="M748 0h-795l35 180l237 291h-151l43 199h270l176 215h-397l51 233h750l-43 -200l-205 -248h153l-43 -199h-274l-197 -238h439z" />
    <glyph glyph-name="uni01B7" unicode="&#x1b7;" horiz-adv-x="1137" 
d="M1010 473q0 -234 -165.5 -363.5t-459.5 -129.5q-242 0 -389 79v263q75 -42 182.5 -70.5t181.5 -28.5q160 0 249 64t89 170.5t-64 151t-194 44.5h-153l45 205l379 348h-463l55 256h858l-43 -196l-469 -422q171 -19 266 -113t95 -258z" />
    <glyph glyph-name="uni01B8" unicode="&#x1b8;" horiz-adv-x="1137" 
d="M373 414q0 -189 285 -189q150 0 364 92v-256q-185 -81 -432 -81t-388 110.5t-141 310.5t146 319.5t424 131.5l-350 412l41 198h919l-53 -256h-549l307 -348l-47 -217h-108q-418 0 -418 -227z" />
    <glyph glyph-name="uni01B9" unicode="&#x1b9;" horiz-adv-x="1124" 
d="M725 285q-219 0 -337 -80.5t-118 -227.5q0 -103 69 -163t205 -60t341 88v-252q-114 -47 -203.5 -64.5t-223.5 -17.5t-253.5 57t-183.5 162t-64 238q0 225 160 370.5t442 170.5l-326 416l43 196h879l-51 -233h-535l310 -383l-48 -217h-106z" />
    <glyph glyph-name="uni01BA" unicode="&#x1ba;" horiz-adv-x="1087" 
d="M655 627q301 -51 301 -315q0 -130 -90.5 -247.5t-509.5 -158.5q-105 -10 -145.5 -32t-40.5 -60q0 -80 180 -80t414 80v-226q-203 -80 -455 -80q-180 0 -285.5 76t-105.5 217q0 319 453 359q163 16 222.5 50t59.5 96t-66.5 82t-197.5 20h-133l43 204l319 273h-432l52 233
h829l-43 -196z" />
    <glyph glyph-name="uni01BB" unicode="&#x1bb;" horiz-adv-x="1126" 
d="M723 1567q189 0 300.5 -100t111.5 -275q0 -94 -41.5 -181.5t-110.5 -152.5h139l-43 -199h-274l-395 -389v-10h579l-53 -260h-983l43 213l457 446h-336l43 199h491q174 162 174 297q0 154 -151 154q-66 0 -135.5 -33.5t-171.5 -118.5l-146 203q239 207 502 207z" />
    <glyph glyph-name="uni01BC" unicode="&#x1bc;" horiz-adv-x="1143" 
d="M383 -20q-252 0 -383 83v263q69 -41 171.5 -68t197.5 -27q172 0 269 70.5t97 200.5q0 91 -64 132.5t-200 41.5h-229l118 528h-161l55 258h950l-55 -258h-494l-65 -270h22q202 0 318.5 -110.5t116.5 -297.5q0 -268 -169.5 -407t-494.5 -139z" />
    <glyph glyph-name="uni01BD" unicode="&#x1bd;" horiz-adv-x="1096" 
d="M565 690q193 0 299.5 -77.5t106.5 -217.5q0 -204 -146.5 -309.5t-439.5 -105.5q-104 0 -212 20t-173 55v246q69 -37 169.5 -61.5t184.5 -24.5q312 0 312 154q0 58 -65 83t-200 25h-186l90 412h-168l49 229h901l-49 -229h-458l-45 -199h30z" />
    <glyph glyph-name="uni01BE" unicode="&#x1be;" horiz-adv-x="967" 
d="M276 702q0 62 27 187h-188l28 147l197 84l131 236h195l-50 -238h283l-49 -229h-275q-22 -99 -22 -123q0 -64 68 -113q97 -71 135 -111q80 -86 80 -192q0 -178 -124 -274t-357 -96t-355 69v242q157 -88 319 -88q224 0 224 131q0 46 -82 105q-110 76 -147.5 138.5
t-37.5 124.5z" />
    <glyph glyph-name="uni01BF" unicode="&#x1bf;" horiz-adv-x="1219" 
d="M823 709.5q0 185.5 -133 185.5q-165 0 -246 -393l-59 -281q198 28 318 165.5t120 323zM817 1139q141 0 226 -107.5t85 -308.5t-92 -366t-272.5 -268t-433.5 -128l-97 -453h-301l342 1610h230l-17 -170h9q137 191 321 191z" />
    <glyph glyph-name="uni01C0" unicode="&#x1c0;" horiz-adv-x="1057" 
d="M418 1556h219v-2048h-219v2048z" />
    <glyph glyph-name="uni01C1" unicode="&#x1c1;" horiz-adv-x="1057" 
d="M684 1556h219v-2048h-219v2048zM155 1556h219v-2048h-219v2048z" />
    <glyph glyph-name="uni01C2" unicode="&#x1c2;" horiz-adv-x="1057" 
d="M418 248h-316v198h316v230h-316v198h316v682h219v-682h317v-198h-317v-230h317v-198h-317v-740h-219v740z" />
    <glyph glyph-name="uni01C3" unicode="&#x1c3;" horiz-adv-x="586" 
d="M214 313q164 0 165 -154q0 -78 -55 -132t-144 -54q-155 -1 -155 153q-1 78 53 133q54 54 136 54zM391 485h-241l157 977h340z" />
    <glyph glyph-name="uni01C4" unicode="&#x1c4;" horiz-adv-x="2484" 
d="M518 256q148 0 258 76t172 223.5t62 319.5q0 333 -281 333h-115l-202 -952h106zM1323 902.5q0 -273.5 -98 -480t-283.5 -314.5t-437.5 -108h-451l309 1462h396q270 0 417.5 -143t147.5 -416.5zM2306 0h-981l38 201l777 1005h-543l53 256h936l-41 -202l-782 -1004h596z
M1774 1907h198q63 -53 162 -168q115 94 232 168h217v-25q-212 -198 -295 -303h-338q-49 120 -176 303v25z" />
    <glyph glyph-name="uni01C5" unicode="&#x1c5;" horiz-adv-x="2318" 
d="M518 256q148 0 258 76t172 223.5t62 319.5q0 333 -281 333h-115l-202 -952h106zM1323 902.5q0 -273.5 -98 -480t-283.5 -314.5t-437.5 -108h-451l309 1462h396q270 0 417.5 -143t147.5 -416.5zM2134 0h-795l35 180l575 705h-397l51 233h750l-43 -200l-566 -685h439z
M1651 1569h198q63 -53 162 -168q115 94 232 168h217v-25q-212 -198 -295 -303h-338q-49 120 -176 303v25z" />
    <glyph glyph-name="uni01C6" unicode="&#x1c6;" horiz-adv-x="2148" 
d="M532 223q70 0 129 63.5t98.5 189.5t39.5 224.5t-37.5 146.5t-104 48t-128 -72t-98 -190t-36.5 -234q0 -176 137 -176zM90 388.5q0 194.5 71.5 373t188.5 278t258 99.5q82 0 141.5 -37t112.5 -127h8l2 28q6 110 25 195l76 358h301l-330 -1556h-229l18 145h-8
q-135 -165 -319 -165q-147 0 -231.5 107t-84.5 301.5zM1965 0h-795l35 180l575 705h-397l51 233h750l-43 -200l-566 -685h439zM1481 1569h198q63 -53 162 -168q115 94 232 168h217v-25q-212 -198 -295 -303h-338q-49 120 -176 303v25z" />
    <glyph glyph-name="uni01C7" unicode="&#x1c7;" horiz-adv-x="1739" 
d="M53 0l309 1462h306l-256 -1206h512l-54 -256h-817zM926 -430q-94 0 -187 27v253q87 -20 175 -20q185 0 239 252l293 1380h305l-303 -1423q-52 -245 -175.5 -357t-346.5 -112z" />
    <glyph glyph-name="uni01C8" unicode="&#x1c8;" horiz-adv-x="1669" 
d="M53 0l309 1462h306l-256 -1206h512l-54 -256h-817zM1567 1556q149 0 149 -120q0 -80 -44 -129.5t-136 -49.5q-151 0 -151 123q0 87 47.5 131.5t134.5 44.5zM971 -492q-104 0 -174 25v242q61 -21 114 -21q137 0 173 170l253 1194h302l-265 -1239q-77 -371 -403 -371z" />
    <glyph glyph-name="uni01C9" unicode="&#x1c9;" horiz-adv-x="1217" 
d="M338 0h-301l330 1556h301zM1114 1556q149 0 149 -120q0 -80 -44 -129.5t-136 -49.5q-151 0 -151 123q0 87 47.5 131.5t134.5 44.5zM518 -492q-104 0 -174 25v242q61 -21 114 -21q137 0 173 170l253 1194h302l-265 -1239q-77 -371 -403 -371z" />
    <glyph glyph-name="uni01CA" unicode="&#x1ca;" horiz-adv-x="2224" 
d="M1247 0h-342l-356 1106h-10l-8 -59q-27 -214 -58 -359l-145 -688h-275l309 1462h357l340 -1077h8q35 223 68 385l147 692h274zM1411 -430q-94 0 -187 27v253q88 -20 176 -20q185 0 238 252l293 1380h305l-303 -1423q-52 -245 -175.5 -357t-346.5 -112z" />
    <glyph glyph-name="uni01CB" unicode="&#x1cb;" horiz-adv-x="2154" 
d="M1247 0h-342l-356 1106h-10l-8 -59q-27 -214 -58 -359l-145 -688h-275l309 1462h357l340 -1077h8q35 223 68 385l147 692h274zM2052 1556q149 0 149 -120q0 -80 -44 -129.5t-136 -49.5q-151 0 -151 123q0 87 47.5 131.5t134.5 44.5zM1456 -492q-104 0 -174 25v242
q61 -21 114 -21q137 0 173 170l253 1194h302l-265 -1239q-77 -371 -403 -371z" />
    <glyph glyph-name="uni01CC" unicode="&#x1cc;" horiz-adv-x="1845" 
d="M829 772q0 123 -108 123q-92 0 -167 -114t-118 -318l-98 -463h-301l237 1118h230l-21 -207h9q146 228 352 228q138 0 213.5 -83.5t75.5 -238.5q0 -73 -23 -180l-133 -637h-301l137 653q16 68 16 119zM1743 1556q149 0 149 -120q0 -80 -44 -129.5t-136 -49.5
q-151 0 -151 123q0 87 47.5 131.5t134.5 44.5zM1147 -492q-104 0 -174 25v242q61 -21 114 -21q137 0 173 170l253 1194h302l-265 -1239q-77 -371 -403 -371z" />
    <glyph glyph-name="uni01CD" unicode="&#x1cd;" horiz-adv-x="1286" 
d="M827 608l-26 350l-5 133l-3 156h-5q-54 -147 -106 -254l-188 -385h333zM842 348h-473l-172 -348h-320l766 1468h373l147 -1468h-297zM502 1934h198q63 -53 162 -168q115 94 232 168h217v-25q-212 -198 -295 -303h-338q-49 120 -176 303v25z" />
    <glyph glyph-name="uni01CE" unicode="&#x1ce;" horiz-adv-x="1217" 
d="M395 399q0 -176 129 -176q69 0 133 67t103 181.5t39 259.5q0 71 -38.5 117.5t-104 46.5t-127 -72t-98 -190t-36.5 -234zM608 1139q197 0 277 -164h8l57 143h232l-238 -1118h-225l14 145h-8q-134 -165 -319 -165q-147 0 -231.5 106.5t-84.5 301.5t72 374.5t189 278
t257 98.5zM391 1569h198q63 -53 162 -168q115 94 232 168h217v-25q-212 -198 -295 -303h-338q-49 120 -176 303v25z" />
    <glyph glyph-name="uni01CF" unicode="&#x1cf;" horiz-adv-x="784" 
d="M588 0h-647l36 176l187 82l201 946l-152 82l37 176h647l-37 -176l-190 -82l-201 -946l156 -82zM241 1934h198q63 -53 162 -168q115 94 232 168h217v-25q-212 -198 -295 -303h-338q-49 120 -176 303v25z" />
    <glyph glyph-name="uni01D0" unicode="&#x1d0;" horiz-adv-x="608" 
d="M338 0h-301l237 1118h301zM99 1569h198q63 -53 162 -168q115 94 232 168h217v-25q-212 -198 -295 -303h-338q-49 120 -176 303v25z" />
    <glyph glyph-name="uni01D1" unicode="&#x1d1;" horiz-adv-x="1495" 
d="M434 557q0 -317 254 -317q121 0 220.5 87t155.5 246t56 357q0 142 -65 219.5t-184.5 77.5t-220.5 -91.5t-158.5 -251.5t-57.5 -327zM1432 926q0 -271 -99 -494.5t-271 -337.5t-412 -114t-383.5 147.5t-143.5 411t99 486t273 341.5t415.5 119t381.5 -144t140 -415z
M580 1934h198q63 -53 162 -168q115 94 232 168h217v-25q-212 -198 -295 -303h-338q-49 120 -176 303v25z" />
    <glyph glyph-name="uni01D2" unicode="&#x1d2;" horiz-adv-x="1198" 
d="M1108 694q0 -209 -70.5 -372t-203.5 -252.5t-322 -89.5t-305.5 117.5t-116.5 321.5t71.5 370.5t206.5 258t323.5 91.5t302.5 -118t114 -327zM805 696q0 197 -143 197q-75 0 -134.5 -61t-97 -179t-37.5 -243q0 -185 150 -185q75 0 135 61.5t93.5 171t33.5 238.5zM376 1569
h198q63 -53 162 -168q115 94 232 168h217v-25q-212 -198 -295 -303h-338q-49 120 -176 303v25z" />
    <glyph glyph-name="uni01D3" unicode="&#x1d3;" horiz-adv-x="1415" 
d="M596 -20q-212 0 -333.5 113.5t-121.5 307.5q0 72 15 138l196 923h305l-194 -919q-17 -74 -17 -125q0 -178 189 -178q123 0 195 76.5t104 228.5l194 917h306l-201 -946q-57 -266 -218 -401t-419 -135zM557 1934h198q63 -53 162 -168q115 94 232 168h217v-25
q-212 -198 -295 -303h-338q-49 120 -176 303v25z" />
    <glyph glyph-name="uni01D4" unicode="&#x1d4;" horiz-adv-x="1237" 
d="M410 346q0 -123 108 -123q92 0 167 114t118 318l98 463h301l-237 -1118h-230l21 207h-11q-145 -227 -350 -227q-138 0 -211 82.5t-73 238.5q0 93 24 213l127 604h301l-137 -653q-16 -68 -16 -119zM393 1569h198q63 -53 162 -168q115 94 232 168h217v-25
q-212 -198 -295 -303h-338q-49 120 -176 303v25z" />
    <glyph glyph-name="uni01D5" unicode="&#x1d5;" horiz-adv-x="1415" 
d="M596 -20q-212 0 -334 114t-121 307q0 72 15 138l196 923h305l-194 -919q-17 -74 -17 -125q0 -178 189 -178q123 0 195 76t104 229l194 917h306l-201 -946q-57 -266 -218 -401t-419 -135zM667 2089h652l-39 -190h-652zM1118 1813q123 0 123 -101q0 -68 -36 -108t-112 -39
q-125 0 -125 100q0 72 40 110t110 38zM739 1813q123 0 123 -101q0 -68 -36 -108t-112 -39q-125 0 -125 100q-1 72 39 110t111 38z" />
    <glyph glyph-name="uni01D6" unicode="&#x1d6;" horiz-adv-x="1237" 
d="M410 346q0 -123 108 -123q92 0 167 114t118 318l98 463h301l-237 -1118h-230l21 207h-11q-145 -227 -350 -227q-138 0 -211 82t-73 239q0 93 24 213l127 604h301l-137 -653q-16 -68 -16 -119zM516 1751h652l-39 -190h-652zM967 1475q123 0 123 -101q0 -68 -36 -108
t-112 -39q-125 0 -125 100q-1 72 39 110t111 38zM588 1475q123 0 123 -101q0 -68 -36 -108t-112 -39q-125 0 -125 100q0 72 40 110t110 38z" />
    <glyph glyph-name="uni01D7" unicode="&#x1d7;" horiz-adv-x="1415" 
d="M596 -20q-212 0 -334 114t-121 307q0 72 15 138l196 923h305l-194 -919q-17 -74 -17 -125q0 -178 189 -178q123 0 195 76t104 229l194 917h306l-201 -946q-57 -266 -218 -401t-419 -135zM1241 1712q0 -147 -140 -147q-116 0 -116 100q1 72 37 110t99 38q120 0 120 -101z
M845 1712q0 -147 -139 -147q-117 0 -117 100q0 72 37 110t105 38q114 0 114 -101zM790 1845v23q84 94 197 274h325v-18q-112 -124 -329 -279h-193z" />
    <glyph glyph-name="uni01D8" unicode="&#x1d8;" horiz-adv-x="1237" 
d="M410 346q0 -123 108 -123q92 0 167 114t118 318l98 463h301l-237 -1118h-230l21 207h-11q-145 -227 -350 -227q-138 0 -211 82t-73 239q0 93 24 213l127 604h301l-137 -653q-16 -68 -16 -119zM1092 1374q0 -147 -140 -147q-116 0 -116 100q0 72 36 110t100 38
q120 0 120 -101zM696 1374q0 -147 -139 -147q-117 0 -117 100q0 72 37 110t105 38q114 0 114 -101zM641 1507v23q84 94 197 274h325v-18q-112 -124 -329 -279h-193z" />
    <glyph glyph-name="uni01D9" unicode="&#x1d9;" horiz-adv-x="1415" 
d="M596 -20q-212 0 -334 114t-121 307q0 72 15 138l196 923h305l-194 -919q-17 -74 -17 -125q0 -178 189 -178q123 0 195 76t104 229l194 917h306l-201 -946q-57 -266 -218 -401t-419 -135zM629 2144h162q69 -50 165 -151q155 105 236 151h182v-20q-224 -188 -297 -266h-268
q-80 142 -180 266v20zM1241 1712q0 -147 -147 -147q-125 0 -125 100q0 72 39 110t110 38q123 0 123 -101zM862 1712q0 -147 -147 -147q-125 0 -125 100q0 72 39 110t110 38q123 0 123 -101z" />
    <glyph glyph-name="uni01DA" unicode="&#x1da;" horiz-adv-x="1237" 
d="M410 346q0 -123 108 -123q92 0 167 114t118 318l98 463h301l-237 -1118h-230l21 207h-11q-145 -227 -350 -227q-138 0 -211 82t-73 239q0 93 24 213l127 604h301l-137 -653q-16 -68 -16 -119zM479 1806h162q69 -50 165 -151q155 105 236 151h182v-20q-224 -188 -297 -266
h-268q-80 142 -180 266v20zM1091 1374q0 -147 -147 -147q-125 0 -125 100q0 72 39 110t110 38q123 0 123 -101zM712 1374q0 -147 -147 -147q-125 0 -125 100q0 72 39 110t110 38q123 0 123 -101z" />
    <glyph glyph-name="uni01DB" unicode="&#x1db;" horiz-adv-x="1415" 
d="M596 -20q-212 0 -334 114t-121 307q0 72 15 138l196 923h305l-194 -919q-17 -74 -17 -125q0 -178 189 -178q123 0 195 76t104 229l194 917h306l-201 -946q-57 -266 -218 -401t-419 -135zM1241 1712q0 -147 -140 -147q-116 0 -116 100q1 72 37 110t99 38q120 0 120 -101z
M845 1712q0 -147 -139 -147q-117 0 -117 100q0 72 37 110t105 38q114 0 114 -101zM655 2142h289q32 -109 121 -272v-25h-177q-182 176 -233 277v20z" />
    <glyph glyph-name="uni01DC" unicode="&#x1dc;" horiz-adv-x="1237" 
d="M410 346q0 -123 108 -123q92 0 167 114t118 318l98 463h301l-237 -1118h-230l21 207h-11q-145 -227 -350 -227q-138 0 -211 82t-73 239q0 93 24 213l127 604h301l-137 -653q-16 -68 -16 -119zM1092 1374q0 -147 -140 -147q-116 0 -116 100q0 72 36 110t100 38
q120 0 120 -101zM696 1374q0 -147 -139 -147q-117 0 -117 100q0 72 37 110t105 38q114 0 114 -101zM506 1804h289q32 -109 121 -272v-25h-177q-182 176 -233 277v20z" />
    <glyph glyph-name="uni01DD" unicode="&#x1dd;" horiz-adv-x="1141" 
d="M609 1139q209 0 325.5 -113.5t116.5 -318t-80.5 -374.5t-222 -261.5t-320.5 -91.5t-278 81.5t-99 223.5q0 186 166.5 287.5t476.5 101.5h51l3 41q0 91 -51.5 143.5t-143 52.5t-162.5 -19t-172 -67v228q181 86 390 86zM340 291q0 -94 96 -94t174 78.5t103 195.5h-45
q-155 0 -241.5 -48.5t-86.5 -131.5z" />
    <glyph glyph-name="uni01DE" unicode="&#x1de;" horiz-adv-x="1286" 
d="M827 608l-26 350l-5 133l-3 156h-5q-54 -147 -106 -254l-188 -385h333zM842 348h-473l-172 -348h-320l766 1468h373l147 -1468h-297zM606 2089h652l-39 -190h-652zM1057 1813q123 0 123 -101q0 -68 -36 -108t-112 -39q-125 0 -125 100q-1 72 39 110t111 38zM678 1813
q123 0 123 -101q0 -68 -36 -108t-112 -39q-125 0 -125 100q0 72 40 110t110 38z" />
    <glyph glyph-name="uni01DF" unicode="&#x1df;" horiz-adv-x="1217" 
d="M395 399q0 -176 129 -176q69 0 133 67q64 68 103 182t39 259q-1 71 -39 117t-104 47q-66 0 -126 -72q-62 -72 -98 -190t-37 -234zM608 1139q197 0 277 -164h8l57 143h232l-238 -1118h-225l14 145h-8q-134 -165 -319 -165q-148 0 -232 106t-84 302q0 194 72 374t189 278
t257 99zM506 1751h652l-39 -190h-652zM957 1475q123 0 123 -101q0 -68 -36 -108t-112 -39q-125 0 -125 100q-1 72 39 110t111 38zM578 1475q123 0 123 -101q0 -68 -36 -108t-112 -39q-125 0 -125 100q0 72 40 110t110 38z" />
    <glyph glyph-name="uni01E0" unicode="&#x1e0;" horiz-adv-x="1286" 
d="M827 608l-26 350l-5 133l-3 156h-5q-54 -147 -106 -254l-188 -385h333zM842 348h-473l-172 -348h-320l766 1468h373l147 -1468h-297zM606 2089h652l-39 -191h-652zM731 1665q0 71 37 109t103 38q112 0 112 -100q0 -147 -137 -147q-115 0 -115 100z" />
    <glyph glyph-name="uni01E1" unicode="&#x1e1;" horiz-adv-x="1217" 
d="M395 399q0 -176 129 -176q69 0 133 67q64 68 103 182t39 259q-1 71 -39 117t-104 47q-66 0 -126 -72q-62 -72 -98 -190t-37 -234zM608 1139q197 0 277 -164h8l57 143h232l-238 -1118h-225l14 145h-8q-134 -165 -319 -165q-148 0 -232 106t-84 302q0 194 72 374t189 278
t257 99zM506 1751h651l-39 -190h-651zM631 1327q1 72 37 110t97 38q118 0 118 -101q0 -147 -138 -147q-114 0 -114 100z" />
    <glyph glyph-name="uni01E2" unicode="&#x1e2;" horiz-adv-x="1833" 
d="M905 608l127 600h-80l-364 -600h317zM1593 0h-817l74 348h-426l-219 -348h-328l922 1462h1104l-54 -254h-512l-67 -321h477l-55 -254h-478l-79 -377h512zM995 1790h619l-45 -211h-619z" />
    <glyph glyph-name="uni01E3" unicode="&#x1e3;" horiz-adv-x="1786" 
d="M1446 827q0 95 -96.5 95t-174.5 -80t-102 -195h45q155 0 241.5 48.5t86.5 131.5zM395 399q0 -176 130 -176q65 0 127.5 69.5t99 186.5t36.5 219q0 198 -135 197q-68 0 -128 -69t-95 -185.5t-35 -241.5zM1038 406q0 -199 238 -199q127 0 291 86v-227q-179 -86 -361 -86
q-109 0 -179.5 27t-117.5 87l-16 -94h-188l14 145h-10q-74 -92 -148 -128.5t-162 -36.5q-146 0 -227.5 109t-81.5 302.5t68.5 369t185 277t258.5 101.5q93 0 156 -37.5t114 -126.5h11l57 143h188l-18 -90q44 49 120.5 80t168.5 31q157 0 246.5 -83.5t89.5 -221.5
q0 -187 -167 -288.5t-476 -101.5h-52l-2 -19v-19zM780 1452h619l-45 -211h-619z" />
    <glyph glyph-name="uni01E4" unicode="&#x1e4;" horiz-adv-x="1413" 
d="M961.5 1223q-149.5 0 -270 -83t-189 -236.5t-68.5 -330.5q0 -354 303 -354q78 0 158 25l18 84h-243l41 198h247l21 99h-266l55 258h563l-76 -357h127l-41 -198h-129l-57 -269q-230 -79 -489 -79t-401 147t-142 417.5t105.5 486.5t298.5 335t431.5 119t430.5 -99
l-115 -251q-163 88 -312.5 88z" />
    <glyph glyph-name="uni01E5" unicode="&#x1e5;" horiz-adv-x="1217" 
d="M395 460q1 -176 143 -175q66 0 124.5 57t97.5 169.5t39 204.5q-1 180 -141 179q-66 0 -128 -64t-98.5 -169.5t-36.5 -201.5zM386.5 -492q-199.5 0 -359.5 72v227q160 -86 348 -86q120 0 194 93h-237l33 157h278l16 76q10 39 35 107l21 57h-8q-122 -156 -316 -156
q-141 0 -221 96t-80 278t70.5 350t188 264t253.5 96q90 0 154.5 -34.5t128.5 -129.5h8l57 143h232l-244 -1147h145l-32 -157h-162q-63 -154 -183 -230t-319.5 -76z" />
    <glyph glyph-name="Gcaron" unicode="&#x1e6;" horiz-adv-x="1413" 
d="M961.5 1223q-149.5 0 -270 -83t-189 -236.5t-68.5 -328t72.5 -255t222.5 -80.5q76 0 170 24l66 299h-267l56 258h563l-162 -762q-230 -79 -490 -79t-401 147t-141 417.5t105.5 486.5t298.5 335t431.5 119t430.5 -99l-115 -251q-163 88 -312.5 88zM553 1907h198
q63 -53 162 -168q115 94 232 168h217v-25q-212 -198 -295 -303h-338q-49 120 -176 303v25z" />
    <glyph glyph-name="gcaron" unicode="&#x1e7;" horiz-adv-x="1217" 
d="M395 416q0 -192 143 -193q67 0 125 64t97 185.5t39 223.5q0 198 -141 199q-67 0 -129.5 -72.5t-98 -187.5t-35.5 -219zM406 -492q-219 0 -379 72v262q160 -86 358.5 -86t252.5 196q28 101 58 198h-8q-72 -94 -143 -132t-154 -38q-139 0 -220 107t-81 300.5t70.5 370.5
t187.5 279t254 102q90 0 154.5 -34.5t128.5 -129.5h8l57 143h232l-244 -1145q-52 -238 -182.5 -351.5t-349.5 -113.5zM327 1569h198q63 -53 162 -168q115 94 232 168h217v-25q-212 -198 -295 -303h-338q-49 120 -176 303v25z" />
    <glyph glyph-name="uni01E8" unicode="&#x1e8;" horiz-adv-x="1255" 
d="M1141 0h-338l-211 592l-125 -70l-109 -522h-305l309 1462h306l-154 -706l156 209l413 497h361l-594 -700zM522 1907h198q63 -53 162 -168q115 94 232 168h217v-25q-212 -198 -295 -303h-338q-49 120 -176 303v25z" />
    <glyph glyph-name="uni01E9" unicode="&#x1e9;" horiz-adv-x="1163" 
d="M920 1118h344l-498 -504l285 -614h-336l-183 420l-120 -72l-74 -348h-301l330 1556h301l-148 -694q-11 -57 -48 -175l-13 -44h8zM471 1948h198q63 -53 162 -168q115 94 232 168h217v-25q-212 -198 -295 -303h-338q-49 120 -176 303v25z" />
    <glyph glyph-name="uni01EA" unicode="&#x1ea;" horiz-adv-x="1495" 
d="M434 557q0 -317 254 -317q121 0 220.5 87t155.5 246t56 357q0 142 -65 219.5t-184.5 77.5t-220.5 -91.5t-158.5 -251.5t-57.5 -327zM602 -250q0 -59 60 -59q44 0 102 18v-176q-84 -25 -175 -25t-150.5 53.5t-59.5 138.5t45 150.5t148 134.5q-190 23 -306 143
q-144 148 -143.5 411t99.5 485.5t273 341.5t415.5 119t381.5 -144t140 -415t-99 -494.5t-271 -337.5q-128 -85 -284 -106q-106 -87 -141 -137.5t-35 -100.5z" />
    <glyph glyph-name="uni01EB" unicode="&#x1eb;" horiz-adv-x="1198" 
d="M438 -250q0 -59 60 -59q44 0 102 18v-176q-84 -25 -175 -25t-150.5 53.5t-59.5 138.5t46 151.5t153 137.5q-124 25 -208 109q-116 118 -116 321.5t71.5 370t206.5 258t323.5 91.5t302.5 -118t114 -327t-70 -372q-70 -162 -204 -252q-97 -66 -222 -84
q-105 -86 -139.5 -136t-34.5 -100zM805 696q0 197 -143 197q-75 0 -134.5 -61t-97 -179t-37.5 -243q0 -185 150 -185q75 0 135 61.5t93.5 171t33.5 238.5z" />
    <glyph glyph-name="uni01EC" unicode="&#x1ec;" horiz-adv-x="1495" 
d="M434 557q0 -317 254 -317q121 0 220.5 87t155.5 246t56 357q0 142 -65 219.5t-184.5 77.5t-220.5 -91.5t-158.5 -251.5t-57.5 -327zM602 -250q0 -59 60 -59q44 0 102 18v-176q-84 -25 -175 -25t-150.5 53.5t-59.5 138.5t45 150.5t148 134.5q-190 23 -306 143
q-144 148 -143.5 411t99.5 485.5t273 341.5t415.5 119t381.5 -144t140 -415t-99 -494.5t-271 -337.5q-128 -85 -284 -106q-106 -87 -141 -137.5t-35 -100.5zM668 1790h619l-45 -211h-619z" />
    <glyph glyph-name="uni01ED" unicode="&#x1ed;" horiz-adv-x="1198" 
d="M438 -250q0 -59 60 -59q44 0 102 18v-176q-84 -25 -175 -25t-150.5 53.5t-59.5 138.5t46 151.5t153 137.5q-124 25 -208 109q-116 118 -116 321.5t71.5 370t206.5 258t323.5 91.5t302.5 -118t114 -327t-70 -372q-70 -162 -204 -252q-97 -66 -222 -84
q-105 -86 -139.5 -136t-34.5 -100zM805 696q0 197 -143 197q-75 0 -134.5 -61t-97 -179t-37.5 -243q0 -185 150 -185q75 0 135 61.5t93.5 171t33.5 238.5zM444 1452h619l-45 -211h-619z" />
    <glyph glyph-name="uni01EE" unicode="&#x1ee;" horiz-adv-x="1137" 
d="M1010 473q0 -234 -165.5 -363.5t-459.5 -129.5q-242 0 -389 79v263q75 -42 182.5 -70.5t181.5 -28.5q160 0 249 64t89 170.5t-64 151t-194 44.5h-153l45 205l379 348h-463l55 256h858l-43 -196l-469 -422q171 -19 266 -113t95 -258zM387 1907h198q63 -53 162 -168
q115 94 232 168h217v-25q-212 -198 -295 -303h-338q-49 120 -176 303v25z" />
    <glyph glyph-name="uni01EF" unicode="&#x1ef;" horiz-adv-x="1120" 
d="M915 84.5q0 -167.5 -77.5 -301.5t-220.5 -206.5t-344 -72.5t-363 80v266q70 -40 165.5 -67t174.5 -27q162 0 257 83.5t95 223.5q0 105 -68 163.5t-192 58.5h-135l45 215l399 385h-485l49 233h854l-41 -196l-481 -449q171 -16 269.5 -118.5t98.5 -270zM298 1569h198
q63 -53 162 -168q115 94 232 168h217v-25q-212 -198 -295 -303h-338q-49 120 -176 303v25z" />
    <glyph glyph-name="uni01F0" unicode="&#x1f0;" horiz-adv-x="608" 
d="M-88 -492q-104 0 -174 25v242q61 -21 118.5 -21t103.5 40t65 130l254 1194h301l-265 -1239q-77 -371 -403 -371zM97 1569h198q63 -53 162 -168q115 94 232 168h217v-25q-212 -198 -295 -303h-338q-49 120 -176 303v25z" />
    <glyph glyph-name="uni01F1" unicode="&#x1f1;" horiz-adv-x="2464" 
d="M518 256q148 0 258 76t172 223.5t62 319.5q0 333 -281 333h-115l-202 -952h106zM1323 902.5q0 -273.5 -98 -480t-283.5 -314.5t-437.5 -108h-451l309 1462h396q270 0 417.5 -143t147.5 -416.5zM2286 0h-981l38 201l777 1005h-543l53 256h936l-41 -202l-782 -1004h596z
" />
    <glyph glyph-name="uni01F2" unicode="&#x1f2;" horiz-adv-x="2318" 
d="M518 256q148 0 258 76t172 223.5t62 319.5q0 333 -281 333h-115l-202 -952h106zM1323 902.5q0 -273.5 -98 -480t-283.5 -314.5t-437.5 -108h-451l309 1462h396q270 0 417.5 -143t147.5 -416.5zM2134 0h-795l35 180l575 705h-397l51 233h750l-43 -200l-566 -685h439z" />
    <glyph glyph-name="uni01F3" unicode="&#x1f3;" horiz-adv-x="2148" 
d="M532 223q70 0 129 63.5t98.5 189.5t39.5 224.5t-37.5 146.5t-104 48t-128 -72t-98 -190t-36.5 -234q0 -176 137 -176zM90 388.5q0 194.5 71.5 373t188.5 278t258 99.5q82 0 141.5 -37t112.5 -127h8l2 28q6 110 25 195l76 358h301l-330 -1556h-229l18 145h-8
q-135 -165 -319 -165q-147 0 -231.5 107t-84.5 301.5zM1965 0h-795l35 180l575 705h-397l51 233h750l-43 -200l-566 -685h439z" />
    <glyph glyph-name="uni01F4" unicode="&#x1f4;" horiz-adv-x="1413" 
d="M961.5 1223q-149.5 0 -270 -83t-189 -236.5t-68.5 -328t72.5 -255t222.5 -80.5q76 0 170 24l66 299h-267l56 258h563l-162 -762q-230 -79 -490 -79t-401 147t-141 417.5t105.5 486.5t298.5 335t431.5 119t430.5 -99l-115 -251q-163 88 -312.5 88zM1341 1907v-17
q-46 -56 -154 -152.5t-194 -158.5h-209v25q79 88 222 303h335z" />
    <glyph glyph-name="uni01F5" unicode="&#x1f5;" horiz-adv-x="1217" 
d="M395 416q0 -192 143 -193q67 0 125 64t97 185.5t39 223.5q0 198 -141 199q-67 0 -129.5 -72.5t-98 -187.5t-35.5 -219zM406 -492q-219 0 -379 72v262q160 -86 358.5 -86t252.5 196q28 101 58 198h-8q-72 -94 -143 -132t-154 -38q-139 0 -220 107t-81 300.5t70.5 370.5
t187.5 279t254 102q90 0 154.5 -34.5t128.5 -129.5h8l57 143h232l-244 -1145q-52 -238 -182.5 -351.5t-349.5 -113.5zM1093 1569v-17q-46 -56 -154 -152.5t-194 -158.5h-209v25q79 88 222 303h335z" />
    <glyph glyph-name="uni01F6" unicode="&#x1f6;" horiz-adv-x="2064" 
d="M1200 360q0 -131 146 -131q93 0 146 63.5t83 209.5l131 616h303l-129 -620q-59 -279 -190 -398.5t-353 -119.5t-334 91.5t-112 258.5q0 66 14 125l37 176h-450l-134 -631h-305l309 1462h306l-121 -573h450l121 573h305l-209 -987q-14 -59 -14 -115z" />
    <glyph glyph-name="uni01F7" unicode="&#x1f7;" horiz-adv-x="1321" 
d="M848 1227q-107 0 -190 -109t-130 -317l-108 -504q161 57 293.5 179.5t208 276t75.5 296.5q0 88 -40 133t-109 45zM965 1485q159 0 249.5 -107.5t90.5 -323t-112.5 -427.5t-326.5 -372t-506 -247l-106 -500h-305l416 1954h247l-12 -188h8q167 211 357 211z" />
    <glyph glyph-name="uni01F8" unicode="&#x1f8;" horiz-adv-x="1546" 
d="M1247 0h-342l-356 1106h-10l-8 -59q-27 -214 -58 -359l-145 -688h-275l309 1462h357l340 -1077h8q35 223 68 385l147 692h274zM633 1907h311q36 -148 115 -303v-25h-184q-166 161 -242 307v21z" />
    <glyph glyph-name="uni01F9" unicode="&#x1f9;" horiz-adv-x="1237" 
d="M829 772q0 123 -108 123q-92 0 -167 -114t-118 -318l-98 -463h-301l237 1118h230l-21 -207h9q146 228 352 228q138 0 213.5 -83.5t75.5 -238.5q0 -73 -23 -180l-133 -637h-301l137 653q16 68 16 119zM462 1569h311q36 -148 115 -303v-25h-184q-166 161 -242 307v21z" />
    <glyph glyph-name="Aringacute" unicode="&#x1fa;" horiz-adv-x="1286" 
d="M768 1149q-43 -111 -96 -217l-174 -342h323l-26 309q-10 85 -15 250h-12zM735 1434.5q0 -70.5 96 -70.5q42 0 69.5 25.5t27.5 70.5t-27.5 70.5t-69.5 25.5t-69 -25.5t-27 -96zM768 1753v14q36 27 102.5 87.5t108.5 107.5h342v-10q-117 -99 -338 -199h-215zM1085 1459
q0 -109 -77 -177l155 -1282h-297l-30 330h-469l-170 -330h-320l731 1346q-24 48 -24 114q0 110 68 174t178 64t182.5 -65t72.5 -174z" />
    <glyph glyph-name="aringacute" unicode="&#x1fb;" horiz-adv-x="1217" 
d="M395 399q0 -176 129 -176q69 0 133 67t103 181.5t39 259.5q0 71 -38.5 117.5t-104.5 46.5t-127 -72t-97.5 -190t-36.5 -234zM608 1139q197 0 277 -164h8l57 143h232l-238 -1118h-225l14 145h-8q-134 -165 -319 -165q-147 0 -231.5 106.5t-84.5 301.5t72 374.5t189 278
t257 98.5zM645 1410q0 -71 96 -71q42 0 69.5 26t27.5 71t-27.5 70.5t-69.5 25.5t-69 -25.5t-27 -96.5zM995 1437q0 -106 -70 -172.5t-183 -66.5t-180.5 65t-67.5 173t67.5 172.5t178.5 64.5t183 -65t72 -171zM1233 1962v-10q-117 -99 -338 -199h-215v14q123 98 211 195h342z
" />
    <glyph glyph-name="AEacute" unicode="&#x1fc;" horiz-adv-x="1833" 
d="M905 608l127 600h-80l-364 -600h317zM1593 0h-817l74 348h-426l-219 -348h-328l922 1462h1104l-54 -254h-512l-67 -321h477l-55 -254h-478l-79 -377h512zM1685 1907v-17q-46 -56 -154 -152t-194 -159h-209v25q79 88 222 303h335z" />
    <glyph glyph-name="aeacute" unicode="&#x1fd;" horiz-adv-x="1786" 
d="M1446 827q0 95 -96 95t-175 -80q-78 -80 -102 -195h45q156 1 242 49t86 131zM395 399q0 -176 130 -176q65 -1 127 69t100 187q36 117 36 219q0 198 -135 197q-68 0 -128 -69q-60 -70 -95 -186t-35 -241zM1038 406q0 -199 238 -199q127 0 291 86v-227q-179 -86 -361 -86
q-110 0 -180 27t-117 87l-16 -94h-188l14 145h-10q-74 -93 -148 -129t-162 -36q-145 0 -227 109t-82 303t68 368q68 176 186 278q116 102 258 101q93 1 156 -37t114 -127h11l57 143h188l-18 -90q44 49 120 80t169 31q157 1 247 -83t89 -222q0 -186 -167 -288t-476 -102h-52
l-2 -19v-19zM1505 1569v-17q-46 -56 -154 -152t-194 -159h-209v25q79 88 222 303h335z" />
    <glyph glyph-name="Oslashacute" unicode="&#x1fe;" horiz-adv-x="1495" 
d="M707 233q109 0 211 89q102 90 158 248t57 360l-5 80l-589 -740q59 -37 168 -37zM870 1233q-126 1 -229 -91t-160 -253t-57 -352q0 -32 8 -101l596 754q-69 43 -158 43zM1432 938q0 -282 -99 -506t-271 -338t-374 -114t-326 71l-108 -137l-154 115l121 151
q-98 138 -98 380t99 464t273 342q174 119 379 119t328 -76l105 131l151 -117l-117 -145q91 -134 91 -340zM1310 1907v-17q-46 -56 -154 -152t-194 -159h-209v25q79 88 222 303h335z" />
    <glyph glyph-name="oslashacute" unicode="&#x1ff;" horiz-adv-x="1198" 
d="M552 215q64 0 124 55t98 167t41 245l-358 -444q31 -23 95 -23zM648 903q-68 0 -130 -57q-62 -56 -97 -172q-36 -116 -36 -248l365 453q-34 24 -102 24zM1108 667q0 -182 -70 -345q-70 -162 -204 -252q-133 -90 -316 -90q-123 0 -225 53l-109 -135l-141 108l119 148
q-72 107 -72 256q0 214 72 380t206 258q135 92 316 91q131 0 227 -56l70 88l145 -110l-84 -105q66 -107 66 -289zM1112 1569v-17q-46 -56 -154 -152t-194 -159h-209v25q79 88 222 303h335z" />
    <glyph glyph-name="uni0200" unicode="&#x200;" horiz-adv-x="1286" 
d="M827 608l-26 350l-5 133l-3 156h-5q-54 -147 -106 -254l-188 -385h333zM842 348h-473l-172 -348h-320l766 1468h373l147 -1468h-297zM733 1907h283q37 -152 114 -303v-25h-155q-166 161 -242 307v21zM352 1907h283q38 -156 115 -303v-25h-156q-166 161 -242 307v21z" />
    <glyph glyph-name="uni0201" unicode="&#x201;" horiz-adv-x="1217" 
d="M395 399q0 -176 129 -176q69 0 133 67t103 181.5t39 259.5q0 71 -38.5 117.5t-104 46.5t-127 -72t-98 -190t-36.5 -234zM608 1139q197 0 277 -164h8l57 143h232l-238 -1118h-225l14 145h-8q-134 -165 -319 -165q-147 0 -231.5 106.5t-84.5 301.5t72 374.5t189 278
t257 98.5zM627 1569h283q37 -152 114 -303v-25h-155q-166 161 -242 307v21zM246 1569h283q38 -156 115 -303v-25h-156q-166 161 -242 307v21z" />
    <glyph glyph-name="uni0202" unicode="&#x202;" horiz-adv-x="1286" 
d="M827 608l-26 350l-5 133l-3 156h-5q-54 -147 -106 -254l-188 -385h333zM842 348h-473l-172 -348h-320l766 1468h373l147 -1468h-297zM878 1917q153 0 238.5 -73t85.5 -199q0 -38 -6 -66h-174q0 65 -36.5 95t-116 30t-129 -27t-66.5 -98h-189q55 338 393 338z" />
    <glyph glyph-name="uni0203" unicode="&#x203;" horiz-adv-x="1217" 
d="M395 399q0 -176 129 -176q69 0 133 67t103 181.5t39 259.5q0 71 -38.5 117.5t-104 46.5t-127 -72t-98 -190t-36.5 -234zM608 1139q197 0 277 -164h8l57 143h232l-238 -1118h-225l14 145h-8q-134 -165 -319 -165q-147 0 -231.5 106.5t-84.5 301.5t72 374.5t189 278
t257 98.5zM774 1579q153 0 238.5 -73t85.5 -199q0 -38 -6 -66h-174q0 65 -36.5 95t-116 30t-129 -27t-66.5 -98h-189q55 338 393 338z" />
    <glyph glyph-name="uni0204" unicode="&#x204;" horiz-adv-x="1110" 
d="M870 0h-817l309 1462h818l-54 -254h-512l-67 -321h477l-55 -254h-477l-80 -377h512zM665 1907h283q37 -152 114 -303v-25h-155q-166 161 -242 307v21zM284 1907h283q38 -156 115 -303v-25h-156q-166 161 -242 307v21z" />
    <glyph glyph-name="uni0205" unicode="&#x205;" horiz-adv-x="1141" 
d="M536 -20q-214 0 -330 113t-116 319.5t82.5 377t223.5 260t318.5 89.5t276.5 -81.5t99 -223.5q0 -187 -167 -288.5t-477 -101.5h-51l-2 -21v-20q0 -91 51.5 -143.5t143 -52.5t162.5 19t172 67v-227q-172 -86 -386 -86zM801 827q0 95 -96.5 95t-174.5 -80t-102 -195h45
q155 0 241.5 48.5t86.5 131.5zM600 1569h283q37 -152 114 -303v-25h-155q-166 161 -242 307v21zM219 1569h283q38 -156 115 -303v-25h-156q-166 161 -242 307v21z" />
    <glyph glyph-name="uni0206" unicode="&#x206;" horiz-adv-x="1110" 
d="M870 0h-817l309 1462h818l-54 -254h-512l-67 -321h477l-55 -254h-477l-80 -377h512zM808 1917q153 0 238.5 -73t85.5 -199q0 -38 -6 -66h-174q0 65 -36.5 95t-116 30t-129 -27t-66.5 -98h-189q55 338 393 338z" />
    <glyph glyph-name="uni0207" unicode="&#x207;" horiz-adv-x="1141" 
d="M536 -20q-214 0 -330 113t-116 319.5t82.5 377t223.5 260t318.5 89.5t276.5 -81.5t99 -223.5q0 -187 -167 -288.5t-477 -101.5h-51l-2 -21v-20q0 -91 51.5 -143.5t143 -52.5t162.5 19t172 67v-227q-172 -86 -386 -86zM801 827q0 95 -96.5 95t-174.5 -80t-102 -195h45
q155 0 241.5 48.5t86.5 131.5zM770 1579q153 0 238.5 -73t85.5 -199q0 -38 -6 -66h-174q0 65 -36.5 95t-116 30t-129 -27t-66.5 -98h-189q55 338 393 338z" />
    <glyph glyph-name="uni0208" unicode="&#x208;" horiz-adv-x="784" 
d="M588 0h-647l36 176l187 82l201 946l-152 82l37 176h647l-37 -176l-190 -82l-201 -946l156 -82zM485 1907h283q37 -152 114 -303v-25h-155q-166 161 -242 307v21zM104 1907h283q38 -156 115 -303v-25h-156q-166 161 -242 307v21z" />
    <glyph glyph-name="uni0209" unicode="&#x209;" horiz-adv-x="608" 
d="M338 0h-301l237 1118h301zM340 1569h283q37 -152 114 -303v-25h-155q-166 161 -242 307v21zM-41 1569h283q38 -156 115 -303v-25h-156q-166 161 -242 307v21z" />
    <glyph glyph-name="uni020A" unicode="&#x20a;" horiz-adv-x="784" 
d="M588 0h-647l36 176l187 82l201 946l-152 82l37 176h647l-37 -176l-190 -82l-201 -946l156 -82zM632 1917q153 0 238.5 -73t85.5 -199q0 -38 -6 -66h-174q0 65 -36.5 95t-116 30t-129 -27t-66.5 -98h-189q55 338 393 338z" />
    <glyph glyph-name="uni020B" unicode="&#x20b;" horiz-adv-x="608" 
d="M338 0h-301l237 1118h301zM485 1579q153 0 238.5 -73t85.5 -199q0 -38 -6 -66h-174q0 65 -36.5 95t-116 30t-129 -27t-66.5 -98h-189q55 338 393 338z" />
    <glyph glyph-name="uni020C" unicode="&#x20c;" horiz-adv-x="1495" 
d="M434 557q0 -317 254 -317q121 0 220.5 87t155.5 246t56 357q0 142 -65 219.5t-184.5 77.5t-220.5 -91.5t-158.5 -251.5t-57.5 -327zM1432 926q0 -271 -99 -494.5t-271 -337.5t-412 -114t-383.5 147.5t-143.5 411t99 486t273 341.5t415.5 119t381.5 -144t140 -415z
M784 1907h283q37 -152 114 -303v-25h-155q-166 161 -242 307v21zM403 1907h283q38 -156 115 -303v-25h-156q-166 161 -242 307v21z" />
    <glyph glyph-name="uni020D" unicode="&#x20d;" horiz-adv-x="1198" 
d="M1108 694q0 -209 -70.5 -372t-203.5 -252.5t-322 -89.5t-305.5 117.5t-116.5 321.5t71.5 370.5t206.5 258t323.5 91.5t302.5 -118t114 -327zM805 696q0 197 -143 197q-75 0 -134.5 -61t-97 -179t-37.5 -243q0 -185 150 -185q75 0 135 61.5t93.5 171t33.5 238.5zM592 1569
h283q37 -152 114 -303v-25h-155q-166 161 -242 307v21zM211 1569h283q38 -156 115 -303v-25h-156q-166 161 -242 307v21z" />
    <glyph glyph-name="uni020E" unicode="&#x20e;" horiz-adv-x="1495" 
d="M434 557q0 -317 254 -317q121 0 220.5 87t155.5 246t56 357q0 142 -65 219.5t-184.5 77.5t-220.5 -91.5t-158.5 -251.5t-57.5 -327zM1432 926q0 -271 -99 -494.5t-271 -337.5t-412 -114t-383.5 147.5t-143.5 411t99 486t273 341.5t415.5 119t381.5 -144t140 -415z
M956 1917q153 0 238.5 -73t85.5 -199q0 -38 -6 -66h-174q0 65 -36.5 95t-116 30t-129 -27t-66.5 -98h-189q55 338 393 338z" />
    <glyph glyph-name="uni020F" unicode="&#x20f;" horiz-adv-x="1198" 
d="M1108 694q0 -209 -70.5 -372t-203.5 -252.5t-322 -89.5t-305.5 117.5t-116.5 321.5t71.5 370.5t206.5 258t323.5 91.5t302.5 -118t114 -327zM805 696q0 197 -143 197q-75 0 -134.5 -61t-97 -179t-37.5 -243q0 -185 150 -185q75 0 135 61.5t93.5 171t33.5 238.5zM751 1579
q153 0 238.5 -73t85.5 -199q0 -38 -6 -66h-174q0 65 -36.5 95t-116 30t-129 -27t-66.5 -98h-189q55 338 393 338z" />
    <glyph glyph-name="uni0210" unicode="&#x210;" horiz-adv-x="1247" 
d="M721 1462q237 0 356 -102t119 -299q0 -158 -83 -271.5t-239 -168.5l261 -621h-332l-207 561h-119l-119 -561h-305l309 1462h359zM885 1044q0 164 -197 164h-74l-84 -395h78q131 0 204 57t73 174zM667 1907h283q37 -152 114 -303v-25h-155q-166 161 -242 307v21zM286 1907
h283q38 -156 115 -303v-25h-156q-166 161 -242 307v21z" />
    <glyph glyph-name="uni0211" unicode="&#x211;" horiz-adv-x="862" 
d="M842 1139q59 0 96 -11l-66 -290q-45 16 -100 16q-116 0 -203.5 -91.5t-124.5 -262.5l-106 -500h-301l237 1118h230l-21 -207h11q145 228 348 228zM514 1569h283q37 -152 114 -303v-25h-155q-166 161 -242 307v21zM133 1569h283q38 -156 115 -303v-25h-156
q-166 161 -242 307v21z" />
    <glyph glyph-name="uni0212" unicode="&#x212;" horiz-adv-x="1247" 
d="M721 1462q237 0 356 -102t119 -299q0 -158 -83 -271.5t-239 -168.5l261 -621h-332l-207 561h-119l-119 -561h-305l309 1462h359zM885 1044q0 164 -197 164h-74l-84 -395h78q131 0 204 57t73 174zM825 1917q153 0 238.5 -73t85.5 -199q0 -38 -6 -66h-174q0 65 -36.5 95
t-116 30t-129 -27t-66.5 -98h-189q55 338 393 338z" />
    <glyph glyph-name="uni0213" unicode="&#x213;" horiz-adv-x="862" 
d="M842 1139q59 0 96 -11l-66 -290q-45 16 -100 16q-116 0 -203.5 -91.5t-124.5 -262.5l-106 -500h-301l237 1118h230l-21 -207h11q145 228 348 228zM665 1579q153 0 238.5 -73t85.5 -199q0 -38 -6 -66h-174q0 65 -36.5 95t-116 30t-129 -27t-66.5 -98h-189q55 338 393 338z
" />
    <glyph glyph-name="uni0214" unicode="&#x214;" horiz-adv-x="1415" 
d="M596 -20q-212 0 -333.5 113.5t-121.5 307.5q0 72 15 138l196 923h305l-194 -919q-17 -74 -17 -125q0 -178 189 -178q123 0 195 76.5t104 228.5l194 917h306l-201 -946q-57 -266 -218 -401t-419 -135zM794 1907h283q37 -152 114 -303v-25h-155q-166 161 -242 307v21z
M413 1907h283q38 -156 115 -303v-25h-156q-166 161 -242 307v21z" />
    <glyph glyph-name="uni0215" unicode="&#x215;" horiz-adv-x="1237" 
d="M410 346q0 -123 108 -123q92 0 167 114t118 318l98 463h301l-237 -1118h-230l21 207h-11q-145 -227 -350 -227q-138 0 -211 82.5t-73 238.5q0 93 24 213l127 604h301l-137 -653q-16 -68 -16 -119zM657 1569h283q37 -152 114 -303v-25h-155q-166 161 -242 307v21z
M276 1569h283q38 -156 115 -303v-25h-156q-166 161 -242 307v21z" />
    <glyph glyph-name="uni0216" unicode="&#x216;" horiz-adv-x="1415" 
d="M596 -20q-212 0 -333.5 113.5t-121.5 307.5q0 72 15 138l196 923h305l-194 -919q-17 -74 -17 -125q0 -178 189 -178q123 0 195 76.5t104 228.5l194 917h306l-201 -946q-57 -266 -218 -401t-419 -135zM950 1917q153 0 238.5 -73t85.5 -199q0 -38 -6 -66h-174
q0 65 -36.5 95t-116 30t-129 -27t-66.5 -98h-189q55 338 393 338z" />
    <glyph glyph-name="uni0217" unicode="&#x217;" horiz-adv-x="1237" 
d="M410 346q0 -123 108 -123q92 0 167 114t118 318l98 463h301l-237 -1118h-230l21 207h-11q-145 -227 -350 -227q-138 0 -211 82.5t-73 238.5q0 93 24 213l127 604h301l-137 -653q-16 -68 -16 -119zM782 1579q153 0 238.5 -73t85.5 -199q0 -38 -6 -66h-174q0 65 -36.5 95
t-116 30t-129 -27t-66.5 -98h-189q55 338 393 338z" />
    <glyph glyph-name="uni0218" unicode="&#x218;" horiz-adv-x="1085" 
d="M946 432q0 -208 -148 -330t-385 -122t-372 90v274q193 -108 358 -108q112 0 175 42t63 119q0 76 -52 134q-25 28 -124 102q-138 99 -194 196t-56 217t62 222q63 102 177 158t263 57q217 0 397 -99l-109 -233q-155 74 -263 74t-161 -45q-53 -44 -53 -112t33 -114t151 -122
q238 -156 238 -400zM557 -125v-20q-72 -135 -227 -308h-180v27q77 157 125 301h282z" />
    <glyph glyph-name="uni0219" unicode="&#x219;" horiz-adv-x="969" 
d="M366 -20q-214 0 -343 65v248q157 -90 319 -90q80 1 131 33t51 82t-37 83q-37 34 -145 94q-108 59 -155 127q-48 68 -48 160q1 170 111 264t313 93q203 0 365 -95l-99 -215q-140 84 -258 84q-57 1 -92 -25t-35 -67t32 -71t138 -83q216 -110 215 -298q-1 -189 -125 -289
t-338 -100zM515 -125v-20q-72 -135 -227 -308h-180v27q77 157 125 301h282z" />
    <glyph glyph-name="uni021A" unicode="&#x21a;" horiz-adv-x="1087" 
d="M571 0h-305l254 1204h-352l55 258h1010l-55 -258h-353zM534 -125v-20q-72 -135 -227 -308h-180v27q77 157 125 301h282z" />
    <glyph glyph-name="uni021B" unicode="&#x21b;" horiz-adv-x="840" 
d="M514 223q65 0 162 35v-225q-111 -53 -263.5 -53t-223 63t-70.5 195q0 50 12 112l115 539h-152l29 147l196 84l132 236h194l-49 -238h283l-50 -229h-282l-115 -539q-6 -30 -6 -53q0 -74 88 -74zM463 -125v-20q-72 -135 -227 -308h-180v27q77 157 125 301h282z" />
    <glyph glyph-name="uni021C" unicode="&#x21c;" horiz-adv-x="1221" 
d="M478 -20q-294 0 -437 79v263q182 -99 375.5 -99t279.5 60.5t86 164.5t-77 147.5t-242 43.5h-141l51 242h127q383 0 383 200q0 72 -47.5 113t-141.5 41q-170 0 -360 -123l-109 209q143 91 268.5 126.5t262.5 35.5t236 -44t153.5 -122t54.5 -174q0 -169 -109.5 -264.5
t-306.5 -108.5v-8q143 -17 226.5 -101t83.5 -215q0 -224 -161 -345t-455 -121z" />
    <glyph glyph-name="uni021D" unicode="&#x21d;" horiz-adv-x="1133" 
d="M682 375q252 -72 252 -348q0 -144 -77 -266.5t-224.5 -187.5t-369.5 -65t-384 80v262q76 -44 178 -70t201 -26q170 0 269.5 81.5t99.5 210t-85 179.5t-253 51h-125l49 230h143q208 0 306 62t98 188q0 137 -205 137q-153 0 -322 -72l-71 221q224 97 483 97
q181 0 293.5 -93.5t112.5 -250.5q0 -317 -367 -408z" />
    <glyph glyph-name="uni021E" unicode="&#x21e;" horiz-adv-x="1434" 
d="M1135 0h-306l134 631h-471l-134 -631h-305l309 1462h306l-121 -573h471l121 573h305zM563 1907h198q63 -53 162 -168q115 94 232 168h217v-25q-212 -198 -295 -303h-338q-49 120 -176 303v25z" />
    <glyph glyph-name="uni021F" unicode="&#x21f;" horiz-adv-x="1237" 
d="M844 1139q138 0 213.5 -83.5t75.5 -238.5q0 -73 -23 -180l-133 -637h-301l137 653q16 68 16 119q0 123 -108 123q-92 0 -167 -114t-118 -318l-98 -463h-301l330 1556h301q-39 -181 -60 -278t-86 -309h8q137 170 314 170zM453 1948h198q63 -53 162 -168q115 94 232 168
h217v-25q-212 -198 -295 -303h-338q-49 120 -176 303v25z" />
    <glyph glyph-name="uni0220" unicode="&#x220;" horiz-adv-x="1503" 
d="M1120 1049q0 178 -178 178q-143 0 -264 -142.5t-166 -357.5l-154 -727h-305l309 1462h256l-26 -235h8q113 142 219.5 200t229.5 58q167 0 274 -108t107 -283q0 -63 -19 -154l-303 -1432h-307l303 1414q16 70 16 127z" />
    <glyph glyph-name="uni0221" unicode="&#x221;" horiz-adv-x="1217" 
d="M395 399q0 -176 140 -176q70 0 128.5 64t97 188.5t38.5 224t-37.5 147.5t-104 48t-128 -72t-98 -190t-36.5 -234zM608 -241q0 112 88 391h-8q-79 -98 -148 -134t-149 -36q-138 0 -219.5 107.5t-81.5 301.5t71.5 372.5t188.5 278t258 99.5q82 0 141.5 -37t112.5 -127h8
l2 28q6 110 25 195l76 358h301l-350 -1652q-13 -48 -13 -80q0 -72 82 -72q56 0 105 19v-232q-75 -31 -203.5 -31t-207.5 69.5t-79 181.5z" />
    <glyph glyph-name="uni0222" unicode="&#x222;" horiz-adv-x="1528" 
d="M767.5 764q-167.5 0 -272 -89t-104.5 -251q0 -103 76 -164t246 -61t268 91t98 257q0 100 -72 158.5t-239.5 58.5zM1393 555q0 -298 -189 -457t-542 -159q-279 0 -431.5 124.5t-152.5 344.5q0 378 373 520q-146 86 -146 258q0 26 2.5 52.5t44.5 223.5h301
q-43 -227 -43 -252q0 -89 63 -137.5t179 -48.5q284 0 344 283l33 155h307l-33 -155q-68 -314 -303 -420q193 -117 193 -332z" />
    <glyph glyph-name="uni0223" unicode="&#x223;" horiz-adv-x="1288" 
d="M690.5 811q-89.5 0 -158.5 -52t-107 -142.5t-38 -189.5t49.5 -150.5t143.5 -51.5q126 0 210 107.5t84 281.5q0 93 -47 145t-136.5 52zM1178 571q0 -277 -166 -434t-459 -157q-212 0 -340.5 119.5t-128.5 318t95.5 336t275.5 202.5q-140 103 -140 273q0 27 3.5 57
t54.5 270h299l-43 -202q-21 -92 -21 -146q0 -151 144 -151q93 0 146 64.5t87 230.5l43 204h303l-43 -204q-70 -337 -309 -430q199 -109 199 -351z" />
    <glyph glyph-name="uni0224" unicode="&#x224;" horiz-adv-x="1098" 
d="M571 -471q-91 0 -151 27v213q44 -19 96 -19t79.5 29.5t41.5 89.5l29 131h-727l38 201l777 1005h-543l53 256h936l-41 -202l-782 -1004h596l-82 -389q-37 -179 -111 -258.5t-209 -79.5z" />
    <glyph glyph-name="uni0225" unicode="&#x225;" horiz-adv-x="932" 
d="M399 -471q-91 0 -151 27v213q43 -19 98 -19q95 0 119 119l29 131h-541l35 180l575 705h-397l51 233h750l-43 -200l-566 -685h439l-78 -366q-39 -181 -112.5 -259.5t-207.5 -78.5z" />
    <glyph glyph-name="uni0226" unicode="&#x226;" horiz-adv-x="1286" 
d="M827 608l-26 350l-5 133l-3 156h-5q-54 -147 -106 -254l-188 -385h333zM842 348h-473l-172 -348h-320l766 1468h373l147 -1468h-297zM881 1894q149 0 149 -120q0 -80 -44 -129.5t-136 -49.5q-151 0 -151 123q0 87 47.5 131.5t134.5 44.5z" />
    <glyph glyph-name="uni0227" unicode="&#x227;" horiz-adv-x="1217" 
d="M395 399q0 -176 129 -176q69 0 133 67t103 181.5t39 259.5q0 71 -38.5 117.5t-104 46.5t-127 -72t-98 -190t-36.5 -234zM608 1139q197 0 277 -164h8l57 143h232l-238 -1118h-225l14 145h-8q-134 -165 -319 -165q-147 0 -231.5 106.5t-84.5 301.5t72 374.5t189 278
t257 98.5zM789 1556q149 0 149 -120q0 -80 -44 -129.5t-136 -49.5q-151 0 -151 123q0 87 47.5 131.5t134.5 44.5z" />
    <glyph glyph-name="uni0228" unicode="&#x228;" horiz-adv-x="1110" 
d="M417 -242q0 72 -141 88l96 154h-319l309 1462h818l-54 -254h-512l-67 -321h477l-55 -254h-477l-80 -377h512l-54 -256h-313l-39 -72q141 -49 141 -171.5t-83 -185.5t-234 -63q-86 0 -152 23v168q63 -23 125 -23q102 0 102 82z" />
    <glyph glyph-name="uni0229" unicode="&#x229;" horiz-adv-x="1141" 
d="M801 827q0 95 -96.5 95t-174.5 -80t-102 -195h45q155 0 241.5 48.5t86.5 131.5zM450 -242q0 72 -141 88l92 147q-118 25 -195 100q-116 113 -116 319.5t82.5 377t223.5 260t318.5 89.5t276.5 -81.5t99 -223.5q0 -187 -167 -288.5t-477 -101.5h-51l-2 -21v-20
q0 -91 51.5 -143.5t143 -52.5t162.5 19t172 67v-227q-153 -76 -342 -85l-29 -53q141 -49 141 -171.5t-83 -185.5t-234 -63q-86 0 -152 23v168q63 -23 125 -23q102 0 102 82z" />
    <glyph glyph-name="uni022A" unicode="&#x22a;" horiz-adv-x="1495" 
d="M434 557q0 -317 254 -317q120 0 220 87t156 246t56 357q0 142 -65 220t-185 77q-120 1 -220 -91t-158 -252t-58 -327zM1432 926q0 -270 -99 -494t-271 -338t-412 -114t-384 148t-143 410q0 264 99 486t273 342q173 119 415 119t382 -144t140 -415zM682 2089h652l-39 -190
h-652zM1133 1813q123 0 123 -101q0 -68 -36 -108t-112 -39q-125 0 -125 100q-1 72 39 110t111 38zM754 1813q123 0 123 -101q0 -68 -36 -108t-112 -39q-125 0 -125 100q0 72 40 110t110 38z" />
    <glyph glyph-name="uni022B" unicode="&#x22b;" horiz-adv-x="1198" 
d="M1108 694q0 -209 -70 -372q-70 -162 -204 -252q-133 -90 -322 -90q-190 0 -306 118t-116 321q0 205 72 371t206 258q136 92 324 91q188 0 302 -118t114 -327zM805 696q0 197 -143 197q-74 0 -134 -61t-98 -179t-37 -243q0 -185 150 -185q75 -1 135 61t94 172t33 238z
M477 1751h652l-39 -190h-652zM928 1475q123 0 123 -101q0 -68 -36 -108t-112 -39q-125 0 -125 100q0 72 40 110t110 38zM549 1475q123 0 123 -101q0 -68 -36 -108t-112 -39q-125 0 -125 100q-1 72 39 110t111 38z" />
    <glyph glyph-name="uni022C" unicode="&#x22c;" horiz-adv-x="1495" 
d="M434 557q0 -317 254 -317q120 0 220 87t156 246t56 357q0 142 -65 220t-185 77q-120 1 -220 -91t-158 -252t-58 -327zM1432 926q0 -270 -99 -494t-271 -338t-412 -114t-384 148t-143 410q0 264 99 486t273 342q173 119 415 119t382 -144t140 -415zM816 1669
q-32 -1 -58 -27t-37 -63h-133q24 114 87 175t141 61q78 1 162 -45q32 -18 60 -32t54 -14q63 0 96 91h129q-57 -236 -237 -236q-65 0 -121 31q-57 31 -83 45t-60 14zM701 2089h651l-39 -190h-651z" />
    <glyph glyph-name="uni022D" unicode="&#x22d;" horiz-adv-x="1198" 
d="M1108 694q0 -209 -70 -372q-70 -162 -204 -252q-133 -90 -322 -90q-190 0 -306 118t-116 321q0 205 72 371t206 258q136 92 324 91q188 0 302 -118t114 -327zM805 696q0 197 -143 197q-74 0 -134 -61t-98 -179t-37 -243q0 -185 150 -185q75 -1 135 61t94 172t33 238z
M584 1330q-32 0 -58 -26t-37 -64h-133q24 114 87 175t141 61t162 -46q32 -18 60 -31q28 -14 54 -14q63 0 96 91h129q-57 -236 -237 -236q-65 0 -121 31q-57 31 -83 45t-60 14zM469 1750h651l-39 -190h-651z" />
    <glyph glyph-name="uni022E" unicode="&#x22e;" horiz-adv-x="1495" 
d="M434 557q0 -317 254 -317q121 0 220.5 87t155.5 246t56 357q0 142 -65 219.5t-184.5 77.5t-220.5 -91.5t-158.5 -251.5t-57.5 -327zM1432 926q0 -271 -99 -494.5t-271 -337.5t-412 -114t-383.5 147.5t-143.5 411t99 486t273 341.5t415.5 119t381.5 -144t140 -415z
M1002 1894q149 0 149 -120q0 -80 -44 -129.5t-136 -49.5q-151 0 -151 123q0 87 47.5 131.5t134.5 44.5z" />
    <glyph glyph-name="uni022F" unicode="&#x22f;" horiz-adv-x="1198" 
d="M1108 694q0 -209 -70.5 -372t-203.5 -252.5t-322 -89.5t-305.5 117.5t-116.5 321.5t71.5 370.5t206.5 258t323.5 91.5t302.5 -118t114 -327zM805 696q0 197 -143 197q-75 0 -134.5 -61t-97 -179t-37.5 -243q0 -185 150 -185q75 0 135 61.5t93.5 171t33.5 238.5zM780 1556
q149 0 149 -120q0 -80 -44 -129.5t-136 -49.5q-151 0 -151 123q0 87 47.5 131.5t134.5 44.5z" />
    <glyph glyph-name="uni0230" unicode="&#x230;" horiz-adv-x="1495" 
d="M434 557q0 -317 254 -317q120 0 220 87t156 246t56 357q0 142 -65 220t-185 77q-120 1 -220 -91t-158 -252t-58 -327zM1432 926q0 -270 -99 -494t-271 -338t-412 -114t-384 148t-143 410q0 264 99 486t273 342q173 119 415 119t382 -144t140 -415zM718 2089h652l-39 -191
h-652zM843 1665q0 71 37 109t103 38q112 0 112 -100q0 -147 -137 -147q-115 0 -115 100z" />
    <glyph glyph-name="uni0231" unicode="&#x231;" horiz-adv-x="1198" 
d="M1108 694q0 -209 -70 -372q-70 -162 -204 -252q-133 -90 -322 -90q-190 0 -306 118t-116 321q0 205 72 371t206 258q136 92 324 91q188 0 302 -118t114 -327zM805 696q0 197 -143 197q-74 0 -134 -61t-98 -179t-37 -243q0 -185 150 -185q75 -1 135 61t94 172t33 238z
M500 1751h651l-39 -190h-651zM625 1327q1 72 37 110t97 38q118 0 118 -101q0 -147 -138 -147q-114 0 -114 100z" />
    <glyph glyph-name="uni0232" unicode="&#x232;" horiz-adv-x="1155" 
d="M627 870l374 592h342l-618 -903l-119 -559h-303l119 559l-236 903h312zM496 1790h619l-45 -211h-619z" />
    <glyph glyph-name="uni0233" unicode="&#x233;" horiz-adv-x="1063" 
d="M465 307h8q20 51 44 119.5t65 153.5l260 538h327l-680 -1278q-177 -332 -483 -332q-90 0 -147 19v240q68 -13 134 -13q142 0 247 197l26 49l-164 1118h295l56 -518q12 -105 12 -293zM380 1452h619l-45 -211h-619z" />
    <glyph glyph-name="uni0234" unicode="&#x234;" horiz-adv-x="850" 
d="M391 248q0 -86 96 -86q52 0 83.5 26.5t31.5 65t-26 55.5t-60 17q-66 0 -123 -52l-2 -14v-12zM441.5 -20q-171.5 0 -257.5 73q-55 -66 -96 -129l-131 74q63 97 145 197q-4 12 -4 43.5t10.5 90.5t258.5 1227h299l-232 -1089q63 41 154 41t155 -65.5t64 -185.5t-97 -198.5
t-268.5 -78.5z" />
    <glyph glyph-name="uni0235" unicode="&#x235;" horiz-adv-x="1489" 
d="M1030 248q0 -86 96 -86q52 0 83.5 26.5t31.5 65t-26 55.5t-60 17q-66 0 -123 -52l-2 -14v-12zM1080.5 -20q-171.5 0 -257.5 73q-55 -66 -96 -129l-131 74q63 97 145 197q-4 12 -4 57.5t21 142.5l55 258q16 68 16 119q0 123 -108 123q-92 0 -167 -114t-118 -318l-98 -463
h-301l237 1118h230l-21 -207h9q146 228 352 228q138 0 213.5 -83.5t75.5 -238.5q0 -37 -6 -83.5t-54 -266.5q63 41 154 41t155 -65.5t64 -185.5t-97 -198.5t-268.5 -78.5z" />
    <glyph glyph-name="uni0236" unicode="&#x236;" horiz-adv-x="870" 
d="M412 248q0 -86 96 -86q52 0 83.5 26.5t31.5 65t-26 55.5t-59 17q-70 0 -124 -52l-2 -14v-12zM460.5 -20q-172.5 0 -255.5 73q-47 -55 -96 -129l-132 74q68 102 146 197q-4 12 -4 51t22 151l105 492h-152l29 147l196 84l132 236h192l-49 -238h285l-50 -229h-284l-90 -422
q63 41 153.5 41t154.5 -65.5t64 -170.5q0 -137 -97 -214.5t-269.5 -77.5z" />
    <glyph glyph-name="uni0237" unicode="&#x237;" horiz-adv-x="608" 
d="M-88 -492q-104 0 -174 25v242q60 -21 118 -21t104 40t65 130l254 1194h301l-265 -1239q-77 -371 -403 -371z" />
    <glyph glyph-name="uni0238" unicode="&#x238;" horiz-adv-x="1827" 
d="M395 408q-1 -185 139 -185q157 1 221 277q33 144 33 229q0 166 -131 166q-68 0 -126.5 -68t-97 -190t-38.5 -229zM1034 362q0 -139 131 -139q69 0 127.5 63t99 187t40.5 242q0 180 -134 180q-176 0 -240 -351q-24 -136 -24 -182zM1737 720.5q0 -200.5 -75 -379.5
t-204 -270t-295 -91q-209 0 -325 141q-128 -141 -330.5 -141t-310 107.5t-107.5 302.5t69.5 371t189.5 277t270.5 101t242.5 -164h8q10 147 37 278l66 303h303l-78 -358q-18 -87 -68 -225h13q61 73 99 103q81 63 183 63q145 0 228.5 -109t83.5 -309.5z" />
    <glyph glyph-name="uni0239" unicode="&#x239;" horiz-adv-x="1827" 
d="M1432 711q0 184 -140 184q-74 0 -131.5 -67t-90 -215t-32.5 -224q0 -166 131 -166q66 0 125 66.5t98.5 191.5t39.5 230zM793 756q0 139 -131 139q-69 0 -127.5 -63t-99 -187t-40.5 -242q0 -180 133 -180q83 0 144.5 83t91 242t29.5 208zM90 398q0 202 75.5 380.5
t204 269.5t294.5 91q209 0 325 -142q129 142 331.5 142t309.5 -108.5t107 -302t-68 -368.5t-188.5 -277.5t-272.5 -102.5t-243 163h-9q-11 -131 -36 -256l-76 -379h-303l88 400q23 107 67 237h-12q-70 -82 -106 -109q-75 -56 -177 -56q-143 0 -227 108t-84 310z" />
    <glyph glyph-name="uni023A" unicode="&#x23a;" horiz-adv-x="1286" 
d="M819 719l-55 -111h63zM563 608l230 473l-3 102l1 64q-44 -120 -109 -254l-188 -385h69zM842 348h-203l-242 -502h-202l243 502h-69l-172 -348h-320l766 1468h338l43 88h199l-179 -370l119 -1186h-297z" />
    <glyph glyph-name="uni023B" unicode="&#x23b;" horiz-adv-x="1253" 
d="M905 1227q-132 0 -237.5 -81t-169.5 -239t-64 -307t33 -223l463 850h-25zM721 240q146 0 338 77v-260q-199 -77 -400 -77q-103 0 -194 26l-86 -160h-201l131 242q-186 144 -186 465q0 262 104 482.5t278 335t400 114.5q86 0 160 -10l45 81h199l-72 -129q60 -26 98 -47
l-118 -250q-51 29 -111 56l-504 -930q44 -16 119 -16z" />
    <glyph glyph-name="uni023C" unicode="&#x23c;" horiz-adv-x="989" 
d="M395 416q0 -52 13 -90l249 565q-118 -21 -190 -158t-72 -317zM90 391q0 212 74.5 385.5t209.5 268t308 94.5q44 0 84 -4l186 421h197l-203 -462l64 -27l-92 -229l-72 28l-285 -643h8q74 0 139 23.5t134 58.5v-246q-152 -79 -336 -79l-51 2l-179 -408h-200l200 455
q-186 97 -186 362z" />
    <glyph glyph-name="uni023D" unicode="&#x23d;" horiz-adv-x="1061" 
d="M102 850h131l129 612h306l-131 -612h231l-55 -254h-230l-71 -340h512l-54 -256h-817l127 596h-133z" />
    <glyph glyph-name="uni023E" unicode="&#x23e;" horiz-adv-x="1087" 
d="M793 1047l110 157h-78zM-55 -154l411 584l164 774h-352l55 258h860l68 94h184l-118 -167l-39 -185h-93l-372 -528l-142 -676h-305l13 57l-150 -211h-184z" />
    <glyph glyph-name="uni023F" unicode="&#x23f;" horiz-adv-x="969" 
d="M565.5 -250q45.5 0 112.5 19v-234q-77 -27 -165.5 -27t-149 30t-101.5 91t-70 165t-38.5 128t-21.5 40.5t-26.5 29.5t-82.5 53v248q157 -90 319 -90q80 0 131 32.5t51 82t-37 83.5t-144.5 94t-155.5 127.5t-48 159.5q0 170 110.5 263.5t313.5 93.5t365 -95l-99 -215
q-140 84 -258 84q-57 0 -92 -25.5t-35 -66.5t32 -70.5t138 -83.5q216 -110 215.5 -293t-116 -283.5t-318.5 -108.5q23 -23 48 -93t51 -104.5t71.5 -34.5z" />
    <glyph glyph-name="uni0240" unicode="&#x240;" horiz-adv-x="932" 
d="M654 -250q44 0 104 19v-232q-70 -29 -193.5 -29t-202.5 70.5t-139 241.5q-27 82 -51 116q-45 64 -147 64h-72l35 180l575 705h-397l51 233h750l-43 -200l-617 -744q56 -25 95.5 -76.5t81.5 -154.5t61.5 -134.5t42 -45t66.5 -13.5z" />
    <glyph glyph-name="uni0241" unicode="&#x241;" horiz-adv-x="981" 
d="M559 1239q-127 0 -299 -98l-98 219q133 70 235 97.5t217 27.5q193 0 305.5 -98.5t112.5 -284.5q0 -383 -465 -584l-110 -518h-305l141 668q432 151 432 419q0 67 -45.5 109.5t-120.5 42.5z" />
    <glyph glyph-name="uni0242" unicode="&#x242;" horiz-adv-x="981" 
d="M936 772q0 -205 -115.5 -351t-355.5 -245l-37 -176h-299l68 324q434 152 434 417q0 67 -45.5 109.5t-137.5 42.5t-224 -68l-58 -30l-98 219q146 74 244 99.5t204 25.5q194 0 307 -99.5t113 -267.5z" />
    <glyph glyph-name="uni0243" unicode="&#x243;" horiz-adv-x="1270" 
d="M592 256q117 0 183.5 58t66.5 161q0 162 -183 162h-165l-21 -90h225l-41 -199h-227l-18 -92h180zM694 883q242 0 242 188q0 137 -170 137h-152l-69 -325h149zM788 1462q463 0 463 -325q0 -150 -83 -246.5t-236 -128.5v-8q100 -26 159.5 -96.5t59.5 -180.5
q0 -229 -153 -353t-423 -124h-522l74 348h-154l41 199h156l192 915h426z" />
    <glyph glyph-name="uni0244" unicode="&#x244;" horiz-adv-x="1415" 
d="M446 418q0 -178 189 -178q123 0 195 76.5t104 228.5l29 133h-471q-46 -213 -46 -260zM617 -20q-233 0 -354.5 113.5t-121.5 307.5q0 72 15 138l30 139h-168l54 254h168l112 530h305l-112 -530h471l112 530h306l-113 -530h168l-53 -254h-168l-35 -162
q-60 -269 -221.5 -402.5t-394.5 -133.5z" />
    <glyph glyph-name="uni0245" unicode="&#x245;" horiz-adv-x="1229" 
d="M-123 0l748 1468h342l139 -1468h-295l-59 836q-9 113 -9 338l-29 -79q-47 -127 -89 -214l-428 -881h-320z" />
    <glyph glyph-name="uni0246" unicode="&#x246;" horiz-adv-x="1110" 
d="M440 391l109 242h-57zM547 887h119l147 321h-199zM870 0h-413l-70 -154h-197l70 154h-207l309 1462h568l43 94h196l-43 -94h54l-54 -254h-116l-148 -321h162l-55 -254h-224l-172 -377h351z" />
    <glyph glyph-name="uni0247" unicode="&#x247;" horiz-adv-x="1141" 
d="M393 403q0 -58 21 -100l41 141h-60l-2 -21v-20zM801 827q0 61 -49 84l-68 -231q117 49 117 147zM516 647l72 242q-56 -34 -99.5 -97t-60.5 -145h88zM90 430q0 174 71 335.5t201 259t300 110.5l120 401h156l-121 -406q137 -23 205 -102.5t68 -193.5q0 -160 -123.5 -258
t-350.5 -123l-71 -244l23 -2h24q87 0 158 19t172 67v-227q-172 -86 -390 -86l-55 2l-121 -408h-159l131 440q-238 94 -238 416z" />
    <glyph glyph-name="uni0248" unicode="&#x248;" horiz-adv-x="678" 
d="M-135 -430q-94 0 -187 27v253q88 -20 176 -20q185 0 238 252l111 522h-176l55 254h176l127 604h305l-129 -604h178l-55 -254h-176l-121 -565q-52 -245 -175.5 -357t-346.5 -112z" />
    <glyph glyph-name="uni0249" unicode="&#x249;" horiz-adv-x="608" 
d="M506 1556q149 0 149 -120q0 -80 -44 -129.5t-136 -49.5q-151 0 -151 123q0 87 47.5 131.5t134.5 44.5zM-90 -492q-104 0 -174 25v242q61 -21 114 -21q137 0 173 170l116 547h-155l43 199h153l96 448h302l-97 -448h154l-43 -199h-154l-125 -592q-77 -371 -403 -371z" />
    <glyph glyph-name="uni024A" unicode="&#x24a;" horiz-adv-x="1526" 
d="M672 240q142 0 247 126.5t156 362.5q35 153 35 240q0 256 -233 256q-125 0 -224.5 -90t-159 -258.5t-59.5 -328.5q0 -308 238 -308zM1178 -492q-134 0 -214.5 68.5t-80.5 202.5q0 59 32.5 200.5t49.5 196.5h-15q-96 -109 -189 -152.5t-214 -43.5q-194 0 -309 144
t-115 397t95 479t262 355.5t372 129.5q113 0 191 -46t141 -153h8l70 176h274l-334 -1577q-6 -28 -6 -53q0 -80 82 -80q62 0 113 21v-234q-79 -31 -213 -31z" />
    <glyph glyph-name="uni024B" unicode="&#x24b;" horiz-adv-x="1217" 
d="M395 399q0 -176 140 -176q70 0 128.5 64t97 188.5t38.5 224t-37.5 147.5t-104 48t-128 -72t-98 -190t-36.5 -234zM608 -241q0 112 88 391h-8q-72 -94 -143 -132t-156.5 -38t-153.5 48q-145 101 -145 357q0 198 72 377.5t189 278t257 98.5q86 0 152.5 -37.5t124.5 -126.5
h8l57 143h232l-258 -1214q-13 -48 -13 -80q0 -72 82 -72q56 0 105 19v-232q-75 -31 -203.5 -31t-207.5 69.5t-79 181.5z" />
    <glyph glyph-name="uni024C" unicode="&#x24c;" horiz-adv-x="1247" 
d="M885 1044q0 164 -197 164h-74l-84 -395h78q131 0 204 57t73 174zM721 1462q237 0 356 -102t119 -299q0 -158 -83 -271.5t-239 -168.5l261 -621h-332l-207 561h-119l-119 -561h-305l119 561h-156l54 252h155l137 649h359z" />
    <glyph glyph-name="uni024D" unicode="&#x24d;" horiz-adv-x="862" 
d="M842 1139q59 0 96 -11l-66 -290q-44 16 -112 16t-140.5 -47t-123.5 -154h192l-41 -198h-213l-96 -455h-301l96 455h-153l40 198h156l98 465h230l-21 -207h11q145 228 348 228z" />
    <glyph glyph-name="uni024E" unicode="&#x24e;" horiz-adv-x="1155" 
d="M627 870l125 199h-170zM539 1268h340l122 194h342l-133 -194h105l-43 -199h-199l-348 -510l-119 -559h-303l119 559l-133 510h-195l43 199h101l-52 194h312z" />
    <glyph glyph-name="uni024F" unicode="&#x24f;" horiz-adv-x="1063" 
d="M465 307h8q20 51 45 120.5t70 162.5h-135q12 -105 12 -283zM6 -492q-90 0 -147 19v240q68 -13 134 -13q142 0 247 197l26 49l-86 590h-174l41 198h105l-50 330h295l35 -330h250l160 330h327l-176 -330h105l-41 -198h-168l-400 -750q-177 -332 -483 -332z" />
    <glyph glyph-name="uni0250" unicode="&#x250;" horiz-adv-x="1194" 
d="M854 811q0 49 -34 76.5t-91 27.5q-96 0 -165 -57t-91 -166l-18 -90l114 4q146 6 215.5 55t69.5 150zM858 1139q129 0 207 -82.5t78 -218.5q0 -197 -131 -298.5t-408 -109.5l-188 -6l-10 -49q-7 -28 -7 -62q0 -108 150 -108q127 0 321 80l72 -205q-200 -100 -411.5 -100
t-322 82.5t-110.5 232.5q0 25 4.5 54t159.5 769h213l14 -151h9q149 172 360 172z" />
    <glyph glyph-name="uni0251" unicode="&#x251;" horiz-adv-x="1217" 
d="M395 399q0 -176 129 -176q69 0 133 67t103 181.5t39 259.5q0 71 -38.5 117.5t-104 46.5t-127 -72t-98 -190t-36.5 -234zM608 1139q197 0 277 -164h8l57 143h232l-238 -1118h-225l14 145h-8q-134 -165 -319 -165q-147 0 -231.5 106.5t-84.5 301.5t72 374.5t189 278
t257 98.5z" />
    <glyph glyph-name="uni0252" unicode="&#x252;" horiz-adv-x="1219" 
d="M823 719q0 176 -129 176q-76 0 -138 -67t-99 -188.5t-37 -252.5q0 -73 38 -118.5t103 -45.5t126 69t98.5 189.5t37.5 237.5zM813 1139q146 0 230.5 -108t84.5 -298t-68 -367.5t-187 -281.5t-263 -104q-194 0 -276 163h-8l-58 -143h-231l237 1118h230l-17 -170h9
q134 191 317 191z" />
    <glyph glyph-name="uni0253" unicode="&#x253;" horiz-adv-x="1219" 
d="M692 895q-74 0 -134 -65t-99 -189.5t-39 -222.5t37 -146.5t103 -48.5t127 69t98.5 189.5t37.5 237.5q0 176 -131 176zM610 -20q-194 0 -276 163h-8l-58 -143h-231l258 1219q36 176 126 264t245 88q91 0 153 -31v-233q-50 20 -102 20q-95 0 -121 -102q-44 -172 -74 -256h8
q78 98 142.5 134t140.5 36q146 0 230.5 -108t84.5 -298t-68 -367.5t-187 -281.5t-263 -104z" />
    <glyph glyph-name="uni0254" unicode="&#x254;" horiz-adv-x="989" 
d="M492.5 1139q189.5 0 298 -107t108.5 -312.5t-75 -378.5t-210 -267t-312.5 -94t-321.5 71l92 230q53 -23 105 -40.5t127.5 -17.5t144.5 65.5t107 176.5t38 222q0 208 -172 208q-114 0 -275 -82v246q156 80 345.5 80z" />
    <glyph glyph-name="uni0255" unicode="&#x255;" horiz-adv-x="1024" 
d="M582 203q82 0 131 32.5t49 76.5q0 90 -116 90.5t-238 -109.5q42 -90 174 -90zM90 391q0 212 74.5 385.5t209.5 268t312.5 94.5t323.5 -72l-92 -229q-54 23 -106 40t-118 17q-118 0 -205 -122.5t-100 -299.5q139 113 305 113q124 0 198.5 -68.5t74.5 -178t-52.5 -190
t-155.5 -125t-224 -44.5q-209 0 -304 79q-58 -84 -108 -168l-129 76q75 123 139 211q-43 90 -43 213z" />
    <glyph glyph-name="uni0256" unicode="&#x256;" horiz-adv-x="1217" 
d="M395 399q0 -176 140 -176q70 0 128.5 64t97 188.5t38.5 224t-37.5 147.5t-104 48t-128 -72t-98 -190t-36.5 -234zM608 -241q0 112 88 391h-8q-79 -98 -148 -134t-149 -36q-138 0 -219.5 107.5t-81.5 301.5t71.5 372.5t188.5 278t258 99.5q82 0 141.5 -37t112.5 -127h8
l2 28q6 110 25 195l76 358h301l-350 -1652q-13 -48 -13 -80q0 -72 82 -72q56 0 105 19v-232q-75 -31 -203.5 -31t-207.5 69.5t-79 181.5z" />
    <glyph glyph-name="uni0257" unicode="&#x257;" horiz-adv-x="1217" 
d="M532 223q70 0 129 63.5t98.5 189.5t39.5 224.5t-37.5 146.5t-104 48t-128 -72t-98 -190t-36.5 -234q0 -176 137 -176zM90 388.5q0 194.5 71.5 373t188.5 278t258 99.5q82 0 141.5 -37t112.5 -127h8q20 248 66 364q91 232 336 232q93 0 155 -31v-233q-50 20 -100 20
q-101 0 -127 -119l-256 -1208h-229l18 145h-8q-135 -165 -319 -165q-147 0 -231.5 107t-84.5 301.5z" />
    <glyph glyph-name="uni0258" unicode="&#x258;" horiz-adv-x="1100" 
d="M426 -20q-232 0 -375 81v228q84 -46 153.5 -64t173.5 -18t180.5 60t107.5 177h-52q-230 0 -360.5 84t-130.5 243.5t123.5 263.5t325 104t320 -123t118.5 -330t-74 -372t-205.5 -249.5t-304.5 -84.5zM550.5 922q-67.5 0 -103 -35t-35.5 -98t57.5 -102.5t179.5 -39.5h58
l2 22v21q0 107 -45.5 169.5t-113 62.5z" />
    <glyph glyph-name="uni0259" unicode="&#x259;" horiz-adv-x="1141" 
d="M609 1139q209 0 325.5 -113.5t116.5 -318t-80.5 -374.5t-222 -261.5t-320.5 -91.5t-278 81.5t-99 223.5q0 186 166.5 287.5t476.5 101.5h51l3 41q0 91 -51.5 143.5t-143 52.5t-162.5 -19t-172 -67v228q181 86 390 86zM340 291q0 -94 96 -94t174 78.5t103 195.5h-45
q-155 0 -241.5 -48.5t-86.5 -131.5z" />
    <glyph glyph-name="uni025A" unicode="&#x25a;" horiz-adv-x="1532" 
d="M444 197q84 0 158 85t96 212l-67 -15q-149 -31 -220 -78t-71 -116q0 -88 104 -88zM1286 332q-212 0 -242 239l-24 -6q-26 -174 -107.5 -306.5t-209.5 -205.5t-293.5 -73t-262 79.5t-96.5 216.5q0 103 59.5 175.5t184.5 125.5t434 119v21q0 90 -50.5 142t-137 52t-153 -18
t-169.5 -68v228q102 50 189.5 68t189.5 18q191 0 303 -99t127 -276l215 55v-104q0 -94 22 -134t74.5 -40t114.5 45l78 -170q-120 -84 -246 -84z" />
    <glyph glyph-name="uni025B" unicode="&#x25b;" horiz-adv-x="1051" 
d="M475 788q0 -100 197 -100h135l-45 -211h-148q-120 0 -189 -38.5t-69 -100.5q0 -123 178 -123t351 90v-246q-160 -79 -384 -79t-343 77.5t-119 216.5q0 257 328 310v8q-80 31 -123 87.5t-43 127.5q0 158 123 245t356 87t391 -86l-92 -222q-164 82 -303 82
q-201 0 -201 -125z" />
    <glyph glyph-name="uni025C" unicode="&#x25c;" horiz-adv-x="1073" 
d="M418 -20q-245 0 -393 75v248q176 -88 362 -88q258 0 258 145q0 117 -176 117h-176l45 211h125q140 0 198 29.5t58 97.5q0 98 -145 98t-324 -79l-72 219q224 86 428.5 86t309 -71t104.5 -206q0 -103 -62 -171t-198 -105v-8q190 -56 190 -231t-143.5 -271t-388.5 -96z" />
    <glyph glyph-name="uni025D" unicode="&#x25d;" horiz-adv-x="1346" 
d="M410.5 -20q-239.5 0 -385.5 75v248q171 -88 350 -88q250 0 250 145q0 117 -176 117h-156l45 211h104q140 0 198 29.5t58 89t-35 83t-112 23.5q-125 0 -301 -79l-72 219q217 86 430 86q290 0 365 -162l125 33v-105q0 -94 21.5 -134t73 -40t116.5 45l77 -170
q-118 -84 -245 -84q-175 0 -226 162q-66 -73 -178 -98v-8q191 -55 191 -230.5t-139 -271.5t-378.5 -96z" />
    <glyph glyph-name="uni025E" unicode="&#x25e;" horiz-adv-x="1227" 
d="M801 354q0 113 -195 113h-47l45 211h43q223 0 223 129q0 49 -38 77.5t-101 28.5q-104 0 -180.5 -62.5t-117 -173.5t-40.5 -233q0 -235 201 -235q95 0 151 38.5t56 106.5zM90 430q0 325 174.5 517t478.5 192q195 0 309.5 -83t114.5 -212t-67.5 -191.5t-190.5 -79.5l-2 -10
q197 -38 197 -214.5t-140.5 -272.5t-380 -96t-366.5 117t-127 333z" />
    <glyph glyph-name="uni025F" unicode="&#x25f;" horiz-adv-x="608" 
d="M-90 -492q-104 0 -174 25v242q61 -21 114 -21q137 0 173 170l116 547h-155l43 199h153l96 448h302l-97 -448h154l-43 -199h-154l-125 -592q-77 -371 -403 -371z" />
    <glyph glyph-name="uni0260" unicode="&#x260;" horiz-adv-x="1217" 
d="M395 416q0 -192 144 -193q68 0 127.5 68.5t96 187t36.5 219.5q0 197 -141 197q-67 0 -129.5 -72.5t-98 -187.5t-35.5 -219zM406 -492q-219 0 -379 72v262q160 -86 348 -86q213 0 264 199q13 51 57 195h-8q-72 -94 -143 -132t-154 -38q-139 0 -220 107t-81 299t71.5 372
t186 280.5t246.5 100.5q88 0 148.5 -33.5t119.5 -130.5h8q21 255 67 369q92 228 337 227q91 0 156 -31v-233q-53 20 -101 20q-103 0 -129 -117l-262 -1237q-52 -238 -182.5 -351.5t-349.5 -113.5z" />
    <glyph glyph-name="uni0261" unicode="&#x261;" horiz-adv-x="1217" 
d="M395 416q0 -192 143 -193q67 0 125 64t97 185.5t39 223.5q0 198 -141 199q-67 0 -129.5 -72.5t-98 -187.5t-35.5 -219zM406 -492q-219 0 -379 72v262q160 -86 358.5 -86t252.5 196q28 101 58 198h-8q-72 -94 -143 -132t-154 -38q-139 0 -220 107t-81 300.5t70.5 370.5
t187.5 279t254 102q90 0 154.5 -34.5t128.5 -129.5h8l57 143h232l-244 -1145q-52 -238 -182.5 -351.5t-349.5 -113.5z" />
    <glyph glyph-name="uni0262" unicode="&#x262;" horiz-adv-x="1206" 
d="M395 451.5q0 -118.5 53 -173.5t162 -55q49 0 125 19l39 188h-209l43 203h498l-119 -565q-197 -88 -422.5 -88t-350 114t-124.5 323.5t81.5 375.5t235.5 256t360 90t366 -80l-95 -230q-141 66 -255.5 66t-201.5 -56.5t-136.5 -162.5t-49.5 -224.5z" />
    <glyph glyph-name="uni0263" unicode="&#x263;" horiz-adv-x="1049" 
d="M266 -250q0 -59 53 -59q42 0 68.5 53t26.5 132t-23 169q-54 -72 -89.5 -154t-35.5 -141zM469 428h6q37 117 105 227l276 463h322l-598 -925q47 -197 47 -324q0 -173 -85 -267t-241 -94q-113 0 -180.5 65.5t-67.5 183.5t85 269q41 73 138 210l-206 882h288l88 -454
q23 -111 23 -236z" />
    <glyph glyph-name="uni0264" unicode="&#x264;" horiz-adv-x="1118" 
d="M438 219q0 -63 56 -63q38 0 62 32.5t24 95t-35 130.5q-107 -109 -107 -195zM1077.5 1139q70.5 0 122.5 -27v-227q-30 10 -67.5 10t-75.5 -23.5t-109 -103.5l-205 -229q50 -128 50 -264t-79.5 -219t-242.5 -83q-113 0 -179.5 62.5t-66.5 172.5q-1 110 65 218
q32 52 107 141l-104 197q-67 131 -135 131q-36 0 -76 -10v225q82 29 155.5 29t128 -34.5t100.5 -112.5q96 -161 126 -251h6q65 82 175.5 205t172 158t132 35z" />
    <glyph glyph-name="uni0265" unicode="&#x265;" horiz-adv-x="1237" 
d="M410 346q0 -123 108 -123q92 0 167 114t118 318l98 463h301l-344 -1610h-301l74 338q20 105 84 304h-8q-135 -170 -312 -170q-138 0 -211 82.5t-73 238.5q0 93 24 213l127 604h301l-137 -653q-16 -68 -16 -119z" />
    <glyph glyph-name="uni0266" unicode="&#x266;" horiz-adv-x="1237" 
d="M844 1139q138 0 213.5 -83.5t75.5 -238.5q0 -73 -23 -180l-133 -637h-301l137 653q16 68 16 119q0 123 -108 123q-92 0 -167 -114t-118 -318l-98 -463h-301l258 1219q36 176 126 264t245 88q91 0 153 -31v-233q-50 20 -98 20q-99 0 -124 -99.5t-75 -258.5h8
q137 170 314 170z" />
    <glyph glyph-name="uni0267" unicode="&#x267;" horiz-adv-x="1237" 
d="M844 1139q138 0 213.5 -83.5t75.5 -238.5q0 -73 -23 -180l-158 -754q-41 -192 -141.5 -283.5t-263.5 -91.5q-104 0 -174 25v242q61 -21 118 -21t103.5 40.5t64.5 129.5l154 729q16 68 16 119q0 123 -108 123q-92 0 -167 -114t-118 -318l-98 -463h-301l258 1219
q36 176 126 264t245 88q91 0 153 -31v-233q-50 20 -98 20q-99 0 -124 -99.5t-75 -258.5h8q137 170 314 170z" />
    <glyph glyph-name="uni0268" unicode="&#x268;" horiz-adv-x="608" 
d="M504 1556q149 0 149 -120q0 -80 -44 -129.5t-136 -49.5q-151 0 -151 123q0 87 47.5 131.5t134.5 44.5zM479 670h156l-43 -199h-154l-100 -471h-301l100 471h-153l43 199h153l94 448h301z" />
    <glyph glyph-name="uni0269" unicode="&#x269;" horiz-adv-x="752" 
d="M492 223q66 0 161 35v-225q-111 -53 -263 -53t-223 62.5t-71 195.5q0 52 23 157l153 723h301l-155 -741q-12 -59 -12 -82q0 -72 86 -72z" />
    <glyph glyph-name="uni026A" unicode="&#x26a;" horiz-adv-x="713" 
d="M274 885l-151 86l33 147h639l-33 -147l-187 -86l-139 -652l152 -86l-31 -147h-639l31 147l188 86z" />
    <glyph glyph-name="uni026B" unicode="&#x26b;" horiz-adv-x="850" 
d="M256 717q-72 0 -104 -107h-152q31 147 108.5 227.5t194.5 80.5q23 0 43 -5l135 643h301l-155 -735q24 -8 47 -8q68 0 106 109h152q-32 -150 -109 -230t-190 -80q-30 0 -51 6l-129 -618h-301l151 711q-21 6 -47 6z" />
    <glyph glyph-name="uni026C" unicode="&#x26c;" horiz-adv-x="809" 
d="M217 817q0 -61 88 -61h49q11 51 11 73t-19 41t-51 19q-78 0 -78 -72zM283 598q-119 0 -183.5 55t-64.5 159.5t69.5 169.5t186.5 65q55 0 117 -37l116 546h301l-170 -800h195l-33 -158h-194l-127 -598h-301l127 598h-39z" />
    <glyph glyph-name="uni026D" unicode="&#x26d;" horiz-adv-x="608" 
d="M287.5 -492q-131.5 0 -209.5 65.5t-78 193.5q0 74 16 145l351 1644h301l-351 -1652q-12 -52 -12 -80q0 -72 82 -72q56 0 105 19v-232q-73 -31 -204.5 -31z" />
    <glyph glyph-name="uni026E" unicode="&#x26e;" horiz-adv-x="1479" 
d="M1274 82.5q0 -165.5 -77 -299.5t-221 -206.5t-344 -72.5t-364 80v266q76 -43 170.5 -68.5t169.5 -25.5q163 0 258 83t95 224q0 106 -69.5 164t-191.5 58h-135l45 215l400 385h-486l-186 -885h-301l330 1556h301l-95 -438h854l-41 -196l-481 -449q174 -16 271.5 -120.5
t97.5 -270z" />
    <glyph glyph-name="uni026F" unicode="&#x26f;" horiz-adv-x="1853" 
d="M1036 346q0 -123 99 -123q93 0 167 115t117 317l99 463h301l-238 -1118h-227l20 207h-8q-145 -227 -358 -227t-256 227h-9q-145 -227 -358 -227q-133 0 -206 83t-73 238q0 73 23 180l133 637h301l-137 -653q-16 -68 -16 -119q0 -123 98 -123q92 0 165 110.5t120 319.5
l96 465h301l-137 -653q-17 -70 -17 -119z" />
    <glyph glyph-name="uni0270" unicode="&#x270;" horiz-adv-x="1853" 
d="M1012 -20q-109 0 -178.5 59t-81.5 168h-9q-145 -227 -358 -227q-133 0 -206 83t-73 238q0 73 23 180l133 637h301l-137 -653q-16 -68 -16 -119q0 -123 98 -123q92 0 165 110.5t120 319.5l96 465h301l-137 -653q-17 -70 -17 -119q0 -123 99 -123q93 0 167 115t117 317
l99 463h301l-344 -1610h-301q47 218 73 337.5t84 304.5h-8q-132 -170 -311 -170z" />
    <glyph glyph-name="uni0271" unicode="&#x271;" horiz-adv-x="1853" 
d="M1470 1139q136 0 207.5 -85t71.5 -237q0 -76 -23 -180l-157 -754q-41 -192 -142 -283.5t-264 -91.5q-104 0 -174 25v242q61 -21 115 -21q136 0 172 170l154 729q16 68 16 119q0 123 -96 123t-171.5 -115t-115.5 -315l-96 -465h-301l137 653q16 68 16 119q0 123 -98 123
q-92 0 -167 -114t-118 -318l-98 -463h-301l237 1118h230l-21 -207h9q146 228 358.5 228t255.5 -228h8q142 228 356 228z" />
    <glyph glyph-name="uni0272" unicode="&#x272;" horiz-adv-x="1237" 
d="M829 772q0 123 -108 123q-92 0 -167 -114t-118 -318l-125 -588q-39 -185 -128.5 -276t-241.5 -91q-87 0 -162 29v234q46 -19 98 -19q108 0 133 123l264 1243h230l-21 -207h9q146 228 352 228q138 0 213.5 -83.5t75.5 -238.5q0 -73 -23 -180l-133 -637h-301l137 653
q16 68 16 119z" />
    <glyph glyph-name="uni0273" unicode="&#x273;" horiz-adv-x="1237" 
d="M944 -176q0 -72 82 -72q55 0 104 19v-232q-75 -31 -205 -31t-208 65.5t-78 193.5q0 70 18 149l156 737q16 68 16 119q0 123 -108 123q-92 0 -167 -114t-118 -318l-98 -463h-301l237 1118h230l-21 -207h9q146 228 352 228q138 0 213.5 -83.5t75.5 -238.5q0 -73 -23 -180
l-154 -733q-12 -52 -12 -80z" />
    <glyph glyph-name="uni0274" unicode="&#x274;" horiz-adv-x="1372" 
d="M1337 1118l-237 -1118h-344l-283 782q-17 -119 -35.5 -230t-111.5 -552h-289l237 1118h342l285 -784q34 267 51 342l95 442h290z" />
    <glyph glyph-name="uni0275" unicode="&#x275;" horiz-adv-x="1198" 
d="M811 696q0 205 -149 205q-75 0 -136.5 -61.5t-97.5 -171.5h383v28zM543.5 219q76.5 0 138.5 62t96 176h-389l-2 -29v-20q0 -91 40 -140t116.5 -49zM1108 694q0 -209 -70.5 -372t-203.5 -252.5t-322 -89.5t-305.5 117.5t-116.5 321.5t71.5 370.5t206.5 258t323.5 91.5
t302.5 -118t114 -327z" />
    <glyph glyph-name="uni0276" unicode="&#x276;" horiz-adv-x="1694" 
d="M805 696q0 197 -143 197q-75 0 -134.5 -61t-97 -179t-37.5 -243q0 -181 150 -181q76 0 136 61.5t93 170.5t33 235zM514 -16q-195 0 -309.5 115t-114.5 319t71.5 371t205 258.5t311.5 91.5q132 0 223 -78l12 57h777l-50 -229h-475l-43 -197h445l-47 -229h-445l-49 -230
h475l-49 -233h-776l4 20q-78 -36 -166 -36z" />
    <glyph glyph-name="uni0277" unicode="&#x277;" horiz-adv-x="1638" 
d="M1038 217q99 0 160.5 96.5t61.5 249.5t-99.5 241.5t-270.5 88.5t-292 -65.5t-184.5 -184t-63.5 -272.5t123 -154q78 0 123 57.5t72 192.5l41 197h284q-51 -243 -56 -278.5t-5 -75.5t24 -66.5t82 -26.5zM1051 -20q-132 0 -197.5 50.5t-85.5 159.5h-8q-68 -113 -148 -161.5
t-192 -48.5q-165 0 -257.5 102.5t-92.5 306.5t104 380.5t296.5 273t411.5 96.5t361 -68.5t219.5 -197.5t77.5 -303.5t-63 -309.5t-178.5 -207.5t-247.5 -72.5z" />
    <glyph glyph-name="uni0278" unicode="&#x278;" horiz-adv-x="1563" 
d="M1167 642q0 105 -45.5 168.5t-124.5 78.5l-141 -664q190 27 270 215q40 96 41 202zM397 480q0 -106 43 -174t129 -81l144 668q-193 -13 -275 -209q-41 -98 -41 -204zM1473 656q0 -192 -81 -340q-160 -292 -587 -334l-96 -474h-291l104 484q-202 23 -317 147.5t-115 314.5
t84 342q169 304 588 330l90 430h287l-90 -432q204 -30 314 -153t110 -315z" />
    <glyph glyph-name="uni0279" unicode="&#x279;" horiz-adv-x="862" 
d="M23 -20q-63 0 -97 10l66 291q41 -17 100 -17q118 0 205.5 93t122.5 261l106 500h301l-237 -1118h-230l21 207h-10q-146 -227 -348 -227z" />
    <glyph glyph-name="uni027A" unicode="&#x27a;" horiz-adv-x="862" 
d="M23 -20q-63 0 -97 10l66 291q41 -17 100 -17q118 0 205.5 93t122.5 261l201 938h299l-330 -1556h-230l21 207h-10q-146 -227 -348 -227z" />
    <glyph glyph-name="uni027B" unicode="&#x27b;" horiz-adv-x="862" 
d="M254 -242q0 111 88 392h-8q-132 -170 -311 -170q-63 0 -97 10l66 291q41 -17 100 -17q118 0 205.5 93t122.5 261l106 500h301l-258 -1214q-12 -52 -12 -80q0 -72 82 -72q55 0 104 19v-232q-75 -31 -203 -31t-207 69.5t-79 180.5z" />
    <glyph glyph-name="uni027C" unicode="&#x27c;" horiz-adv-x="862" 
d="M842 1139q59 0 96 -11l-66 -290q-45 16 -100 16q-116 0 -203.5 -91.5t-124.5 -262.5l-211 -992h-301l342 1610h230l-21 -207h11q145 228 348 228z" />
    <glyph glyph-name="uni027D" unicode="&#x27d;" horiz-adv-x="862" 
d="M2 -233q0 76 21 165l251 1186h230l-21 -207h11q145 228 348 228q59 0 96 -11l-66 -290q-45 16 -100 16q-116 0 -203.5 -91.5t-124.5 -262.5l-122 -580q-15 -66 -15 -96q0 -72 82 -72q56 0 105 19v-232q-73 -31 -204.5 -31t-209.5 65.5t-78 193.5z" />
    <glyph glyph-name="uni027E" unicode="&#x27e;" horiz-adv-x="774" 
d="M614 1143q104 0 230 -37l-66 -244q-65 21 -121 21q-141 0 -176 -166l-151 -717h-303l155 735q44 212 146 310t286 98z" />
    <glyph glyph-name="uni027F" unicode="&#x27f;" horiz-adv-x="741" 
d="M334 1143q143 0 227 -81t84 -226q0 -44 -14 -119l-258 -1209h-301l258 1211q6 28 6 67.5t-26.5 68t-82 28.5t-127.5 -21v244q131 37 234 37z" />
    <glyph glyph-name="uni0280" unicode="&#x280;" horiz-adv-x="1198" 
d="M760 1118q180 0 283.5 -79.5t103.5 -217.5t-67.5 -226t-223.5 -140l215 -455h-323l-177 416h-145l-88 -416h-301l237 1118h486zM629 621q95 0 155 45t60 108q0 129 -154 129h-162l-59 -282h160z" />
    <glyph glyph-name="uni0281" unicode="&#x281;" horiz-adv-x="1198" 
d="M1061 389.5q0 -183.5 -135 -286.5t-373 -103h-516l237 1118h301l-90 -416h140l342 416h340l-416 -471q170 -74 170 -257.5zM547 215q89 0 150 45t61 117q0 121 -158 121h-158l-59 -283h164z" />
    <glyph glyph-name="uni0282" unicode="&#x282;" horiz-adv-x="969" 
d="M358 -20q-95 0 -149 8l-27 -133q-6 -28 -6 -52q0 -73 74 -73q48 0 100 18v-213q-72 -27 -182.5 -27t-180 63.5t-69.5 180.5q0 46 10 94l95 447q157 -90 319 -90q80 0 131 32.5t51 82t-37 83.5t-144.5 94t-155.5 127.5t-48 159.5q0 170 110.5 263.5t313.5 93.5t365 -95
l-99 -215q-140 84 -258 84q-57 0 -92 -25.5t-35 -66.5t32 -70.5t138 -83.5q216 -110 215.5 -298t-125 -288.5t-346.5 -100.5z" />
    <glyph glyph-name="uni0283" unicode="&#x283;" horiz-adv-x="608" 
d="M721 1327q-101 0 -127 -119l-283 -1333q-39 -185 -128.5 -276t-241.5 -91q-87 0 -162 29v234q46 -19 98 -19q108 0 133 123l287 1350q72 346 369 346q93 0 155 -31v-233q-50 20 -100 20z" />
    <glyph glyph-name="uni0284" unicode="&#x284;" horiz-adv-x="608" 
d="M721 1327q-101 0 -127 -119l-100 -471h155l-49 -229h-156l-133 -633q-39 -185 -128.5 -276t-241.5 -91q-87 0 -162 29v234q46 -19 98 -19q108 0 133 123l135 633h-153l49 229h152l104 488q72 346 369 346q93 0 155 -31v-233q-50 20 -100 20z" />
    <glyph glyph-name="uni0285" unicode="&#x285;" horiz-adv-x="625" 
d="M250 1143q129 0 203.5 -78t74.5 -215q0 -68 -14 -133l-172 -809q-12 -59 -12 -84q0 -72 82 -72q55 0 104 19v-232q-75 -31 -205.5 -31t-208 65.5t-77.5 193.5q0 69 20 161l168 791q6 28 6 59q0 105 -80 105q-42 0 -96 -21v244q117 37 207 37z" />
    <glyph glyph-name="uni0286" unicode="&#x286;" horiz-adv-x="608" 
d="M-176 -253q0 -71 64 -71q33 0 62 25.5t40 79.5l12 61h-47q-60 0 -95.5 -29t-35.5 -66zM301 -158q-95 -334 -377 -334q-138 0 -210 60.5t-72 157.5q0 130 91.5 202t260.5 72h43l260 1225q72 346 369 346q93 0 155 -31v-233q-50 20 -100 20q-101 0 -127 -119l-256 -1208
h149l-34 -158h-152z" />
    <glyph glyph-name="uni0287" unicode="&#x287;" horiz-adv-x="840" 
d="M365 1133q-67 0 -162 -35v225q111 53 263 53t223 -62.5t71 -195.5q0 -51 -12 -112l-115 -539h151l-28 -148l-197 -83l-131 -236h-195l50 238h-283l49 229h283l114 539q7 26 7 53q0 74 -88 74z" />
    <glyph glyph-name="uni0288" unicode="&#x288;" horiz-adv-x="840" 
d="M414 -248q66 0 161 35v-225q-113 -54 -264 -54t-222 63.5t-71 195.5q0 45 13 112l215 1010h-152l29 147l196 84l132 236h194l-49 -238h283l-50 -229h-282l-215 -1010q-6 -30 -6 -53q0 -74 88 -74z" />
    <glyph glyph-name="uni0289" unicode="&#x289;" horiz-adv-x="1237" 
d="M518 223q145 0 240 266h-328q-20 -84 -20 -143q0 -123 108 -123zM111 301q0 88 20 188h-147l43 199h145l90 430h301l-90 -430h338l90 430h301l-92 -430h154l-43 -199h-152l-104 -489h-230l21 207h-11q-145 -227 -350 -227q-138 0 -211 82.5t-73 238.5z" />
    <glyph glyph-name="uni028A" unicode="&#x28a;" horiz-adv-x="1307" 
d="M68 403q0 300 286 486h-243l49 229h545l-50 -225q-286 -162 -286 -455q0 -104 62 -162.5t167 -58.5q138 0 222.5 99.5t84.5 264.5t-104 312l49 225h502l-49 -229h-252q72 -69 113.5 -157t41.5 -175q0 -268 -169.5 -422.5t-458.5 -154.5q-231 0 -370.5 116.5t-139.5 306.5
z" />
    <glyph glyph-name="uni028B" unicode="&#x28b;" horiz-adv-x="1331" 
d="M934 807q0 88 -86 88q-44 0 -98 -18v229q108 33 224.5 33t190.5 -73t74 -208q0 -50 -10 -102l-58 -271q-38 -183 -111 -289q-148 -217 -482 -216q-221 0 -340 100.5t-119 286.5q0 69 16 139l129 612h301l-129 -618q-12 -59 -12 -105q0 -170 184 -170q107 0 171 68.5
t93 206.5l58 270z" />
    <glyph glyph-name="uni028C" unicode="&#x28c;" horiz-adv-x="1049" 
d="M596 817h-10q-64 -177 -88 -223l-297 -594h-324l604 1118h324l137 -1118h-295l-45 586q-6 57 -6 231z" />
    <glyph glyph-name="uni028D" unicode="&#x28d;" horiz-adv-x="1614" 
d="M543 0v537q0 192 10 297h-10q-73 -231 -119 -338l-219 -496h-307l530 1118h330l6 -520q0 -155 -10 -340h12q87 247 117 320l233 540h324l51 -1118h-281l-4 496q0 209 11 338h-9q-18 -65 -53 -162t-53 -135l-232 -537h-327z" />
    <glyph glyph-name="uni028E" unicode="&#x28e;" horiz-adv-x="1063" 
d="M592 780h-8q-20 -49 -44.5 -114.5t-64.5 -147.5l-260 -518h-328l680 1243q178 324 484 324q88 0 147 -19v-239q-62 12 -130 12q-145 0 -251 -186l-26 -48l163 -1087h-295l-55 498q-12 102 -12 282z" />
    <glyph glyph-name="uni028F" unicode="&#x28f;" horiz-adv-x="1098" 
d="M580 0h-301l88 418l-265 700h310l143 -424l313 424h353l-553 -700z" />
    <glyph glyph-name="uni0290" unicode="&#x290;" horiz-adv-x="932" 
d="M453 -248q0 47 43 248h-543l35 180l575 705h-397l51 233h750l-43 -200l-566 -685h439l-80 -378q-6 -28 -6 -52q0 -73 73 -73q49 0 101 18v-213q-72 -27 -182.5 -27t-180 63.5t-69.5 180.5z" />
    <glyph glyph-name="uni0291" unicode="&#x291;" horiz-adv-x="1143" 
d="M897 328q0 49 -63.5 49t-169.5 -144h49q184 0 184 95zM903 559q85 0 142 -63.5t57 -165.5q0 -162 -117.5 -246t-343.5 -84h-139q-61 -94 -109 -178l-137 69l63 109h-366l35 180l575 705h-397l51 233h750l-43 -200l-566 -685h103q121 160 180 216t118 83t144 27z" />
    <glyph glyph-name="uni0292" unicode="&#x292;" horiz-adv-x="1120" 
d="M915 84.5q0 -167.5 -77.5 -301.5t-220.5 -206.5t-344 -72.5t-363 80v266q70 -40 165.5 -67t174.5 -27q162 0 257 83.5t95 223.5q0 105 -68 163.5t-192 58.5h-135l45 215l399 385h-485l49 233h854l-41 -196l-481 -449q171 -16 269.5 -118.5t98.5 -270z" />
    <glyph glyph-name="uni0293" unicode="&#x293;" horiz-adv-x="1120" 
d="M29 -172q0 -96 150.5 -96t236.5 51q-122 149 -258 149q-59 0 -94 -26.5t-35 -77.5zM180 115q110 0 203 -45.5t186 -149.5q35 70 35 173t-76 167t-206 64h-115l45 215l399 346h-485l49 233h854l-41 -196l-481 -410q164 -20 266 -129t102 -266q0 -265 -165 -416l55 -82
l-162 -111q-36 62 -53 84q-161 -84 -357.5 -84t-306.5 77t-110 222t98 226.5t266 81.5z" />
    <glyph glyph-name="uni0294" unicode="&#x294;" horiz-adv-x="981" 
d="M1071 1175q0 -182 -125 -329t-350 -223l-131 -623h-301l160 752q207 68 324.5 175t117.5 232q0 73 -47.5 117.5t-120.5 44.5q-128 0 -305 -96l-100 217q237 125 441 125t320.5 -105t116.5 -287z" />
    <glyph glyph-name="uni0295" unicode="&#x295;" horiz-adv-x="981" 
d="M178 1067q0 154 67.5 268t192 173t260 59t226.5 -28t198 -97l-139 -217q-147 96 -259.5 96t-179.5 -68t-67 -175t76.5 -191t216.5 -137l-160 -750h-301l133 623q-264 162 -264 444z" />
    <glyph glyph-name="uni0296" unicode="&#x296;" horiz-adv-x="981" 
d="M590 471q0 217 -293 330l160 755h301l-133 -628q133 -85 198.5 -192.5t65.5 -252.5q0 -233 -144.5 -368t-381.5 -135t-418 126l137 218q148 -99 259.5 -99t180 69t68.5 177z" />
    <glyph glyph-name="uni0297" unicode="&#x297;" horiz-adv-x="1053" 
d="M463 -492q-422 0 -422 519q0 324 89 581.5t247 394t354 136.5t342 -72l-92 -229q-54 23 -105.5 40t-117.5 17q-114 0 -206 -109t-149 -318.5t-57 -449.5q0 -266 184 -266q95 0 193 49l65 33v-246q-154 -80 -325 -80z" />
    <glyph glyph-name="uni0298" unicode="&#x298;" horiz-adv-x="1495" 
d="M790 899q164 0 164 -154q0 -78 -55 -132t-144 -54q-155 -1 -155 153q0 78 54 132.5t136 54.5zM434 557q0 -317 254 -317q121 0 220.5 87t155.5 246t56 357q0 142 -65 219.5t-184.5 77.5t-220.5 -91.5t-158.5 -251.5t-57.5 -327zM1432 926q0 -271 -99 -494.5t-271 -337.5
t-412 -114t-383.5 147.5t-143.5 411t99 486t273 341.5t415.5 119t381.5 -144t140 -415z" />
    <glyph glyph-name="uni0299" unicode="&#x299;" horiz-adv-x="1174" 
d="M635 682q182 0 182 139q0 48 -33 74.5t-86 26.5q-85 0 -155 -65t-109 -175h201zM391 412q0 -105 45.5 -163.5t132.5 -58.5t133 43t46 110t-48.5 99.5t-160.5 32.5h-146l-2 -31v-32zM1051 338q0 -106 -58.5 -187.5t-168 -126t-257.5 -44.5q-227 0 -352 116.5t-125 327
t76.5 372t218 252.5t327.5 91t294 -81.5t108 -205.5t-58.5 -189.5t-183.5 -93.5v-8q179 -50 179 -223z" />
    <glyph glyph-name="uni029A" unicode="&#x29a;" horiz-adv-x="1227" 
d="M584 467q-115 0 -173.5 -40t-58.5 -100.5t40.5 -91t103.5 -30.5q158 0 248 128t90 349q0 109 -55.5 168t-150.5 59q-196 0 -196 -123q0 -108 193 -108h47l-45 -211h-43zM1137 678q0 -329 -174.5 -513.5t-479.5 -184.5q-197 0 -315.5 84.5t-118.5 226.5q0 113 70.5 184.5
t202.5 95.5l2 11q-90 29 -139.5 85t-49.5 134q0 162 134.5 250t373.5 88t366.5 -123t127.5 -338z" />
    <glyph glyph-name="uni029B" unicode="&#x29b;" horiz-adv-x="1206" 
d="M395 451.5q0 -118.5 53 -173.5t162 -55q49 0 125 19l39 188h-209l43 203h498l-119 -565q-197 -88 -422.5 -88t-350 114t-124.5 323.5t81.5 375.5t235.5 256t363 90q69 0 133 -11l19 86q42 188 120.5 270.5t212.5 82.5q75 0 136 -29v-233q-48 18 -103 18q-97 0 -123 -115
l-32 -151l-95 -228q-141 66 -255.5 66t-201.5 -56.5t-136.5 -162.5t-49.5 -224.5z" />
    <glyph glyph-name="uni029C" unicode="&#x29c;" horiz-adv-x="1262" 
d="M580 1118l-93 -430h349l90 430h301l-238 -1118h-301l96 461h-346l-98 -461h-303l239 1118h304z" />
    <glyph glyph-name="uni029D" unicode="&#x29d;" horiz-adv-x="608" 
d="M-115 -324q86 0 107 105l12 61h-47q-60 0 -95.5 -29t-35.5 -66q0 -71 59 -71zM506 1556q149 0 149 -120q0 -80 -44 -129.5t-136 -49.5q-151 0 -151 123q0 87 47.5 131.5t134.5 44.5zM-94 -492q-118 0 -190 60.5t-72 157.5q0 130 91.5 202t260.5 72h41l239 1118h302
l-240 -1118h151l-34 -158h-152q-86 -334 -397 -334z" />
    <glyph glyph-name="uni029E" unicode="&#x29e;" horiz-adv-x="1163" 
d="M246 0h-344l497 504l-284 614h336l182 -420l121 72l73 348h301l-342 -1610h-301l160 748q13 65 49 176l13 43h-9z" />
    <glyph glyph-name="uni029F" unicode="&#x29f;" horiz-adv-x="940" 
d="M37 0l237 1118h301l-188 -885h436l-49 -233h-737z" />
    <glyph glyph-name="uni02A0" unicode="&#x2a0;" horiz-adv-x="1217" 
d="M395 399q0 -176 140 -176q70 0 128.5 64t97 188.5t38.5 224t-37.5 147.5t-104 48t-128 -72t-98 -190t-36.5 -234zM388.5 -20q-85.5 0 -153.5 48q-145 101 -145 357q0 198 72 377.5t189.5 278t252.5 98.5q83 0 143.5 -37t114.5 -127h8q6 114 33 252q69 344 371 344
q91 0 156 -31v-233q-53 20 -101 20q-103 0 -129 -117l-360 -1702h-301q47 218 73 337.5t84 304.5h-8q-72 -94 -143 -132t-156.5 -38z" />
    <glyph glyph-name="uni02A1" unicode="&#x2a1;" horiz-adv-x="981" 
d="M1071 1175q0 -182 -125 -329t-350 -223l-31 -138h215l-43 -198h-213l-59 -287h-301l61 287h-178l43 198h176l58 267q207 68 324.5 175t117.5 232q0 73 -47.5 117.5t-120.5 44.5q-128 0 -305 -96l-100 217q237 125 441 125t320.5 -105t116.5 -287z" />
    <glyph glyph-name="uni02A2" unicode="&#x2a2;" horiz-adv-x="981" 
d="M178 1067q0 154 67.5 268t192 173t260 59t226.5 -28t198 -97l-139 -217q-147 96 -259.5 96t-179.5 -68t-67 -175t76.5 -191t216.5 -137l-57 -265h176l-43 -198h-176l-60 -287h-301l62 287h-215l43 198h213l30 138q-264 162 -264 444z" />
    <glyph glyph-name="uni02A3" unicode="&#x2a3;" horiz-adv-x="1909" 
d="M1130 885l-143 -678l553 678h-410zM532 223q70 0 129 63.5t98.5 189.5t39.5 224.5t-37.5 146.5t-104 48t-128 -72t-98 -190t-36.5 -234q0 -176 137 -176zM90 388.5q0 194.5 71.5 373t188.5 278t258 99.5q82 0 141.5 -37t112.5 -127h8l2 28q6 110 25 195l76 358h301
l-94 -438h764l-43 -200l-566 -685h439l-50 -233h-1009l18 145h-8q-135 -165 -319 -165q-147 0 -231.5 107t-84.5 301.5z" />
    <glyph glyph-name="uni02A4" unicode="&#x2a4;" horiz-adv-x="2085" 
d="M532 223q70 0 129 63.5t98.5 189.5t39.5 224.5t-37.5 146.5t-104 48t-128 -72t-98 -190t-36.5 -234q0 -176 137 -176zM90 388.5q0 194.5 71.5 373t188.5 278t258 99.5q82 0 141.5 -37t112.5 -127h8l2 28q6 110 25 195l76 358h301l-94 -438h854l-41 -196l-482 -449
q174 -16 271.5 -120.5t97.5 -270t-77 -299.5t-221 -206.5t-344 -72.5t-364 80v266q76 -43 170.5 -68.5t169.5 -25.5q163 0 258 83t95 224q0 105 -68 163.5t-192 58.5h-136l46 215l399 385h-486l-186 -885h-229l18 145h-8q-135 -165 -319 -165q-147 0 -231.5 107t-84.5 301.5
z" />
    </font>
</defs>
</svg>
